<?xml version="1.0" encoding="UTF-8"?>
<!-- Generator: Adobe Illustrator 23.0.1, SVG Export Plug-In . SVG Version: 6.00 Build 0)  -->
<svg version="1.1" id="Layer_1" xmlns="http://www.w3.org/2000/svg" xmlns:xlink="http://www.w3.org/1999/xlink" x="0px" y="0px" viewBox="0 0 120 120" style="enable-background:new 0 0 120 120;" xml:space="preserve">
<style type="text/css">
	.st0{fill-rule:evenodd;clip-rule:evenodd;fill:#2B77C8;}
	.st1{filter:url(#Adobe_OpacityMaskFilter);}
	.st2{fill-rule:evenodd;clip-rule:evenodd;fill:#FFFFFF;}
	.st3{mask:url(#mask-3_1_);fill-rule:evenodd;clip-rule:evenodd;fill:#2B77C8;}
	.st4{filter:url(#Adobe_OpacityMaskFilter_1_);}
	.st5{mask:url(#mask-3_2_);fill-rule:evenodd;clip-rule:evenodd;fill:#2B77C8;}
	.st6{filter:url(#Adobe_OpacityMaskFilter_2_);}
	.st7{mask:url(#mask-3_3_);fill-rule:evenodd;clip-rule:evenodd;fill:#2B77C8;}
	.st8{filter:url(#Adobe_OpacityMaskFilter_3_);}
	.st9{mask:url(#mask-3_4_);fill-rule:evenodd;clip-rule:evenodd;fill:#2B77C8;}
	.st10{filter:url(#Adobe_OpacityMaskFilter_4_);}
	.st11{mask:url(#mask-3_5_);fill-rule:evenodd;clip-rule:evenodd;fill:#2B77C8;}
	.st12{filter:url(#Adobe_OpacityMaskFilter_5_);}
	.st13{mask:url(#mask-3_6_);fill-rule:evenodd;clip-rule:evenodd;fill:#2B77C8;}
	.st14{filter:url(#Adobe_OpacityMaskFilter_6_);}
	.st15{mask:url(#mask-3_7_);fill-rule:evenodd;clip-rule:evenodd;fill:#2B77C8;}
	.st16{filter:url(#Adobe_OpacityMaskFilter_7_);}
	.st17{mask:url(#mask-3_8_);fill-rule:evenodd;clip-rule:evenodd;fill:#2B77C8;}
	.st18{filter:url(#Adobe_OpacityMaskFilter_8_);}
	.st19{mask:url(#mask-3_9_);fill-rule:evenodd;clip-rule:evenodd;fill:#2B77C8;}
	.st20{filter:url(#Adobe_OpacityMaskFilter_9_);}
	.st21{mask:url(#mask-3_10_);fill-rule:evenodd;clip-rule:evenodd;fill:#2B77C8;}
	.st22{filter:url(#Adobe_OpacityMaskFilter_10_);}
	.st23{mask:url(#mask-3_11_);fill-rule:evenodd;clip-rule:evenodd;fill:#2B77C8;}
	.st24{filter:url(#Adobe_OpacityMaskFilter_11_);}
	.st25{mask:url(#mask-3_12_);fill-rule:evenodd;clip-rule:evenodd;fill:#2B77C8;}
	.st26{filter:url(#Adobe_OpacityMaskFilter_12_);}
	.st27{mask:url(#mask-3_13_);fill-rule:evenodd;clip-rule:evenodd;fill:#2B77C8;}
	.st28{filter:url(#Adobe_OpacityMaskFilter_13_);}
	.st29{mask:url(#mask-3_14_);fill-rule:evenodd;clip-rule:evenodd;fill:#2B77C8;}
	.st30{filter:url(#Adobe_OpacityMaskFilter_14_);}
	.st31{mask:url(#mask-3_15_);fill-rule:evenodd;clip-rule:evenodd;fill:#2B77C8;}
</style>
<title>Group 4</title>
<g id="Symbols">
	<g id="Group-4" transform="translate(-48.000000, -58.000000)">
		<g transform="translate(47.500000, 58.000000)">
			<polygon id="Fill-1" class="st0" points="61.3,0 58.5,3.2 61.7,6 64.5,2.8    "/>
			<g id="Group-90" transform="translate(0.500000, 1.000000)">
				<path id="Fill-2" class="st0" d="M16.9,88.6l-0.2-0.3c0.4-0.2,0.6-0.4,0.6-0.5c0-0.1,0.1-0.2,0.1-0.4c0-0.2,0-0.4-0.1-0.6      c-0.1-0.2-0.2-0.5-0.3-0.7c-0.2-0.3-0.5-0.6-0.9-0.6c-0.3-0.1-0.6,0-0.9,0.2c-0.3,0.2-0.4,0.4-0.5,0.6c0,0.2,0,0.6,0.3,1      c0.3,0.6,0.5,1.1,0.5,1.4c0,0.3,0,0.5-0.1,0.8c-0.1,0.3-0.3,0.5-0.6,0.7c-0.5,0.3-1,0.4-1.5,0.3c-0.6-0.1-1.1-0.5-1.6-1.2      c-0.2-0.3-0.3-0.5-0.5-0.8c-0.1-0.2-0.2-0.5-0.2-0.8l0.1-0.1c0.2-0.1,0.3-0.1,0.5-0.2c0.1-0.1,0.4-0.2,0.7-0.4l0.2,0.3      c-0.4,0.3-0.6,0.4-0.6,0.5c-0.1,0.1-0.1,0.3,0,0.5c0,0.3,0.1,0.5,0.3,0.8c0.2,0.3,0.5,0.5,0.8,0.6c0.3,0.1,0.6,0,0.8-0.1      c0.2-0.1,0.3-0.2,0.3-0.4c0.1-0.2,0.1-0.3,0-0.5c0-0.2-0.2-0.5-0.4-1c-0.2-0.5-0.3-0.8-0.4-1c-0.1-0.3,0-0.6,0.1-0.8      c0.1-0.3,0.3-0.5,0.6-0.7c0.5-0.4,1.1-0.4,1.7-0.3c0.6,0.2,1.2,0.6,1.7,1.3c0.2,0.3,0.4,0.6,0.5,0.9c0.1,0.3,0.2,0.6,0.2,1      c-0.2,0.1-0.4,0.1-0.5,0.2C17.5,88.2,17.2,88.4,16.9,88.6"/>
				<path id="Fill-4" class="st0" d="M10.1,86l-0.3,0.2c-0.2-0.5-0.5-1-0.7-1.4c-0.2-0.4-0.4-0.8-0.6-1.2l0.3-0.2      c0.2,0.3,0.3,0.5,0.4,0.5c0.1,0,0.1,0.1,0.2,0c0.1,0,0.3-0.3,0.8-0.8l2.3-2.5l-2.7,0.2c-1,0.1-1.6,0.1-1.8,0.2      c-0.1,0-0.1,0.1-0.1,0.2c0,0.1,0.1,0.3,0.2,0.6L7.7,82c-0.2-0.5-0.4-0.8-0.5-1c-0.1-0.2-0.3-0.5-0.5-0.9l0.3-0.2      c0.2,0.3,0.3,0.4,0.3,0.4c0.1,0,0.5,0,1.2,0l3.6-0.2c0.7,0,1.3-0.1,1.7-0.1l0.3,0.6l-2.8,3.1c-0.6,0.7-1.1,1.2-1.3,1.5      c-0.1,0.2-0.2,0.3-0.2,0.3C9.9,85.5,10,85.7,10.1,86"/>
				<path id="Fill-6" class="st0" d="M12.2,76.5l-0.2,0.1c-0.1-0.1-0.3-0.2-0.4-0.3c-0.5,0.1-1.4,0.4-2.8,0.9      c-1,0.3-1.6,0.6-1.9,0.7C6.6,78,6.5,78,6.5,78.1c0,0.1,0,0.3,0.1,0.7l-0.4,0.1c-0.2-0.7-0.4-1.2-0.5-1.6L4.8,75      c-0.1-0.2-0.2-0.5-0.2-0.7l0,0C5,74.2,5.4,74.1,5.9,74l0.1,0.3c-0.4,0.2-0.6,0.3-0.6,0.3c0,0,0,0.1,0,0.2c0,0.3,0.1,0.6,0.3,1.1      c0.1,0.2,0.2,0.5,0.3,0.8C7,76.5,7.7,76.2,8.2,76c-0.1-0.3-0.2-0.6-0.3-0.9c-0.1-0.4-0.2-0.6-0.3-0.7c0,0-0.1-0.1-0.2-0.1      c-0.1,0-0.2,0-0.6,0.1l-0.1-0.4c0.5-0.2,0.8-0.3,1-0.3l1-0.4l0.1,0.4c-0.4,0.2-0.6,0.3-0.6,0.3c0,0,0,0.1,0,0.1      c0,0.2,0.1,0.5,0.3,1c0.1,0.2,0.1,0.3,0.2,0.5c0.2,0,0.3-0.1,0.5-0.2c0.8-0.3,1.4-0.5,1.9-0.7l-0.3-0.8      c-0.2-0.5-0.4-0.9-0.6-1.3c-0.3,0-0.6,0.1-1,0.1L9,72.6c0.5-0.1,1-0.3,1.5-0.4c0.1,0.2,0.2,0.5,0.3,0.7c0.1,0.2,0.2,0.5,0.3,0.9      c0.1,0.4,0.3,0.8,0.4,1.2C11.8,75.5,12,76,12.2,76.5"/>
				<path id="Fill-8" class="st0" d="M4.4,72.8L4,72.9c-0.1-0.6-0.2-1.1-0.3-1.6c-0.1-0.3-0.2-0.7-0.3-1.2L3.8,70      c0.1,0.3,0.1,0.5,0.2,0.6c0,0,0.1,0.1,0.1,0.1c0,0,0.1,0,0.2,0c0.2,0,0.7-0.1,1.4-0.3c0.6-0.1,1.1-0.2,1.7-0.3      c0.5-0.1,0.8-0.2,1-0.4c0.2-0.2,0.3-0.3,0.4-0.6c0.1-0.3,0.1-0.7,0-1c-0.1-0.5-0.3-0.8-0.5-1c-0.2-0.2-0.5-0.3-0.8-0.4      c-0.3,0-0.9,0.1-1.8,0.3l-1.6,0.3c-0.4,0.1-0.6,0.1-0.7,0.2c0,0-0.1,0.1-0.1,0.1c0,0.1,0,0.3,0,0.7l-0.4,0.1      c-0.1-0.4-0.1-0.7-0.2-1c-0.1-0.3-0.1-0.6-0.3-1L3,66.3c0.1,0.3,0.1,0.5,0.2,0.5c0.1,0.1,0.3,0.1,0.5,0c0.7-0.1,1.4-0.2,2.3-0.4      c0.5-0.1,0.9-0.2,1.1-0.2c0.4-0.1,0.8,0,1.1,0.1c0.3,0.1,0.6,0.3,0.9,0.7c0.3,0.3,0.5,0.8,0.6,1.4c0.1,0.6,0.1,1.1,0,1.5      c-0.1,0.4-0.3,0.7-0.5,1C9,71,8.6,71.2,8.1,71.3l-2,0.4c-0.2,0-0.6,0.1-1.2,0.3c-0.2,0-0.3,0.1-0.4,0.2c0,0-0.1,0.1-0.1,0.1      C4.4,72.3,4.4,72.5,4.4,72.8"/>
				<path id="Fill-10" class="st0" d="M7.3,58.7l0.1-0.1c0.2,0.1,0.3,0.1,0.5,0.2c0.2,0.3,0.4,0.7,0.4,1c0.1,0.3,0.2,0.7,0.2,1.1      c0,0.8-0.1,1.4-0.3,2c-0.2,0.6-0.6,1-1.1,1.3c-0.5,0.3-1.1,0.5-1.7,0.5c-0.9,0-1.7-0.2-2.4-0.9c-0.6-0.6-1-1.5-1-2.7      c0-0.4,0-0.8,0-1.1c0-0.4,0.1-0.8,0.3-1.1l0.1,0c0.2,0,0.3,0.1,0.5,0.1c0.3,0,0.6,0,1,0l0,0.4c-0.5,0-0.7,0.1-0.8,0.1      c0,0-0.1,0.1-0.2,0.3c-0.1,0.2-0.2,0.4-0.2,0.6c-0.1,0.3-0.1,0.5-0.1,0.8c0,0.7,0.3,1.3,0.8,1.7c0.5,0.4,1.1,0.6,1.9,0.5      c0.9,0,1.6-0.3,2.1-0.9c0.5-0.5,0.7-1.2,0.6-2c0-0.3-0.1-0.6-0.1-0.9C7.7,59.4,7.5,59.1,7.3,58.7L7.3,58.7z M0,59.8l1.6,1.2      l0,0.5l-1.5,1.2l0-0.4L1,61.2l-1-1L0,59.8z"/>
				<path id="Fill-12" class="st0" d="M8.3,57.9l-0.4,0c0-0.4,0-0.6-0.1-0.7s-0.2-0.1-0.4-0.1c-0.4,0-1.1-0.1-2.2-0.1      c-0.4,0-1,0-1.8-0.1c-0.5,0-0.8,0-0.9,0c-0.1,0-0.1,0-0.1,0.1c0,0.1-0.1,0.3-0.1,0.7l-0.4,0C2,57,2,56.5,2,56.2      c0-0.6,0-1.1,0-1.5l0.4,0c0,0.4,0,0.6,0.1,0.7c0,0.1,0.1,0.1,0.3,0.1c0.3,0,0.9,0.1,1.8,0.1c1.2,0.1,2,0.1,2.5,0.1      c0.5,0,0.7,0,0.8,0c0,0,0.1-0.1,0.1-0.1C8,55.5,8,55.3,8.1,55l0.4,0l0,0.5c0,0.3-0.1,0.6-0.1,0.9L8.3,57.9z"/>
				<path id="Fill-14" class="st0" d="M8.4,54l-0.2,0c-0.1-0.2-0.1-0.3-0.2-0.5c-0.8-0.1-1.7-0.2-2.6-0.3c-0.7-0.1-1.4-0.1-2-0.2      c-0.4,0-0.7,0-0.8,0c0,0-0.1,0-0.1,0.1c0,0-0.1,0.3-0.1,0.6l-0.4,0c0.1-0.6,0.1-1.1,0.2-1.6c0.1-0.5,0.1-0.9,0.1-1.4l0.4,0      c0,0.4,0,0.6,0,0.7c0,0,0.1,0.1,0.2,0.1c0.1,0,0.6,0.1,1.5,0.2L6.5,52c0.4,0,0.9,0.1,1.4,0.1c0.1-0.4,0.1-0.7,0.1-0.9      c0.1-0.6,0.1-1,0-1.4c-0.3-0.1-0.6-0.2-0.9-0.3l0-0.4c0.4,0.1,1,0.2,1.6,0.3c0,0.3,0,0.5-0.1,0.8l-0.2,1.6l-0.1,0.7      C8.5,52.9,8.4,53.4,8.4,54"/>
				<path id="Fill-16" class="st0" d="M9.1,48.8l-0.4-0.1c0.1-0.4,0.1-0.6,0-0.7c0-0.1-0.1-0.1-0.3-0.2c-0.4-0.1-1.1-0.2-2.2-0.5      c-0.4-0.1-1-0.2-1.8-0.3C3.9,47,3.6,47,3.6,47c-0.1,0-0.1,0-0.1,0.1c0,0.1-0.1,0.3-0.2,0.7l-0.4-0.1C3,47,3.1,46.6,3.1,46.2      c0.1-0.6,0.2-1.1,0.3-1.5l0.4,0.1c-0.1,0.4-0.1,0.6,0,0.7c0,0.1,0.1,0.1,0.3,0.2c0.3,0.1,0.9,0.2,1.7,0.4c1.2,0.2,2,0.4,2.4,0.5      c0.5,0.1,0.7,0.1,0.8,0.1c0,0,0.1,0,0.1-0.1c0-0.1,0.1-0.3,0.2-0.6l0.4,0.1l-0.1,0.5c-0.1,0.3-0.1,0.6-0.2,0.9L9.1,48.8z"/>
				<path id="Fill-18" class="st0" d="M8,44.4l0.1-0.4c0.4,0.1,0.7,0.2,0.8,0.2c0.1,0,0.2-0.1,0.4-0.2c0.2-0.1,0.3-0.3,0.5-0.5      c0.1-0.2,0.3-0.4,0.3-0.7c0.1-0.4,0.1-0.8,0-1.1c-0.1-0.3-0.4-0.5-0.7-0.6c-0.3-0.1-0.6-0.1-0.8,0c-0.2,0.1-0.4,0.4-0.6,0.8      c-0.3,0.6-0.6,1.1-0.7,1.3c-0.2,0.2-0.4,0.3-0.7,0.4c-0.3,0.1-0.6,0.1-0.9,0c-0.5-0.2-1-0.5-1.2-1c-0.3-0.5-0.3-1.2,0-2      c0.1-0.3,0.2-0.6,0.3-0.8c0.1-0.2,0.3-0.5,0.5-0.7l0.1,0c0.2,0.1,0.3,0.2,0.5,0.2c0.1,0.1,0.4,0.2,0.8,0.3l-0.1,0.4      C6,40.1,5.7,40,5.7,40c-0.1,0-0.3,0.1-0.4,0.3c-0.2,0.2-0.3,0.4-0.4,0.7c-0.1,0.4-0.1,0.7,0,1c0.1,0.3,0.3,0.5,0.6,0.5      c0.2,0.1,0.4,0.1,0.5,0c0.2,0,0.3-0.1,0.4-0.3c0.1-0.1,0.3-0.5,0.5-1c0.2-0.5,0.4-0.8,0.5-0.9c0.2-0.2,0.4-0.4,0.7-0.5      c0.3-0.1,0.6-0.1,0.9,0c0.6,0.2,1.1,0.6,1.3,1.2s0.3,1.3,0,2.1c-0.1,0.4-0.2,0.7-0.4,0.9S9.7,44.8,9.5,45      c-0.2-0.1-0.4-0.2-0.5-0.3C8.7,44.7,8.4,44.6,8,44.4L8,44.4z M2.9,39.1L4,40.8l-0.2,0.5l-1.8,0.6l0.1-0.4l1.2-0.7l-0.5-1.3      L2.9,39.1z"/>
				<path id="Fill-20" class="st0" d="M11.9,38.8l-0.4-0.1c0.1-0.2,0.1-0.3,0.2-0.5c0-0.1,0-0.2,0-0.2c0,0-0.1-0.1-0.1-0.1      c-0.1-0.1-0.5-0.3-1.3-0.6c-0.5-0.2-1.1-0.5-1.7-0.7c-1.1-0.5-1.7-0.7-1.7-0.7c0,0-0.1,0.1-0.2,0.3c-0.2,0.4-0.3,0.7-0.4,1      c-0.1,0.2-0.1,0.3-0.1,0.3c0,0,0,0.1,0.1,0.1c0,0,0.3,0.2,0.7,0.4l-0.2,0.4c-0.5-0.2-1-0.4-1.4-0.5l0-0.1      c0.4-0.8,0.8-1.7,1.2-2.5c0.4-0.8,0.7-1.7,1.1-2.8l0.1,0c0.4,0.2,0.8,0.4,1.3,0.7L9,33.3c-0.5-0.2-0.7-0.3-0.8-0.2      c0,0-0.1,0-0.1,0.1c-0.1,0.2-0.3,0.6-0.6,1.3c0,0.1,0,0.1,0,0.1c0,0,0.1,0.1,0.2,0.1l2.8,1.2c0.8,0.3,1.3,0.5,1.5,0.6      c0.2,0.1,0.3,0.1,0.4,0c0,0,0.2-0.2,0.4-0.6l0.4,0.1c-0.2,0.4-0.4,0.8-0.6,1.3C12.2,37.9,12,38.4,11.9,38.8"/>
				<path id="Fill-22" class="st0" d="M14,34l-0.2-0.1c0-0.2,0-0.3,0-0.5c-0.4-0.3-1.2-0.8-2.5-1.6c-0.9-0.5-1.5-0.9-1.8-1      c-0.2-0.1-0.3-0.1-0.3-0.1c-0.1,0-0.2,0.2-0.5,0.5L8.4,31c0.4-0.6,0.7-1.1,0.9-1.4l1.3-2.1c0.1-0.2,0.3-0.4,0.4-0.6l0.1,0      c0.3,0.2,0.6,0.5,1.1,0.8L11.9,28c-0.4-0.2-0.6-0.3-0.6-0.3c0,0-0.1,0-0.2,0.1c-0.2,0.2-0.4,0.5-0.7,0.9      c-0.1,0.2-0.3,0.5-0.4,0.8c0.8,0.5,1.4,0.9,1.9,1.2c0.2-0.3,0.4-0.5,0.5-0.8c0.2-0.4,0.3-0.6,0.4-0.7c0-0.1,0-0.1-0.1-0.2      c0,0-0.2-0.2-0.5-0.3l0.2-0.3c0.4,0.3,0.7,0.4,0.8,0.5l0.9,0.5L14,29.8c-0.4-0.2-0.6-0.3-0.6-0.3c0,0-0.1,0-0.1,0.1      c-0.1,0.1-0.3,0.4-0.6,0.8c-0.1,0.1-0.2,0.3-0.3,0.5c0.1,0.1,0.3,0.2,0.4,0.3c0.7,0.4,1.3,0.8,1.7,1l0.5-0.8      c0.3-0.4,0.5-0.8,0.7-1.2c-0.2-0.2-0.4-0.4-0.7-0.7l0.2-0.3c0.4,0.3,0.9,0.6,1.3,0.9c-0.1,0.2-0.3,0.5-0.4,0.7      c-0.1,0.1-0.3,0.4-0.5,0.8c-0.2,0.4-0.5,0.7-0.7,1.1C14.6,33.1,14.3,33.5,14,34"/>
				<path id="Fill-24" class="st0" d="M13.4,23.9l-0.3-0.2c0.4-0.5,0.8-0.9,1.1-1.2c0.2-0.2,0.4-0.6,0.8-1l0.3,0.2      c-0.2,0.2-0.3,0.4-0.3,0.5c0,0,0,0.1,0,0.1c0,0.1,0.1,0.1,0.1,0.2c0.1,0.1,0.5,0.4,1.1,0.9c0.4,0.4,0.9,0.7,1.3,1.1      c0.4,0.3,0.7,0.5,0.9,0.5c0.2,0.1,0.5,0,0.7-0.1c0.3-0.1,0.6-0.3,0.8-0.6c0.3-0.4,0.5-0.7,0.5-1c0-0.3,0-0.6-0.2-0.8      c-0.2-0.2-0.6-0.7-1.4-1.2l-1.3-1c-0.3-0.2-0.5-0.4-0.6-0.4c0,0-0.1,0-0.1,0c-0.1,0-0.2,0.2-0.5,0.4L16,20.1      c0.3-0.3,0.5-0.6,0.7-0.8c0.2-0.2,0.4-0.5,0.6-0.8l0.3,0.2c-0.2,0.2-0.3,0.4-0.3,0.5c0,0.1,0.1,0.2,0.3,0.4      c0.5,0.4,1.1,0.9,1.8,1.5c0.4,0.3,0.7,0.6,0.8,0.7c0.3,0.3,0.5,0.6,0.6,0.9c0.1,0.3,0.1,0.7,0,1.1c-0.1,0.4-0.3,0.9-0.7,1.3      c-0.4,0.5-0.8,0.8-1.2,1c-0.4,0.2-0.8,0.3-1.1,0.2c-0.3,0-0.7-0.2-1.1-0.6l-1.6-1.3c-0.1-0.1-0.5-0.4-1-0.8      c-0.2-0.1-0.3-0.2-0.4-0.2c0,0-0.1,0-0.1,0C13.7,23.5,13.6,23.6,13.4,23.9"/>
				<path id="Fill-26" class="st0" d="M23.4,18.8l0.3-0.3c0.3,0.3,0.5,0.5,0.5,0.6s0.2,0.1,0.4,0.1c0.2,0,0.4,0,0.6-0.1      c0.2-0.1,0.4-0.2,0.6-0.4c0.3-0.3,0.5-0.6,0.6-0.9c0.1-0.3,0-0.6-0.3-0.9c-0.2-0.2-0.4-0.4-0.7-0.4c-0.2,0-0.6,0.1-1,0.4      c-0.6,0.4-1.1,0.6-1.3,0.7c-0.3,0.1-0.5,0.1-0.8,0c-0.3-0.1-0.5-0.3-0.7-0.5c-0.4-0.4-0.5-0.9-0.5-1.5c0.1-0.6,0.4-1.1,1.1-1.7      c0.3-0.2,0.5-0.4,0.8-0.5c0.2-0.1,0.5-0.2,0.8-0.3l0.1,0.1c0.1,0.2,0.2,0.3,0.3,0.5c0.1,0.1,0.2,0.3,0.5,0.6l-0.3,0.2      c-0.3-0.3-0.5-0.5-0.6-0.5c-0.1,0-0.3,0-0.5,0c-0.3,0.1-0.5,0.2-0.7,0.4c-0.3,0.3-0.5,0.5-0.5,0.8c0,0.3,0,0.6,0.2,0.8      c0.1,0.1,0.3,0.2,0.4,0.3c0.2,0,0.3,0,0.5,0c0.2-0.1,0.5-0.2,1-0.5c0.4-0.3,0.7-0.4,0.9-0.5c0.3-0.1,0.6-0.1,0.9,0      c0.3,0.1,0.5,0.3,0.8,0.5c0.4,0.5,0.6,1,0.5,1.7c-0.1,0.6-0.5,1.2-1.1,1.8c-0.3,0.2-0.6,0.4-0.9,0.6c-0.3,0.1-0.6,0.3-1,0.3      c-0.1-0.2-0.2-0.4-0.3-0.5C23.8,19.4,23.7,19.1,23.4,18.8"/>
				<path id="Fill-28" class="st0" d="M28.8,16.9l-0.2-0.3c0.3-0.2,0.4-0.4,0.5-0.4c0,0,0-0.1,0-0.1c0-0.1-0.2-0.3-0.5-0.8      c-0.3-0.5-0.6-0.9-0.9-1.3c-0.5-0.8-0.9-1.3-1.2-1.7c-0.2-0.3-0.4-0.5-0.5-0.5c-0.1,0-0.2,0-0.4,0.1L25.4,12l-0.2-0.3l0.4-0.3      c0.3-0.2,0.5-0.3,0.6-0.4c0.2-0.1,0.6-0.4,1-0.7c0.3-0.2,0.4-0.3,0.6-0.4c0.5-0.3,0.8-0.5,1.1-0.5c0.3-0.1,0.5,0,0.8,0.1      c0.2,0.1,0.4,0.3,0.6,0.5c0.3,0.5,0.4,1,0.3,1.5c-0.1,0.5-0.4,1-0.9,1.3c-0.1,0-0.1,0.1-0.2,0.1c-0.1,0-0.2,0.1-0.3,0.1      c-0.1-0.1-0.2-0.1-0.3-0.2l0-0.1c0.1,0,0.1-0.1,0.2-0.1c0.1,0,0.1,0,0.1-0.1c0.3-0.2,0.4-0.4,0.4-0.7c0-0.3,0-0.6-0.3-0.9      c-0.2-0.3-0.5-0.5-0.8-0.6c-0.3-0.1-0.6,0-0.9,0.2c-0.1,0.1-0.3,0.2-0.4,0.4c0.5,0.8,0.9,1.4,1.3,2c0.1,0.2,0.5,0.7,1.2,1.7      c0.3,0.4,0.4,0.6,0.5,0.6c0,0,0.1,0,0.1,0c0.1,0,0.3-0.1,0.7-0.4l0.2,0.3c-0.5,0.3-0.8,0.5-1.1,0.7C30,16,29.6,16.3,28.8,16.9"/>
				<path id="Fill-30" class="st0" d="M33.8,13.7l-0.1-0.2c0.1-0.1,0.2-0.3,0.3-0.5c-0.4-0.7-0.8-1.5-1.2-2.2      c-0.3-0.6-0.7-1.2-1-1.7c-0.2-0.4-0.4-0.6-0.4-0.6c0,0-0.1,0-0.1,0c-0.1,0-0.3,0.1-0.6,0.2l-0.2-0.3c0.5-0.3,1-0.5,1.4-0.8      c0.4-0.2,0.8-0.5,1.2-0.7l0.2,0.3c-0.4,0.2-0.5,0.4-0.6,0.4c0,0,0,0.1,0,0.2c0,0.1,0.3,0.5,0.7,1.3l1.1,1.9      c0.2,0.4,0.4,0.8,0.7,1.2c0.4-0.2,0.6-0.3,0.8-0.4c0.5-0.3,0.9-0.5,1.2-0.8c-0.1-0.3-0.2-0.6-0.3-1l0.4-0.2      c0.2,0.4,0.4,0.9,0.6,1.5c-0.2,0.2-0.5,0.3-0.7,0.4l-1.5,0.8L35,12.9C34.7,13.1,34.3,13.3,33.8,13.7"/>
				<path id="Fill-32" class="st0" d="M38.6,11.2l-0.1-0.3c0.4-0.2,0.6-0.3,0.6-0.4c0-0.1,0-0.2,0-0.4c-0.1-0.4-0.4-1.1-0.8-2      c-0.2-0.4-0.4-0.9-0.7-1.6c-0.2-0.5-0.3-0.8-0.4-0.8c0,0-0.1-0.1-0.1-0.1c-0.1,0-0.3,0.1-0.7,0.2l-0.1-0.3      c0.6-0.2,1-0.4,1.3-0.5c0.5-0.2,1-0.4,1.4-0.6L39,4.6c-0.4,0.2-0.6,0.3-0.6,0.4c0,0.1,0,0.2,0,0.3c0.1,0.3,0.3,0.8,0.7,1.6      c0.5,1.1,0.8,1.8,1,2.2c0.2,0.4,0.3,0.7,0.4,0.7c0,0,0.1,0,0.1,0c0.1,0,0.3-0.1,0.6-0.2l0.1,0.3l-0.5,0.2      c-0.3,0.1-0.6,0.2-0.8,0.3L38.6,11.2z"/>
				<path id="Fill-34" class="st0" d="M43.1,9.5L43,9.1c0.2,0,0.3-0.1,0.5-0.2c0.1,0,0.1-0.1,0.2-0.1c0,0,0-0.1,0-0.2      c0-0.1-0.1-0.6-0.4-1.4c-0.2-0.6-0.3-1.1-0.5-1.7c-0.4-1.1-0.5-1.7-0.6-1.7c0,0-0.1,0-0.3,0.1c-0.4,0.1-0.7,0.2-1,0.3      c-0.2,0.1-0.3,0.1-0.3,0.1c0,0,0,0.1,0,0.1c0,0,0.1,0.3,0.2,0.8l-0.4,0.1c-0.2-0.5-0.3-1-0.5-1.4l0,0c0.9-0.2,1.8-0.5,2.7-0.7      c0.9-0.3,1.8-0.6,2.9-0.9l0.1,0.1c0.1,0.4,0.2,0.9,0.3,1.4l-0.4,0.1C45.3,3.3,45.2,3,45.2,3c0,0-0.1,0-0.2,0      c-0.2,0-0.7,0.2-1.4,0.4c-0.1,0-0.1,0-0.1,0.1c0,0,0,0.1,0.1,0.2l0.9,2.9c0.3,0.8,0.4,1.3,0.5,1.5c0.1,0.2,0.1,0.3,0.2,0.3      c0,0,0.3,0,0.7-0.1L46,8.6c-0.4,0.1-0.9,0.2-1.4,0.4C44,9.1,43.5,9.3,43.1,9.5"/>
				<path id="Fill-36" class="st0" d="M46.9,2.2l-0.1-0.4c0.6-0.1,1.2-0.1,1.6-0.2c0.3,0,0.7-0.1,1.2-0.2l0.1,0.4      c-0.3,0-0.5,0.1-0.6,0.2c0,0-0.1,0.1-0.1,0.1c0,0,0,0.1,0,0.2c0,0.2,0.1,0.6,0.2,1.4c0.1,0.5,0.2,1.1,0.3,1.7      c0.1,0.5,0.2,0.8,0.3,1s0.3,0.3,0.6,0.4c0.3,0.1,0.7,0.1,1,0.1c0.5-0.1,0.8-0.2,1.1-0.4c0.2-0.2,0.4-0.4,0.4-0.7      c0-0.3,0-0.9-0.2-1.8l-0.3-1.6c-0.1-0.4-0.1-0.6-0.2-0.7c0,0-0.1-0.1-0.1-0.1c-0.1,0-0.3,0-0.7,0l-0.1-0.4      c0.4,0,0.7-0.1,1.1-0.1c0.3,0,0.6-0.1,1-0.2l0.1,0.4c-0.3,0-0.5,0.1-0.5,0.2C53,1.4,53,1.5,53,1.8c0.1,0.7,0.2,1.4,0.3,2.3      c0.1,0.5,0.1,0.9,0.1,1.1c0,0.4,0,0.8-0.1,1.1c-0.1,0.3-0.4,0.6-0.7,0.8c-0.4,0.2-0.8,0.4-1.4,0.5c-0.6,0.1-1.1,0.1-1.5,0      c-0.4-0.1-0.7-0.3-1-0.5c-0.2-0.2-0.4-0.6-0.4-1.1l-0.3-2c0-0.2-0.1-0.6-0.2-1.2c0-0.2-0.1-0.3-0.1-0.4c0,0-0.1-0.1-0.1-0.1      C47.4,2.1,47.2,2.1,46.9,2.2"/>
				<path id="Fill-38" class="st0" d="M66.7,6.8l0.1-0.4c0.4,0,0.6,0.1,0.7,0c0.1,0,0.1-0.1,0.1-0.3c0.1-0.6,0.2-1.2,0.3-2      C67.9,3.6,68,3,68.1,2.3c0.1-0.6,0.1-1,0.1-1.1c0,0,0-0.1-0.1-0.1c0,0-0.3-0.1-0.6-0.2l0.1-0.4c0.5,0.1,1,0.2,1.4,0.2      C69.5,0.8,70,0.9,70.6,1c0.4,0,0.7,0.1,1,0.1c0.2,0,0.4,0.1,0.6,0.1l0,0.1c-0.1,0.4-0.2,0.8-0.3,1.3l-0.4-0.1l0-0.5      c0-0.2,0-0.2,0-0.3c0,0-0.1-0.1-0.3-0.2c-0.2-0.1-0.5-0.1-0.8-0.2c-0.3,0-0.5-0.1-0.8-0.1c-0.1,0.5-0.2,0.8-0.2,1.1l-0.1,1      l0,0.2c0.2,0,0.4,0.1,0.7,0.1c0.5,0.1,0.7,0.1,0.8,0.1c0.1,0,0.1,0,0.1-0.1c0-0.1,0.1-0.2,0.2-0.5l0.4,0.1      c0,0.3-0.1,0.5-0.1,0.8c0,0.2-0.1,0.6-0.2,1.2l-0.4-0.1c0-0.4,0-0.6,0-0.7c0,0,0-0.1-0.1-0.1c-0.1-0.1-0.4-0.1-0.9-0.2l-0.6-0.1      L69,5.8c0,0.4-0.1,0.7,0,0.7c0,0,0,0.1,0.1,0.1c0.1,0,0.3,0.1,0.7,0.2l-0.1,0.4C69.2,7.1,68.8,7,68.3,7      C68,6.9,67.4,6.9,66.7,6.8"/>
				<path id="Fill-40" class="st0" d="M71.9,7.6L72,7.2c0.4,0.1,0.6,0.1,0.7,0.1c0.1,0,0.1-0.1,0.2-0.3c0.1-0.4,0.3-1.1,0.5-2.1      c0.1-0.4,0.2-1,0.4-1.8c0.1-0.5,0.2-0.8,0.2-0.9c0-0.1,0-0.1-0.1-0.1c-0.1,0-0.3-0.1-0.7-0.2l0.1-0.4c0.6,0.2,1.1,0.3,1.4,0.3      c0.6,0.1,1.1,0.2,1.5,0.3l-0.1,0.4c-0.4-0.1-0.6-0.1-0.7-0.1c-0.1,0-0.1,0.1-0.2,0.3c-0.1,0.3-0.2,0.8-0.4,1.7      c-0.3,1.1-0.4,1.9-0.5,2.4c-0.1,0.4-0.1,0.7-0.1,0.8c0,0,0,0.1,0.1,0.1c0.1,0,0.3,0.1,0.6,0.2l-0.1,0.4l-0.5-0.1      c-0.3-0.1-0.6-0.2-0.9-0.2L71.9,7.6z"/>
				<path id="Fill-42" class="st0" d="M75.6,8.4l0.1-0.2c0.2,0,0.4-0.1,0.5-0.1c0.3-0.8,0.5-1.6,0.8-2.4c0.2-0.7,0.4-1.3,0.5-1.9      c0.1-0.4,0.2-0.7,0.1-0.7c0,0,0-0.1-0.1-0.1c0,0-0.2-0.1-0.6-0.3l0.1-0.4c0.6,0.2,1.1,0.3,1.6,0.5C79.1,2.9,79.5,3,80,3.1      l-0.1,0.4c-0.4-0.1-0.6-0.1-0.7-0.1c0,0-0.1,0.1-0.1,0.1c0,0.1-0.2,0.5-0.4,1.4L77.9,7c-0.1,0.4-0.2,0.9-0.4,1.4      c0.4,0.1,0.7,0.2,0.8,0.3c0.6,0.2,1,0.2,1.4,0.3C80,8.7,80.2,8.4,80.3,8l0.4,0.1c-0.2,0.4-0.4,0.9-0.6,1.5      c-0.3-0.1-0.5-0.1-0.8-0.2L77.7,9L77,8.8C76.7,8.7,76.2,8.6,75.6,8.4"/>
				<path id="Fill-44" class="st0" d="M84.3,11.2c0.6,0.3,1.1,0.3,1.6,0c0.5-0.3,1-0.8,1.4-1.6c0.4-0.9,0.5-1.6,0.4-2.2      c-0.1-0.5-0.5-0.9-1.1-1.2c-0.6-0.3-1.1-0.3-1.7-0.1c-0.5,0.2-1,0.8-1.3,1.6c-0.3,0.6-0.4,1.1-0.4,1.6c0,0.5,0.1,0.9,0.3,1.2      C83.5,10.8,83.9,11,84.3,11.2 M83.9,11.6c-1-0.5-1.7-1.1-2-1.8c-0.3-0.8-0.2-1.6,0.2-2.5c0.3-0.6,0.7-1.1,1.2-1.4      c0.5-0.3,1-0.5,1.6-0.5c0.6,0,1.2,0.1,2,0.5c0.7,0.3,1.2,0.7,1.6,1.1c0.3,0.4,0.5,0.9,0.6,1.4c0.1,0.5-0.1,1.1-0.3,1.6      c-0.3,0.6-0.7,1.1-1.2,1.5c-0.5,0.3-1,0.5-1.6,0.6C85.2,12,84.6,11.9,83.9,11.6"/>
				<path id="Fill-46" class="st0" d="M87.7,13.3l0.2-0.3c1.5-0.5,3.6-1.3,6.2-2.4L93.2,10c-0.5-0.3-0.9-0.6-1.2-0.7      c-0.1-0.1-0.2-0.1-0.3-0.1c-0.1,0-0.2,0.1-0.4,0.3l-0.2,0.2l-0.3-0.2c0.1-0.2,0.3-0.4,0.4-0.6l0.2-0.2c0.1-0.1,0.1-0.2,0.2-0.4      l0.1,0c0.5,0.4,1,0.7,1.4,1c1.6,1,2.5,1.6,2.8,1.8l-0.2,0.3c-2.1,0.8-4.2,1.6-6.2,2.4c0.5,0.4,1,0.7,1.4,1      c0.5,0.3,0.8,0.5,1.1,0.6c0.1,0,0.2,0,0.2,0c0.1,0,0.2-0.2,0.5-0.5l0.2-0.2l0.3,0.2c-0.3,0.3-0.6,0.7-1,1.2      c-0.2-0.1-0.3-0.2-0.5-0.3L89,14.1C88.8,13.9,88.4,13.7,87.7,13.3"/>
				<path id="Fill-48" class="st0" d="M96.1,18.7c0.5,0.4,1,0.5,1.5,0.4c0.6-0.1,1.2-0.5,1.8-1.2c0.6-0.7,1-1.4,1-2.1      c0-0.5-0.2-1-0.8-1.5c-0.5-0.4-1-0.6-1.6-0.5c-0.6,0.1-1.1,0.5-1.7,1.1c-0.4,0.5-0.7,1-0.9,1.4c-0.1,0.5-0.2,0.9-0.1,1.2      C95.5,18.1,95.7,18.4,96.1,18.7 M95.6,19c-0.8-0.7-1.3-1.5-1.4-2.3c-0.1-0.8,0.2-1.6,0.9-2.3c0.5-0.5,1-0.9,1.5-1.1      c0.5-0.2,1.1-0.2,1.7-0.1c0.6,0.1,1.1,0.5,1.8,1c0.6,0.5,1,1,1.2,1.5c0.2,0.5,0.3,1,0.2,1.5c-0.1,0.5-0.4,1-0.8,1.5      c-0.5,0.5-1,0.9-1.5,1.1c-0.6,0.2-1.1,0.2-1.7,0.1C96.7,19.8,96.2,19.5,95.6,19"/>
				<path id="Fill-50" class="st0" d="M98.8,21.8l0.3-0.3c0.3,0.3,0.4,0.4,0.5,0.4c0.1,0,0.2,0,0.3-0.2c0.5-0.4,1-0.8,1.5-1.3      c0.4-0.4,0.9-0.8,1.3-1.3c0.5-0.5,0.7-0.7,0.8-0.8c0,0,0-0.1,0-0.1c0-0.1-0.1-0.2-0.4-0.5l0.3-0.3c0.4,0.4,0.7,0.7,0.9,1      c0.4,0.4,0.8,0.8,1.2,1.3c0.3,0.3,0.5,0.5,0.7,0.7c0.1,0.1,0.3,0.3,0.4,0.4l0,0.1c-0.3,0.2-0.7,0.5-1.1,0.8l-0.3-0.3l0.3-0.4      c0.1-0.1,0.2-0.2,0.2-0.2c0,0,0-0.2-0.2-0.3c-0.1-0.2-0.3-0.4-0.5-0.6c-0.2-0.2-0.4-0.4-0.6-0.6c-0.4,0.3-0.7,0.6-0.8,0.7      l-0.7,0.7l-0.2,0.1c0.1,0.1,0.3,0.3,0.4,0.5c0.3,0.3,0.5,0.5,0.6,0.6c0,0,0.1,0,0.1,0c0.1,0,0.2-0.1,0.5-0.3l0.3,0.3      c-0.2,0.2-0.4,0.3-0.6,0.5c-0.2,0.2-0.5,0.4-0.9,0.8l-0.3-0.3c0.3-0.3,0.4-0.5,0.4-0.5c0,0,0-0.1,0-0.1      c-0.1-0.1-0.3-0.4-0.6-0.7l-0.4-0.4l-1.3,1.2c-0.3,0.3-0.5,0.5-0.5,0.5c0,0,0,0.1,0,0.1c0,0.1,0.2,0.3,0.5,0.6l-0.3,0.3      c-0.3-0.4-0.6-0.7-0.9-1C99.7,22.7,99.3,22.3,98.8,21.8"/>
				<path id="Fill-52" class="st0" d="M104.1,24.7l0.2,0.3c-0.4,0.3-0.6,0.4-0.6,0.5c0,0.1-0.1,0.2-0.1,0.4c0,0.2,0,0.4,0.1,0.6      c0.1,0.2,0.2,0.5,0.3,0.7c0.2,0.3,0.5,0.6,0.9,0.6c0.3,0.1,0.6,0,0.9-0.2c0.3-0.2,0.4-0.4,0.4-0.6c0-0.2-0.1-0.6-0.3-1      c-0.3-0.6-0.5-1.1-0.6-1.4c0-0.3,0-0.5,0.1-0.8c0.1-0.3,0.3-0.5,0.6-0.7c0.5-0.3,1-0.4,1.5-0.3c0.6,0.1,1.1,0.5,1.6,1.2      c0.2,0.3,0.4,0.5,0.5,0.8c0.1,0.2,0.2,0.5,0.3,0.8l-0.1,0.1c-0.2,0.1-0.3,0.1-0.5,0.2c-0.1,0.1-0.4,0.2-0.7,0.4l-0.2-0.3      c0.4-0.3,0.6-0.4,0.6-0.5c0-0.1,0.1-0.3,0-0.5c0-0.3-0.2-0.5-0.3-0.7c-0.2-0.3-0.5-0.5-0.8-0.6c-0.3-0.1-0.6,0-0.8,0.2      c-0.2,0.1-0.3,0.2-0.3,0.4c-0.1,0.2-0.1,0.3,0,0.5c0,0.2,0.2,0.5,0.4,1c0.2,0.4,0.4,0.8,0.4,1c0.1,0.3,0.1,0.6-0.1,0.8      c-0.1,0.3-0.3,0.5-0.6,0.7c-0.5,0.4-1.1,0.5-1.7,0.3c-0.6-0.2-1.2-0.6-1.7-1.3c-0.2-0.3-0.4-0.6-0.5-0.9c-0.1-0.3-0.2-0.6-0.3-1      c0.2-0.1,0.4-0.2,0.5-0.2C103.5,25.1,103.8,25,104.1,24.7"/>
				<path id="Fill-54" class="st0" d="M105.5,30.2l0.3-0.2c0.2,0.3,0.3,0.5,0.4,0.5c0,0,0.1,0,0.1,0c0.1,0,0.1,0,0.3-0.1      c0.2-0.1,0.6-0.3,1.2-0.6l1.5-0.8c0.5-0.3,0.9-0.5,1.2-0.7c0.3-0.2,0.5-0.3,0.5-0.4c0,0,0-0.1,0-0.1c0-0.1-0.1-0.3-0.3-0.6      l0.3-0.2c0.3,0.5,0.5,0.9,0.7,1.3c0.3,0.4,0.5,0.8,0.8,1.2l-0.3,0.2c-0.2-0.3-0.4-0.5-0.4-0.5c-0.1,0-0.2,0-0.3,0      c-0.2,0.1-0.8,0.5-2,1.1l0,0.1c0.4,0.1,0.9,0.3,1.7,0.5c0.8,0.2,1.4,0.3,1.9,0.4l0.1-0.1l0.1-0.1l0.1,0c0.1,0.3,0.3,0.5,0.4,0.7      c0.1,0.2,0.3,0.4,0.4,0.7l-0.3,0.2l-0.2-0.2c-0.1-0.2-0.2-0.3-0.3-0.3c-0.1-0.1-0.3-0.2-0.5-0.2c-0.4-0.1-0.9-0.3-1.5-0.5      l-1.1-0.3l-0.2,0.6c-0.3,0.7-0.6,1.6-0.9,2.5c-0.2,0.6-0.3,0.9-0.3,1c0,0.1,0.1,0.2,0.2,0.4l-0.3,0.2l-0.1-0.2l-0.4-0.7      c-0.1-0.2-0.3-0.4-0.5-0.7c0.2-0.4,0.4-1,0.7-1.8c0.2-0.6,0.4-1.2,0.6-1.8c0-0.1,0-0.1,0-0.1c0,0,0,0,0-0.1c0,0-0.1-0.1-0.1-0.1      c0,0-0.1,0.1-0.3,0.2l-1.2,0.7c-0.3,0.2-0.5,0.3-0.6,0.4c0,0,0,0.1,0,0.1c0,0.1,0.1,0.3,0.3,0.6l-0.3,0.2      c-0.2-0.4-0.4-0.8-0.7-1.3C106.2,31.1,105.9,30.7,105.5,30.2"/>
				<path id="Fill-56" class="st0" d="M109,36.4l0.3-0.2c0.2,0.4,0.3,0.6,0.4,0.6c0.1,0,0.2,0,0.4-0.1c0.4-0.1,1.1-0.4,2.1-0.9      c0.4-0.2,0.9-0.4,1.7-0.7c0.5-0.2,0.8-0.4,0.8-0.4c0,0,0.1-0.1,0.1-0.1c0-0.1-0.1-0.3-0.2-0.7l0.3-0.2c0.2,0.6,0.4,1,0.6,1.3      c0.2,0.5,0.5,1,0.7,1.4l-0.3,0.2c-0.2-0.4-0.3-0.6-0.4-0.6c-0.1,0-0.2,0-0.3,0c-0.3,0.1-0.8,0.3-1.6,0.7c-1.1,0.5-1.8,0.8-2.3,1      c-0.4,0.2-0.7,0.3-0.7,0.4c0,0,0,0.1,0,0.1c0,0.1,0.1,0.3,0.2,0.6l-0.3,0.2l-0.2-0.5c-0.1-0.3-0.2-0.6-0.4-0.8L109,36.4z"/>
				<path id="Fill-58" class="st0" d="M111.2,41.9l0.4-0.1c0.1,0.4,0.2,0.6,0.3,0.6c0,0,0.2,0,0.3,0c0.6-0.1,1.2-0.3,2-0.5      c0.6-0.1,1.1-0.3,1.8-0.5c0.6-0.2,1-0.3,1.1-0.4c0,0,0.1-0.1,0.1-0.1c0-0.1,0-0.3-0.1-0.6l0.4-0.1c0.1,0.5,0.2,0.9,0.3,1.3      c0.1,0.5,0.3,1.1,0.5,1.7c0.1,0.4,0.2,0.7,0.3,1c0.1,0.2,0.1,0.4,0.1,0.5l-0.1,0.1c-0.4,0-0.8,0.1-1.3,0.2l-0.1-0.4l0.5-0.2      c0.1,0,0.2-0.1,0.3-0.1c0,0,0-0.2,0-0.3c0-0.2-0.1-0.5-0.2-0.8c-0.1-0.3-0.2-0.5-0.3-0.8c-0.5,0.1-0.9,0.2-1.1,0.2l-0.9,0.3      l-0.2,0c0,0.2,0.1,0.4,0.2,0.6c0.1,0.4,0.2,0.7,0.2,0.8c0,0,0.1,0.1,0.1,0.1c0.1,0,0.3,0,0.6-0.1l0.1,0.4      c-0.3,0.1-0.5,0.1-0.8,0.2c-0.2,0.1-0.6,0.2-1.1,0.3l-0.1-0.4c0.4-0.1,0.6-0.2,0.6-0.3c0,0,0-0.1,0-0.1c0-0.1-0.1-0.4-0.2-0.9      l-0.2-0.6l-1.7,0.5c-0.4,0.1-0.6,0.2-0.7,0.2c0,0-0.1,0.1-0.1,0.1c0,0.1,0,0.3,0.1,0.7l-0.4,0.1c-0.1-0.5-0.2-0.9-0.3-1.3      C111.6,43.2,111.4,42.6,111.2,41.9"/>
				<path id="Fill-60" class="st0" d="M117.7,48.9l-2.5-0.5c0,0.3,0.1,0.6,0.1,0.9c0.1,0.3,0.1,0.7,0.2,1L117.7,48.9z M112.8,46.7      c0.1,0.3,0.1,0.4,0.2,0.5c0,0,0.2,0.1,0.4,0.1c0.4,0.1,1,0.2,1.7,0.4l4.2,0.9l0.1,0.6l-4.5,2.8c-0.6,0.4-0.9,0.6-0.9,0.7      c0,0.1-0.1,0.3,0,0.6l-0.4,0.1c-0.1-0.5-0.1-0.9-0.2-1.4c-0.1-0.5-0.2-1-0.3-1.4l0.4-0.1c0.1,0.3,0.1,0.5,0.2,0.6      c0,0,0.1,0.1,0.1,0.1c0.1,0,0.2-0.1,0.5-0.3l0.7-0.4c-0.1-0.4-0.1-0.8-0.2-1.2c-0.1-0.4-0.1-0.7-0.2-1.1l-0.5-0.1      c-0.1,0-0.4-0.1-0.6-0.1c-0.1,0-0.1,0-0.2,0c-0.1,0-0.1,0-0.1,0.1c0,0.1,0,0.3,0,0.6l-0.4,0.1c0-0.3-0.1-0.7-0.2-1.1      c-0.1-0.4-0.1-0.7-0.2-1L112.8,46.7z"/>
				<path id="Fill-62" class="st0" d="M113.4,53.9l0.4,0c0,0.4,0.1,0.6,0.1,0.6c0,0,0,0.1,0.1,0.1c0,0,0.1,0.1,0.3,0.1      c0.2,0,0.7,0,1.3,0l1.7,0c0.5,0,1,0,1.4,0c0.4,0,0.6-0.1,0.6-0.1c0,0,0.1,0,0.1-0.1c0-0.1,0-0.3,0.1-0.6l0.4,0c0,0.5,0,1,0,1.4      c0,0.5,0,1,0.1,1.4l-0.4,0c0-0.4-0.1-0.6-0.1-0.7c0-0.1-0.1-0.1-0.3-0.1c-0.2,0-1,0-2.3,0l0,0.1c0.3,0.3,0.7,0.7,1.3,1.3      c0.6,0.6,1.1,1,1.5,1.3l0.2,0l0.2,0l0,0c0,0.3,0,0.6,0,0.8c0,0.2,0,0.5,0,0.8l-0.4,0l0-0.3c0-0.2-0.1-0.3-0.1-0.4      c-0.1-0.1-0.2-0.3-0.3-0.5c-0.3-0.3-0.6-0.7-1.1-1.1l-0.8-0.8l-0.5,0.4c-0.6,0.5-1.3,1.1-2,1.8c-0.4,0.4-0.7,0.6-0.7,0.7      c0,0.1-0.1,0.2-0.1,0.4l-0.4,0l0-0.2l0-0.8c0-0.2,0-0.5,0-0.8c0.3-0.2,0.8-0.7,1.5-1.3c0.5-0.4,1-0.9,1.4-1.3      c0.1-0.1,0.1-0.1,0.1-0.1c0,0,0,0,0-0.1c0,0,0-0.1-0.1-0.1c0,0-0.1,0-0.4,0l-1.4,0c-0.4,0-0.6,0-0.7,0.1c0,0-0.1,0-0.1,0.1      c0,0.1,0,0.3-0.1,0.6l-0.4,0c0-0.4,0-0.9,0-1.5C113.5,55,113.5,54.5,113.4,53.9"/>
				<path id="Fill-64" class="st0" d="M119.5,61.8l0.4,0.1c-0.1,0.6-0.2,1.1-0.3,1.6c0,0.3-0.1,0.7-0.1,1.2l-0.4-0.1      c0-0.3,0-0.5,0-0.6c0,0,0-0.1-0.1-0.1c0,0-0.1-0.1-0.2-0.1c-0.2,0-0.6-0.1-1.4-0.2c-0.6-0.1-1.1-0.2-1.7-0.2      c-0.5-0.1-0.8-0.1-1.1,0c-0.2,0.1-0.4,0.2-0.6,0.4c-0.2,0.3-0.3,0.6-0.4,0.9c-0.1,0.5,0,0.9,0.1,1.1c0.1,0.3,0.3,0.5,0.6,0.6      c0.3,0.1,0.9,0.3,1.8,0.4l1.7,0.2c0.4,0,0.6,0.1,0.7,0c0,0,0.1,0,0.1-0.1c0.1-0.1,0.1-0.3,0.2-0.6l0.4,0.1      c-0.1,0.4-0.1,0.7-0.2,1.1c0,0.3-0.1,0.6-0.1,1l-0.4-0.1c0-0.3,0-0.5,0-0.6c-0.1-0.1-0.2-0.1-0.5-0.2c-0.7-0.1-1.4-0.2-2.3-0.4      c-0.5-0.1-0.9-0.1-1.1-0.2c-0.4-0.1-0.8-0.2-1-0.4c-0.3-0.2-0.5-0.5-0.6-0.9c-0.1-0.4-0.2-0.9-0.1-1.5c0.1-0.6,0.2-1.1,0.5-1.4      c0.2-0.4,0.5-0.6,0.8-0.7c0.3-0.1,0.7-0.2,1.2-0.1l2,0.3c0.2,0,0.6,0.1,1.2,0.1c0.2,0,0.4,0,0.4,0c0,0,0.1,0,0.1-0.1      C119.4,62.3,119.4,62.1,119.5,61.8"/>
				<path id="Fill-66" class="st0" d="M112.3,68.3l0.2,0.1c0,0.2,0.1,0.3,0.2,0.5c0.8,0.2,1.6,0.4,2.5,0.6c0.7,0.2,1.3,0.3,1.9,0.4      c0.4,0.1,0.7,0.1,0.8,0.1c0,0,0.1,0,0.1-0.1c0,0,0.1-0.2,0.2-0.6l0.4,0.1c-0.1,0.6-0.3,1.1-0.4,1.6c-0.1,0.5-0.2,0.9-0.3,1.3      l-0.4-0.1c0.1-0.4,0.1-0.6,0.1-0.7c0,0-0.1-0.1-0.1-0.1c-0.1,0-0.6-0.2-1.4-0.4l-2.2-0.5c-0.4-0.1-0.9-0.2-1.4-0.3      c-0.1,0.4-0.2,0.7-0.2,0.8c-0.1,0.5-0.2,1-0.2,1.4c0.2,0.1,0.5,0.3,0.9,0.4l-0.1,0.4c-0.4-0.2-0.9-0.3-1.6-0.5      c0-0.3,0.1-0.5,0.1-0.8l0.4-1.6l0.2-0.7C112.1,69.4,112.2,68.9,112.3,68.3"/>
				<path id="Fill-68" class="st0" d="M110.5,74.6l0.4,0.1c-0.1,0.2-0.1,0.3-0.2,0.5c0,0.1,0,0.2,0,0.2c0,0,0.1,0.1,0.1,0.1      c0.1,0.1,0.6,0.3,1.3,0.6c0.5,0.2,1.1,0.5,1.7,0.7c1.1,0.4,1.7,0.7,1.7,0.7c0,0,0.1-0.1,0.2-0.3c0.2-0.4,0.3-0.7,0.4-1      c0.1-0.2,0.1-0.3,0.1-0.3c0,0,0-0.1-0.1-0.1c0,0-0.3-0.1-0.7-0.4l0.1-0.4c0.5,0.2,1,0.4,1.4,0.5l0,0.1c-0.4,0.9-0.8,1.7-1.1,2.5      c-0.3,0.8-0.7,1.8-1.1,2.8l-0.1,0c-0.4-0.2-0.8-0.4-1.3-0.7l0.1-0.3c0.5,0.2,0.8,0.2,0.8,0.2c0,0,0.1,0,0.1-0.1      c0.1-0.2,0.3-0.6,0.6-1.3c0-0.1,0-0.1,0-0.1c0,0-0.1-0.1-0.2-0.1l-2.8-1.2c-0.8-0.3-1.3-0.5-1.5-0.6c-0.2-0.1-0.3-0.1-0.4,0      c0,0-0.2,0.2-0.4,0.6l-0.4-0.1c0.2-0.4,0.4-0.8,0.6-1.3C110.1,75.5,110.3,75,110.5,74.6"/>
				<path id="Fill-70" class="st0" d="M108.3,79.4l0.2,0.1c0,0.2,0,0.3,0,0.5c0.4,0.3,1.3,0.7,2.6,1.4c0.9,0.5,1.5,0.8,1.9,0.9      c0.2,0.1,0.3,0.1,0.3,0.1c0.1,0,0.2-0.2,0.4-0.5l0.3,0.2c-0.3,0.6-0.6,1.1-0.8,1.5l-1.1,2.2c-0.1,0.2-0.2,0.4-0.4,0.6l-0.1,0      c-0.3-0.2-0.6-0.4-1.1-0.7l0.2-0.3c0.4,0.2,0.6,0.3,0.7,0.3c0,0,0.1-0.1,0.2-0.1c0.2-0.2,0.4-0.5,0.6-1c0.1-0.2,0.2-0.5,0.4-0.8      c-0.8-0.5-1.5-0.8-2-1.1c-0.2,0.3-0.3,0.5-0.4,0.8c-0.2,0.4-0.3,0.6-0.3,0.7c0,0.1,0,0.1,0.1,0.2c0,0,0.2,0.1,0.5,0.3l-0.2,0.3      c-0.5-0.2-0.7-0.4-0.9-0.5l-0.9-0.4l0.2-0.3c0.4,0.2,0.6,0.2,0.7,0.2c0,0,0.1,0,0.1-0.1c0.1-0.1,0.3-0.4,0.5-0.9      c0.1-0.1,0.2-0.3,0.2-0.5c-0.1-0.1-0.3-0.2-0.4-0.2c-0.8-0.4-1.4-0.7-1.8-0.9l-0.4,0.8c-0.2,0.5-0.4,0.9-0.6,1.3      c0.2,0.2,0.5,0.4,0.8,0.6l-0.2,0.3c-0.5-0.3-0.9-0.6-1.3-0.8c0.1-0.3,0.2-0.5,0.3-0.7c0.1-0.1,0.2-0.4,0.5-0.9      c0.2-0.4,0.4-0.8,0.6-1.1C107.8,80.4,108.1,79.9,108.3,79.4"/>
				<path id="Fill-72" class="st0" d="M105.1,85.1l0.3,0.2c-0.1,0.1-0.2,0.3-0.3,0.5c0,0.1-0.1,0.1,0,0.2c0,0,0,0.1,0.1,0.2      c0.1,0.1,0.5,0.4,1.1,0.9c0.5,0.3,1,0.7,1.5,1.1c1,0.7,1.5,1,1.5,1.1c0,0,0.1-0.1,0.2-0.2c0.2-0.3,0.5-0.6,0.6-0.9      c0.1-0.1,0.1-0.2,0.1-0.3c0,0,0-0.1,0-0.1c0,0-0.2-0.2-0.6-0.5l0.2-0.3c0.5,0.3,0.9,0.6,1.2,0.8v0.1c-0.6,0.7-1.2,1.5-1.7,2.2      c-0.5,0.7-1.1,1.5-1.7,2.5l-0.1,0c-0.3-0.3-0.7-0.6-1.1-0.9l0.2-0.3c0.4,0.3,0.7,0.4,0.7,0.4c0,0,0.1,0,0.1-0.1      c0.2-0.2,0.5-0.5,0.9-1.1c0,0,0-0.1,0-0.1c0,0-0.1-0.1-0.2-0.2l-2.5-1.8c-0.7-0.5-1.2-0.8-1.3-0.9c-0.2-0.1-0.3-0.1-0.4-0.1      c0,0-0.2,0.2-0.5,0.5l-0.3-0.2c0.3-0.3,0.6-0.7,0.9-1.1C104.5,85.8,104.8,85.4,105.1,85.1"/>
				<g id="Clip-75">
				</g>
				<defs>
					<filter id="Adobe_OpacityMaskFilter" filterUnits="userSpaceOnUse" x="39.8" y="30.8" width="16.7" height="16.4">
						<feColorMatrix type="matrix" values="1 0 0 0 0  0 1 0 0 0  0 0 1 0 0  0 0 0 1 0"/>
					</filter>
				</defs>
				<mask maskUnits="userSpaceOnUse" x="39.8" y="30.8" width="16.7" height="16.4" id="mask-3_1_">
					<g class="st1">
						<polygon id="path-2_1_" class="st2" points="0,118.3 120,118.3 120,0.2 0,0.2       "/>
					</g>
				</mask>
				<polygon id="Fill-74" class="st3" points="39.8,47.2 56.4,47.2 56.4,30.8 39.8,30.8     "/>
				<defs>
					<filter id="Adobe_OpacityMaskFilter_1_" filterUnits="userSpaceOnUse" x="24.5" y="86.7" width="31.9" height="23.7">
						<feColorMatrix type="matrix" values="1 0 0 0 0  0 1 0 0 0  0 0 1 0 0  0 0 0 1 0"/>
					</filter>
				</defs>
				<mask maskUnits="userSpaceOnUse" x="24.5" y="86.7" width="31.9" height="23.7" id="mask-3_2_">
					<g class="st4">
						<polygon id="path-2_2_" class="st2" points="0,118.3 120,118.3 120,0.2 0,0.2       "/>
					</g>
				</mask>
				<path id="Fill-76" class="st5" d="M56.4,110.3L56.4,110.3c-12.3-0.6-31.8-7.3-31.9-22.2c0-0.5,0-1,0.1-1.5h7.4l0.8,4.1l23.7-3.1      V110.3z"/>
				<defs>
					<filter id="Adobe_OpacityMaskFilter_2_" filterUnits="userSpaceOnUse" x="31.8" y="23" width="8" height="7.8">
						<feColorMatrix type="matrix" values="1 0 0 0 0  0 1 0 0 0  0 0 1 0 0  0 0 0 1 0"/>
					</filter>
				</defs>
				<mask maskUnits="userSpaceOnUse" x="31.8" y="23" width="8" height="7.8" id="mask-3_3_">
					<g class="st6">
						<polygon id="path-2_3_" class="st2" points="0,118.3 120,118.3 120,0.2 0,0.2       "/>
					</g>
				</mask>
				<polygon id="Fill-77" class="st7" points="31.8,30.8 39.8,30.8 39.8,23 31.8,23     "/>
				<defs>
					<filter id="Adobe_OpacityMaskFilter_3_" filterUnits="userSpaceOnUse" x="56.4" y="23" width="8" height="7.8">
						<feColorMatrix type="matrix" values="1 0 0 0 0  0 1 0 0 0  0 0 1 0 0  0 0 0 1 0"/>
					</filter>
				</defs>
				<mask maskUnits="userSpaceOnUse" x="56.4" y="23" width="8" height="7.8" id="mask-3_4_">
					<g class="st8">
						<polygon id="path-2_4_" class="st2" points="0,118.3 120,118.3 120,0.2 0,0.2       "/>
					</g>
				</mask>
				<polygon id="Fill-78" class="st9" points="56.4,30.8 64.4,30.8 64.4,23 56.4,23     "/>
				<defs>
					<filter id="Adobe_OpacityMaskFilter_4_" filterUnits="userSpaceOnUse" x="64.4" y="30.8" width="16.7" height="16.4">
						<feColorMatrix type="matrix" values="1 0 0 0 0  0 1 0 0 0  0 0 1 0 0  0 0 0 1 0"/>
					</filter>
				</defs>
				<mask maskUnits="userSpaceOnUse" x="64.4" y="30.8" width="16.7" height="16.4" id="mask-3_5_">
					<g class="st10">
						<polygon id="path-2_5_" class="st2" points="0,118.3 120,118.3 120,0.2 0,0.2       "/>
					</g>
				</mask>
				<polygon id="Fill-79" class="st11" points="64.4,47.2 81.1,47.2 81.1,30.8 64.4,30.8     "/>
				<defs>
					<filter id="Adobe_OpacityMaskFilter_5_" filterUnits="userSpaceOnUse" x="81.1" y="23" width="8" height="7.8">
						<feColorMatrix type="matrix" values="1 0 0 0 0  0 1 0 0 0  0 0 1 0 0  0 0 0 1 0"/>
					</filter>
				</defs>
				<mask maskUnits="userSpaceOnUse" x="81.1" y="23" width="8" height="7.8" id="mask-3_6_">
					<g class="st12">
						<polygon id="path-2_6_" class="st2" points="0,118.3 120,118.3 120,0.2 0,0.2       "/>
					</g>
				</mask>
				<polygon id="Fill-80" class="st13" points="81.1,30.8 89.1,30.8 89.1,23 81.1,23     "/>
				<defs>
					<filter id="Adobe_OpacityMaskFilter_6_" filterUnits="userSpaceOnUse" x="31.8" y="47.2" width="8" height="7.8">
						<feColorMatrix type="matrix" values="1 0 0 0 0  0 1 0 0 0  0 0 1 0 0  0 0 0 1 0"/>
					</filter>
				</defs>
				<mask maskUnits="userSpaceOnUse" x="31.8" y="47.2" width="8" height="7.8" id="mask-3_7_">
					<g class="st14">
						<polygon id="path-2_7_" class="st2" points="0,118.3 120,118.3 120,0.2 0,0.2       "/>
					</g>
				</mask>
				<polygon id="Fill-81" class="st15" points="31.8,55.1 39.8,55.1 39.8,47.2 31.8,47.2     "/>
				<defs>
					<filter id="Adobe_OpacityMaskFilter_7_" filterUnits="userSpaceOnUse" x="56.4" y="47.2" width="8" height="7.8">
						<feColorMatrix type="matrix" values="1 0 0 0 0  0 1 0 0 0  0 0 1 0 0  0 0 0 1 0"/>
					</filter>
				</defs>
				<mask maskUnits="userSpaceOnUse" x="56.4" y="47.2" width="8" height="7.8" id="mask-3_8_">
					<g class="st16">
						<polygon id="path-2_8_" class="st2" points="0,118.3 120,118.3 120,0.2 0,0.2       "/>
					</g>
				</mask>
				<polygon id="Fill-82" class="st17" points="56.4,55.1 64.4,55.1 64.4,47.2 56.4,47.2     "/>
				<defs>
					<filter id="Adobe_OpacityMaskFilter_8_" filterUnits="userSpaceOnUse" x="81.1" y="47.2" width="8" height="7.8">
						<feColorMatrix type="matrix" values="1 0 0 0 0  0 1 0 0 0  0 0 1 0 0  0 0 0 1 0"/>
					</filter>
				</defs>
				<mask maskUnits="userSpaceOnUse" x="81.1" y="47.2" width="8" height="7.8" id="mask-3_9_">
					<g class="st18">
						<polygon id="path-2_9_" class="st2" points="0,118.3 120,118.3 120,0.2 0,0.2       "/>
					</g>
				</mask>
				<polygon id="Fill-83" class="st19" points="81.1,55.1 89.1,55.1 89.1,47.2 81.1,47.2     "/>
				<defs>
					<filter id="Adobe_OpacityMaskFilter_9_" filterUnits="userSpaceOnUse" x="39.8" y="55.1" width="16.7" height="16.4">
						<feColorMatrix type="matrix" values="1 0 0 0 0  0 1 0 0 0  0 0 1 0 0  0 0 0 1 0"/>
					</filter>
				</defs>
				<mask maskUnits="userSpaceOnUse" x="39.8" y="55.1" width="16.7" height="16.4" id="mask-3_10_">
					<g class="st20">
						<polygon id="path-2_10_" class="st2" points="0,118.3 120,118.3 120,0.2 0,0.2       "/>
					</g>
				</mask>
				<polygon id="Fill-84" class="st21" points="39.8,71.5 56.4,71.5 56.4,55.1 39.8,55.1     "/>
				<defs>
					<filter id="Adobe_OpacityMaskFilter_10_" filterUnits="userSpaceOnUse" x="64.4" y="55.1" width="16.7" height="16.4">
						<feColorMatrix type="matrix" values="1 0 0 0 0  0 1 0 0 0  0 0 1 0 0  0 0 0 1 0"/>
					</filter>
				</defs>
				<mask maskUnits="userSpaceOnUse" x="64.4" y="55.1" width="16.7" height="16.4" id="mask-3_11_">
					<g class="st22">
						<polygon id="path-2_11_" class="st2" points="0,118.3 120,118.3 120,0.2 0,0.2       "/>
					</g>
				</mask>
				<polygon id="Fill-85" class="st23" points="64.4,71.5 81.1,71.5 81.1,55.1 64.4,55.1     "/>
				<defs>
					<filter id="Adobe_OpacityMaskFilter_11_" filterUnits="userSpaceOnUse" x="31.8" y="71.5" width="8" height="7.8">
						<feColorMatrix type="matrix" values="1 0 0 0 0  0 1 0 0 0  0 0 1 0 0  0 0 0 1 0"/>
					</filter>
				</defs>
				<mask maskUnits="userSpaceOnUse" x="31.8" y="71.5" width="8" height="7.8" id="mask-3_12_">
					<g class="st24">
						<polygon id="path-2_12_" class="st2" points="0,118.3 120,118.3 120,0.2 0,0.2       "/>
					</g>
				</mask>
				<polygon id="Fill-86" class="st25" points="31.8,79.3 39.8,79.3 39.8,71.5 31.8,71.5     "/>
				<defs>
					<filter id="Adobe_OpacityMaskFilter_12_" filterUnits="userSpaceOnUse" x="81.1" y="71.5" width="8" height="7.8">
						<feColorMatrix type="matrix" values="1 0 0 0 0  0 1 0 0 0  0 0 1 0 0  0 0 0 1 0"/>
					</filter>
				</defs>
				<mask maskUnits="userSpaceOnUse" x="81.1" y="71.5" width="8" height="7.8" id="mask-3_13_">
					<g class="st26">
						<polygon id="path-2_13_" class="st2" points="0,118.3 120,118.3 120,0.2 0,0.2       "/>
					</g>
				</mask>
				<polygon id="Fill-87" class="st27" points="81.1,79.3 89.1,79.3 89.1,71.5 81.1,71.5     "/>
				<defs>
					<filter id="Adobe_OpacityMaskFilter_13_" filterUnits="userSpaceOnUse" x="56.4" y="110.4" width="8" height="7.8">
						<feColorMatrix type="matrix" values="1 0 0 0 0  0 1 0 0 0  0 0 1 0 0  0 0 0 1 0"/>
					</filter>
				</defs>
				<mask maskUnits="userSpaceOnUse" x="56.4" y="110.4" width="8" height="7.8" id="mask-3_14_">
					<g class="st28">
						<polygon id="path-2_14_" class="st2" points="0,118.3 120,118.3 120,0.2 0,0.2       "/>
					</g>
				</mask>
				<polygon id="Fill-88" class="st29" points="56.4,118.3 64.4,118.3 64.4,110.4 56.4,110.4     "/>
				<defs>
					<filter id="Adobe_OpacityMaskFilter_14_" filterUnits="userSpaceOnUse" x="64.4" y="86.7" width="31.9" height="23.7">
						<feColorMatrix type="matrix" values="1 0 0 0 0  0 1 0 0 0  0 0 1 0 0  0 0 0 1 0"/>
					</filter>
				</defs>
				<mask maskUnits="userSpaceOnUse" x="64.4" y="86.7" width="31.9" height="23.7" id="mask-3_15_">
					<g class="st30">
						<polygon id="path-2_15_" class="st2" points="0,118.3 120,118.3 120,0.2 0,0.2       "/>
					</g>
				</mask>
				<path id="Fill-89" class="st31" d="M64.4,110.3L64.4,110.3c12.3-0.6,31.8-7.3,31.9-22.2c0-0.5,0-1-0.1-1.5h-7.4l-0.8,4.1      l-23.7-3.1V110.3z"/>
			</g>
		</g>
	</g>
</g>
</svg>