<?xml version="1.0" encoding="utf-8"?>
<!-- Generator: Adobe Illustrator 28.0.0, SVG Export Plug-In . SVG Version: 6.00 Build 0)  -->
<svg version="1.1" id="Layer_1" xmlns="http://www.w3.org/2000/svg" xmlns:xlink="http://www.w3.org/1999/xlink" x="0px" y="0px"
	 viewBox="0 0 75.7 75.7" style="enable-background:new 0 0 75.7 75.7;" xml:space="preserve">
<style type="text/css">
	.st0{fill:none;stroke:#00265A;stroke-width:0.7;}
	.st1{fill-rule:evenodd;clip-rule:evenodd;fill:url(#SVGID_1_);}
	.st2{fill-rule:evenodd;clip-rule:evenodd;fill:#00265A;}
	.st3{fill:#00265A;}
</style>
<g>
	<path class="st0" d="M75.3,37.8c0,20.7-16.8,37.5-37.5,37.5S0.3,58.6,0.3,37.8S17.1,0.3,37.9,0.3S75.3,17.1,75.3,37.8z"/>
	<path class="st0" d="M63.3,37.8c0,14.1-11.4,25.5-25.5,25.5S12.3,52,12.3,37.8s11.4-25.5,25.5-25.5S63.3,23.8,63.3,37.8z"/>
	
		<linearGradient id="SVGID_1_" gradientUnits="userSpaceOnUse" x1="26.8623" y1="182.45" x2="49.2001" y2="221.1403" gradientTransform="matrix(1 0 0 1 0 -164)">
		<stop  offset="0.1" style="stop-color:#1B75BC"/>
		<stop  offset="0.7" style="stop-color:#00265A"/>
	</linearGradient>
	<path class="st1" d="M46.5,58.5c-6-0.1-15.3-1.5-22.3-3c-0.6-0.3-0.9-1-1.2-1.3c9.3,0.8,18.3,2.7,28.1,1.6
		C49.8,57,48.2,57.8,46.5,58.5 M34.9,17.5c-4.2,5.2-5.7,13.8-4.4,21.4c-1.8-0.2-4.3-0.4-5.8-1.6c0.7-0.5,1.6-1.3,4.9-2.9
		c-2.9-0.2-5,2.1-6,2.4c-0.5,0-1.3-0.6-1.8-1.5c1.1-1.9,5.1-4,7.9-4.7c-4.6-0.3-6.8,2.5-8.8,3.7L20,33.2c2.1-3.5,5.4-5.3,10.3-6.7
		c-5.4-0.1-8,2.9-10.9,5c-0.3-0.2-0.5-0.7-0.4-1c1.4-3.5,8.4-6.8,12.5-7.5c-4.3-0.5-9.9,2.5-12.5,5.2c0.2-4.4,8.7-8.4,13.9-8.7
		c-3.2-1-9.8,2-11.7,3.4C24.4,19.3,28.5,16.6,34.9,17.5z M49.2,18.2c-1.6,6.5-4.5,13.6-3.4,21.4c-2.2-1.4-5.7-2.4-8.7-2.2
		c1.2-0.7,4.8-1.7,7.7-2.9c-4.5-0.3-9.2,2.3-11.8,3.8c0.1-0.8-0.1-1.5,0.5-2.1c2.4-2.8,9.2-5,12-5.6c-3.7-0.5-9.9,2.5-12.1,4.4
		c-0.5-0.1-0.3-2.1-0.3-2.6c2.3-2.6,6.6-4.2,13.4-5.9c-4.4-0.8-9.9,1.8-12.8,3.8c0.2-1.7,0.9-3.1,2.3-4.2c2.8-2.1,7.6-3,11.7-3.7
		c-2.9-0.8-9.6,1.3-11.8,2.4c1-3.9,8-5.1,12.7-5.3c-2.4-1-6.9,0.1-8.3,0.4C42.2,18.1,46.9,17,49.2,18.2z M58.2,28
		c-2.5,2.9-3.1,7.7-1.9,11.4c-1.7-0.7-6.7-1.6-8.6,0.5c0.4-0.8-0.2-1,0.4-1.4c1.6-1.4,5-2,7-2.3c-1.8-1.3-5.7,0.9-7.2,1.3
		c-0.1-1.4-0.1-2.1,0.5-2.8c1.5-0.9,4.4-1.7,7.2-2.1c-2.5-0.9-4.6,0.1-6.9,0.9c-0.5-1,0.8-2.7,1.7-3.2c0.4-0.3,4.8-0.8,6.4-0.8
		c-2-1-4.9-0.3-5.9-0.2C53.5,26.8,56.2,27.5,58.2,28z M51.8,55.2c-11,0.1-20.8-2.5-31.2-3.8l-1-0.9c10.5,0.5,26.4,3,35.2,1.3
		c-12.4,0.4-25.9-3.1-36.8-4.2l-0.3-0.9c2.3,0,34.8,3.7,39.9,1.1c-20.3,0.9-22.5-2.7-40.8-3.9v-1C28,44.1,48,46.5,59.3,43.6
		c-23.9,2.7-26.5-2.3-43.1-3.1v-0.7c14.5-0.9,30.9,6.9,44.1-1.2C60.9,45.2,57.1,51.8,51.8,55.2z M43.2,60c-4.4,1.1-9,0.9-13.4-1.3
		L43.2,60z"/>
	<g>
		<path class="st2" d="M38,6c0.5,0,0.9,0.4,0.9,0.9S38.5,7.8,38,7.8S37,7.3,37,6.8S37.5,6,38,6"/>
		<path class="st2" d="M38,68.4c0.5,0,0.9,0.4,0.9,0.9s-0.4,0.9-0.9,0.9S37,69.8,37,69.3S37.5,68.4,38,68.4z"/>
		<g>
			<path class="st3" d="M33.9,66.2c0.1,0.1,0.1,0.1,0.1,0.3c-0.1,0.4-0.2,0.8-0.2,0.9s-0.1,0.2-0.1,0.2c-0.1,0-0.1-0.1,0-0.1
				c0-0.1,0-0.2,0-0.4c-0.1-0.6-0.5-0.8-0.9-0.9c-0.7-0.1-1.1,0.3-1.1,0.7c-0.1,0.4,0,0.7,0.5,1.3l0.3,0.3c0.7,0.8,0.9,1.3,0.8,1.9
				c-0.2,0.8-0.9,1.2-1.9,1.1c-0.5-0.1-0.8-0.2-1-0.3c-0.1,0-0.1-0.1-0.1-0.1c0-0.1,0.1-0.3,0.2-0.9c0-0.2,0.1-0.2,0.1-0.2
				s0.1,0.1,0,0.1c0,0.1,0,0.3,0.1,0.5s0.2,0.4,0.7,0.5c0.5,0.1,0.9-0.2,1-0.6c0.1-0.3-0.1-0.6-0.6-1.2l-0.2-0.2
				c-0.8-0.8-1-1.4-0.9-2.1c0.1-0.4,0.3-0.9,0.9-1.1c0.4-0.2,0.8-0.2,1.2-0.1C33.2,66,33.6,66.1,33.9,66.2z"/>
			<path class="st3" d="M28.6,70.1c0,0.4,0.1,0.6,0.3,0.7c0.1,0.1,0.2,0.1,0.3,0.1c0.1,0,0.1,0.1,0.1,0.1c0,0.1-0.1,0-0.2,0
				c-0.4-0.1-0.8-0.3-1-0.4s-0.5-0.2-0.9-0.3c-0.1,0-0.2-0.1-0.1-0.1s0.1-0.1,0.1,0c0.1,0,0.2,0.1,0.3,0.1c0.1,0,0.1-0.1,0.1-0.1
				c0-0.1,0-0.3,0-0.6l-0.1-3.6l0,0c-0.6,0.7-2.3,2.6-2.6,3c-0.1,0.1-0.1,0.2-0.1,0.2c0,0.1,0,0.1,0,0.2c0.1,0.1,0.2,0.1,0.3,0.1
				c0.1,0,0.1,0.1,0.1,0.1c0,0.1-0.1,0.1-0.2,0c-0.4-0.1-0.6-0.2-0.7-0.3c-0.1,0-0.5-0.1-0.7-0.2c-0.1,0-0.1-0.1-0.1-0.1
				c0-0.1,0.1-0.1,0.1,0c0.1,0,0.2,0.1,0.4,0c0.1,0,0.3-0.1,0.6-0.5c0.5-0.6,0.8-0.9,1.5-1.6c0.8-0.9,1.4-1.5,1.7-1.8
				c0.3-0.3,0.4-0.4,0.5-0.4s0.1,0.1,0.1,0.5L28.6,70.1z"/>
			<path class="st3" d="M23.4,66.5c-0.5,1-0.6,1.2-0.7,1.4c-0.1,0.2-0.1,0.4,0.1,0.5c0,0,0.1,0.1,0.2,0.2c0.1,0,0.1,0.1,0.1,0.1
				s-0.1,0-0.2,0c-0.2-0.1-0.4-0.2-0.5-0.3c-0.2-0.1-0.3-0.2-0.4-0.2c-0.2-0.1-1.5-0.8-1.6-0.9s-0.2-0.1-0.3-0.1H20v-0.1
				c0-0.1,0.1-0.1,0.3-0.4c0-0.1,0.2-0.3,0.3-0.4c0,0,0.1-0.1,0.1,0v0.1l-0.1,0.2c0,0.1,0,0.3,0.3,0.5c0.1,0.1,0.8,0.5,0.9,0.5h0.1
				l0.9-1.6c0-0.1,0-0.1,0-0.1c-0.1-0.1-0.9-0.5-1-0.6s-0.3-0.1-0.4-0.1s-0.1,0-0.1,0s0,0,0-0.1s0.1-0.1,0.3-0.4
				c0.1-0.1,0.2-0.4,0.3-0.4c0-0.1,0.1-0.1,0.1-0.1v0.1c0,0.1-0.1,0.2-0.1,0.2c0,0.2,0,0.3,0.2,0.4c0.1,0.1,0.8,0.4,0.9,0.5
				c0,0,0,0,0.1,0l0.3-0.5c0.1-0.2,0.5-0.8,0.5-1c0.2-0.5,0.2-0.6-0.5-1c-0.3-0.1-0.6-0.3-0.8-0.3s-0.4,0.1-0.6,0.3
				c0,0.1-0.1,0.1-0.1,0.1s0-0.1,0-0.2c0.1-0.2,0.4-0.6,0.5-0.7c0.1-0.1,0.2-0.1,0.4,0c0.5,0.3,0.8,0.5,1.1,0.6
				c0.3,0.2,0.5,0.3,0.7,0.4c0.1,0,0.2,0.1,0.4,0.2c0.1,0.1,0.3,0.2,0.5,0.2c0.1,0.1,0.1,0.1,0.1,0.1s0,0-0.1,0
				c-0.1-0.1-0.2-0.1-0.2-0.1c-0.1-0.1-0.3,0.1-0.4,0.2c-0.2,0.2-0.5,0.8-0.8,1.4L23.4,66.5z"/>
			<path class="st3" d="M19.4,64.2c-0.7,0.9-0.8,1-1,1.2c-0.1,0.2-0.2,0.3,0,0.5c0,0.1,0.1,0.1,0.2,0.2s0.1,0.1,0.1,0.1
				s-0.1,0-0.2-0.1c-0.3-0.2-0.6-0.6-0.8-0.7c-0.1-0.1-0.5-0.4-0.7-0.6c-0.1-0.1-0.1-0.1-0.1-0.2H17c0.1,0.1,0.1,0.1,0.2,0.1
				c0.2,0.1,0.3,0,0.5-0.2s0.3-0.3,1-1.2l0.6-0.8c0.7-0.8,0.8-1.3,0.7-1.8c-0.1-0.4-0.3-0.7-0.5-0.8c-0.2-0.2-0.6-0.4-1-0.3
				c-0.6,0.1-1,0.6-1.5,1.2l-0.6,0.7c-0.7,0.9-0.8,1-1,1.2c-0.1,0.2-0.2,0.3,0,0.5c0,0,0.1,0.1,0.2,0.2c0.1,0.1,0.1,0.1,0.1,0.1
				s-0.1,0-0.2-0.1c-0.3-0.2-0.6-0.6-0.6-0.6c-0.1-0.1-0.4-0.3-0.7-0.5c-0.1,0.3-0.2,0.3-0.1,0.2s0.1,0,0.1,0c0.1,0,0.1,0.1,0.2,0.1
				c0.2,0.1,0.3,0,0.5-0.2s0.3-0.3,1-1.2l0.5-0.6c0.5-0.6,1.1-1.3,2-1.3c0.7,0,1.2,0.2,1.5,0.6c0.3,0.2,0.8,0.7,1,1.4
				c0.1,0.5,0,1.1-0.7,1.9L19.4,64.2z"/>
			<path class="st3" d="M10.5,61C10.5,61,10.4,61,10.5,61c-0.1,0-0.1-0.1-0.1-0.2c0-0.2,0-0.8,0-0.8v-0.1c0,0-0.1,0-0.1-0.1
				c-0.2,0-0.7-0.2-0.9-0.2c-0.1,0-0.2,0-0.2-0.1v-0.1h0.1c0.1,0,1.2,0.2,1.3,0.2s0.1,0,0.2,0.1c0,0,0,0,0,0.2c0,0.1,0,1,0.1,1.1
				c0,0.1,0,0.1,0,0.2h-0.1L10.5,61z M16.4,57.8c0,1-0.5,1.6-1.1,2.1c-0.4,0.3-1.2,0.8-2.1,0.6c-0.7-0.1-1.4-0.5-2.1-1.3
				c-0.3-0.3-0.4-0.6-0.6-0.9c-0.1-0.2-0.2-0.5-0.4-0.7c-0.1-0.1,0-0.1,0-0.1c0.1,0,0.1-0.1,0.3-0.2c0.2-0.1,0.5-0.4,0.6-0.5
				s0.1-0.1,0.2,0s0,0.1-0.1,0.2c-0.2,0.2-0.3,0.4-0.3,0.7s0.2,0.9,0.6,1.5c0.4,0.5,0.8,0.7,1.2,0.8c0.7,0.1,1.4-0.2,1.9-0.7
				c1.4-1.1,1.2-2.7,0.6-3.5c-0.4-0.5-0.7-0.8-1.2-0.8c-0.2,0-0.4,0-0.5,0.1s-0.1,0.1-0.2,0v-0.1c0.1-0.1,0.6-0.4,0.9-0.5
				c0.1,0,0.2,0,0.3,0c0.3,0.2,0.7,0.5,1,0.9C16,56,16.4,56.8,16.4,57.8z"/>
			<path class="st3" d="M10.6,54.8c-1,0.6-1.1,0.7-1.3,0.8S9,55.8,9.1,56c0,0.1,0.1,0.2,0.1,0.2c0,0.1,0.1,0.1,0,0.1
				c0,0-0.1,0-0.1-0.1C9,56,8.8,55.5,8.6,55.4c-0.1-0.2-0.3-0.5-0.5-0.8c-0.1-0.1-0.1-0.1,0-0.2c0.1,0,0.1,0,0.1,0.1
				s0.1,0.1,0.1,0.2c0.1,0.2,0.3,0.1,0.5,0s0.4-0.2,1.4-0.8l1.1-0.7c0.6-0.4,1.1-0.7,1.4-0.9c0.2-0.1,0.2-0.2,0.2-0.4
				c0-0.1-0.1-0.2-0.2-0.3c0-0.1,0-0.1,0-0.1s0.1,0,0.1,0.1c0.2,0.4,0.5,0.8,0.6,1s0.4,0.5,0.5,0.8c0.1,0.1,0.1,0.1,0,0.2
				c0,0-0.1,0-0.1-0.1c-0.1-0.1-0.1-0.2-0.2-0.2c-0.1-0.1-0.2-0.1-0.4,0c-0.3,0.1-0.8,0.4-1.4,0.8L10.6,54.8z"/>
			<path class="st3" d="M9.8,50.5c0.9-0.4,1.3-0.6,1.4-0.8c0.1-0.2,0-0.4-0.2-0.9c-0.2-0.4-0.3-0.6-0.5-0.7c-0.1,0-0.4,0-0.5,0
				s-0.1,0-0.1,0S9.9,48,10,48s0.6-0.2,0.8-0.2s0.2,0,0.4,0.3c0.2,0.5,0.4,0.8,0.5,1.2c0.1,0.3,0.2,0.6,0.4,0.8
				c0,0.1,0.1,0.2,0.2,0.4c0.1,0.2,0.2,0.3,0.2,0.5c0,0.1,0,0.1,0,0.2c0,0-0.1,0-0.1-0.1c-0.1-0.1-0.1-0.2-0.1-0.2
				c-0.1-0.1-0.2-0.1-0.5,0s-0.8,0.3-1.5,0.6L9.1,52c-1,0.5-1.2,0.5-1.4,0.7c-0.2,0.1-0.3,0.2-0.3,0.5c0,0.1,0,0.1,0.1,0.2
				c0,0.1,0,0.1,0,0.1s-0.1,0-0.1-0.1c-0.1-0.3-0.3-0.8-0.4-0.9c-0.1-0.2-0.3-0.7-0.4-0.9c0-0.1-0.1-0.2,0-0.2s0.1,0,0.1,0.1
				s0.1,0.2,0.1,0.3c0.1,0.2,0.2,0.2,0.5,0.1c0.2-0.1,0.4-0.2,1.4-0.6L9.8,50.5z"/>
			<path class="st3" d="M7.3,47.5C6.2,47.8,6,48,5.8,48s-0.3,0.2-0.3,0.4c0,0.1,0,0.2,0.1,0.3c0,0.1,0,0.1,0,0.1s-0.1,0-0.1-0.2
				c-0.1-0.3-0.2-0.7-0.3-0.9c-0.1-0.2-0.2-0.6-0.3-0.9c0-0.1,0-0.2,0-0.2c0.1,0,0.1,0,0.1,0.1s0.1,0.1,0.1,0.2
				c0.1,0.2,0.2,0.2,0.5,0.1c0.2,0,0.4-0.1,1.5-0.4l1.2-0.4C9,46,9.5,45.8,9.8,45.7c0.2-0.1,0.3-0.2,0.3-0.4c0-0.1-0.1-0.3-0.1-0.4
				c0-0.1,0-0.1,0-0.1c0.1,0,0.1,0,0.1,0.1c0.1,0.5,0.3,0.9,0.3,1.1c0.1,0.2,0.2,0.6,0.3,0.9c0,0.1,0,0.2,0,0.2s-0.1,0-0.1-0.1
				s-0.1-0.2-0.1-0.2c-0.1-0.1-0.2-0.1-0.4-0.1c-0.3,0-0.9,0.2-1.6,0.4L7.3,47.5z"/>
			<path class="st3" d="M2.7,44.8L2.7,44.8c-0.1-0.1-0.1-0.1,0-0.2c0.1-0.2,0.4-0.7,0.4-0.7v-0.1c0,0,0-0.1-0.1-0.1
				c-0.2-0.2-0.5-0.5-0.7-0.7C2.2,43,2.2,43,2.2,43s0-0.1,0.1-0.1h0.1c0.1,0.1,1,0.7,1.1,0.8s0.1,0.1,0.1,0.1s0,0-0.1,0.2
				c0,0.1-0.4,0.9-0.5,1C3.1,45,3.1,45,3.1,45s0,0-0.1,0L2.7,44.8z M9.9,44.1c0,0.1-0.1,0.2-0.2,0.2c-0.4,0.1-0.8,0.1-1,0.1
				c-0.1,0-0.2,0-0.2,0c0-0.1,0.1-0.1,0.1-0.1c0.1,0,0.2-0.1,0.4-0.1C9.6,44,9.7,43.5,9.7,43c-0.1-0.7-0.6-0.9-1-0.8
				c-0.4,0.1-0.7,0.2-1,0.9l-0.3,0.4c-0.5,0.9-0.9,1.3-1.5,1.4C5,45,4.3,44.5,4.2,43.5c-0.1-0.5-0.1-0.8-0.1-1c0-0.1,0-0.1,0.1-0.1
				s0.3,0,0.9-0.1c0.2,0,0.2,0,0.2,0s0,0.1-0.1,0.1s-0.3,0.1-0.4,0.3c-0.1,0.1-0.3,0.4-0.2,0.9c0.1,0.5,0.5,0.8,0.9,0.7
				c0.3-0.1,0.6-0.3,0.9-1l0.1-0.2c0.5-1,1-1.4,1.6-1.5c0.4-0.1,1,0,1.4,0.5c0.3,0.3,0.4,0.7,0.5,1.1C10,43.5,10,43.8,9.9,44.1z"/>
			<path class="st3" d="M4.2,39l0.1,1.1c0,0.4,0.1,0.6,0.2,0.7c0.1,0.1,0.2,0.1,0.3,0.1c0.1,0,0.1,0,0.1,0.1c0,0,0,0.1-0.1,0.1
				S3.9,41,3.9,41c-0.1,0-0.1,0-0.1-0.1s0.1-0.1,0.1-0.3s0-0.5,0-0.7L3.8,37c0-0.2,0-0.4-0.1-0.5c0-0.1,0-0.2,0-0.2s0-0.1,0.2-0.1
				c0.2,0,0.7,0,0.9,0c0.1,0,0.1,0,0.1,0.1s0,0.1-0.2,0.1H4.7c-0.2,0-0.4,0.2-0.4,0.9v0.9l3-0.1c0.7,0,1.3,0,1.6-0.1
				c0.2,0,0.4-0.1,0.4-0.3c0-0.1,0-0.3,0-0.4c0-0.1,0-0.1,0.1-0.1s0.1,0.1,0.1,0.1c0,0.5,0,1,0,1.2s0,0.6,0,0.9c0,0.1,0,0.2-0.1,0.2
				c0,0-0.1,0-0.1-0.1s0-0.2,0-0.3c0-0.2-0.2-0.2-0.4-0.2c-0.3,0-0.9,0-1.6,0L4.2,39z"/>
			<path class="st3" d="M6.1,34.5c-1.1-0.2-1.3-0.2-1.6-0.2c-0.2,0-0.4,0-0.5,0.3c0,0.1-0.1,0.2-0.1,0.3s0,0.1-0.1,0.1
				s-0.1-0.1,0-0.2c0-0.2,0.1-0.4,0.1-0.6C3.9,34,4,33.8,4,33.7c0-0.2,0.2-1.7,0.2-1.8s0-0.3,0-0.3v-0.1c0,0,0,0,0.1,0
				s0.1,0.1,0.5,0.1c0.1,0,0.4,0.1,0.5,0.1c0,0,0.1,0,0.1,0.1c0,0-0.1,0.1-0.1,0c-0.1,0-0.2,0-0.3,0c-0.1,0-0.2,0.1-0.3,0.5
				c0,0.1-0.2,0.9-0.2,1c0,0,0,0,0.1,0.1l1.8,0.3c0.1,0,0.1,0,0.1,0c0-0.2,0.1-1,0.2-1.2s0-0.3-0.1-0.4C6.4,32,6.4,32,6.4,32
				s0,0,0.1,0c0,0,0.2,0,0.5,0.1c0.1,0,0.4,0.1,0.5,0.1s0.1,0,0.1,0.1c0,0,0,0.1-0.1,0.1s-0.2,0-0.3,0c-0.1,0-0.3,0.1-0.3,0.4
				c0,0.1-0.1,0.9-0.2,1c0,0,0,0,0.1,0l0.6,0.1c0.2,0,0.9,0.1,1.1,0.2c0.5,0.1,0.6,0,0.7-0.8c0-0.2,0.1-0.5,0-0.7S9,32.3,8.7,32.2
				c-0.1,0-0.1,0-0.1-0.1s0.1,0,0.1,0c0.2,0,0.7,0.2,0.8,0.2c0.2,0.1,0.2,0.1,0.1,0.4c-0.1,0.5-0.1,1-0.2,1.3
				c-0.1,0.3-0.1,0.5-0.1,0.8c0,0.1,0,0.2-0.1,0.4c0,0.2,0,0.4-0.1,0.5c0,0.1,0,0.1-0.1,0.1c0,0-0.1,0,0-0.1c0-0.1,0-0.2,0-0.3
				c0-0.2-0.2-0.2-0.4-0.3C8.3,35,7.7,34.9,7,34.9L6.1,34.5z"/>
			<path class="st3" d="M7.3,28.1c-1.1-0.4-1.2-0.5-1.5-0.6c-0.2-0.1-0.4-0.1-0.5,0.1c0,0-0.1,0.2-0.1,0.3C5.2,28,5.2,28,5.2,28
				s0-0.1,0-0.2c0.2-0.4,0.3-0.8,0.4-1s0.2-0.6,0.3-0.9c0-0.1,0.1-0.1,0.1-0.1c0.1,0,0.1,0.1,0,0.1C6,26,6,26,5.9,26.1
				c0,0.2,0.1,0.3,0.3,0.4c0.2,0.1,0.4,0.2,1.4,0.6l1,0.4c1,0.4,1.5,0.4,1.9,0.1c0.4-0.2,0.5-0.5,0.6-0.8s0.2-0.7,0-1.1
				c-0.2-0.5-0.8-0.8-1.6-1.1l-0.9-0.4c-1.1-0.4-1.2-0.5-1.5-0.6c-0.2-0.1-0.4-0.1-0.5,0.1L6.5,24c0,0.1-0.1,0.1-0.1,0.1
				s0-0.1,0-0.2c0.1-0.4,0.3-0.8,0.3-0.8c0-0.1,0.2-0.5,0.3-0.8c0-0.1,0.1-0.1,0.1-0.1c0.1,0,0,0.1,0,0.1s0,0.1-0.1,0.2
				c0,0.2,0.1,0.3,0.3,0.4c0.2,0.1,0.4,0.2,1.4,0.6l0.7,0.3c0.8,0.3,1.6,0.7,1.8,1.5c0.2,0.7,0.1,1.2-0.1,1.6
				c-0.1,0.4-0.4,1-1.1,1.3c-0.5,0.2-1.1,0.3-2.1-0.1L7.3,28.1z"/>
			<path class="st3" d="M13.8,22.4c-0.1,0.1-0.1,0.1-0.3,0c-0.3-0.2-0.7-0.5-0.8-0.6s-0.1-0.1-0.1-0.2h0.1c0.1,0.1,0.2,0.1,0.4,0.2
				c0.5,0.2,1-0.1,1.2-0.4c0.4-0.5,0.2-1.1-0.1-1.3c-0.3-0.2-0.6-0.3-1.4-0.1l-0.4,0.1c-1,0.3-1.6,0.2-2.1-0.1
				c-0.7-0.5-0.8-1.4-0.1-2.2c0.3-0.4,0.5-0.6,0.7-0.7c0.1,0,0.1-0.1,0.1,0c0.1,0.1,0.2,0.2,0.7,0.5c0.1,0.1,0.2,0.1,0.1,0.2h-0.1
				c-0.1,0-0.3-0.1-0.5-0.1s-0.5,0.1-0.8,0.5c-0.3,0.5-0.2,0.9,0.1,1.2c0.3,0.2,0.6,0.2,1.3,0l0.2-0.1c1.1-0.3,1.7-0.3,2.2,0.1
				c0.4,0.2,0.7,0.7,0.6,1.3c0,0.4-0.2,0.8-0.4,1.1C14.2,22,14,22.2,13.8,22.4z"/>
			<path class="st3" d="M13.9,16.6c-0.8-0.8-1-0.9-1.1-1.1c-0.2-0.2-0.3-0.2-0.5-0.1c-0.1,0-0.1,0.1-0.2,0.2c-0.1,0.1-0.1,0.1-0.1,0
				c0,0,0-0.1,0.1-0.2c0.3-0.3,0.6-0.6,0.8-0.8s0.5-0.5,0.7-0.8c0.6-0.7,1.1-0.7,1.3-0.7s0.6,0.1,0.9,0.3c0.8,0.7,0.8,1.8,0,2.5
				l-0.1,0.1h-0.1c0,0,0-0.1,0.1-0.2c0.3-0.3,0.4-1-0.2-1.6c-0.2-0.2-0.6-0.5-1.1-0.4c-0.4,0-0.6,0.2-0.7,0.3
				c-0.1,0.1-0.1,0.2-0.2,0.2c0,0,0,0.1,0.1,0.1l2.1,2c0.5,0.5,0.9,0.9,1.2,1.1c0.2,0.1,0.3,0.2,0.5,0.1c0.1-0.1,0.2-0.2,0.3-0.2
				c0.1-0.1,0.1-0.1,0.1,0c0,0,0,0.1,0,0.2c-0.3,0.4-0.7,0.7-0.8,0.8c-0.1,0.1-0.4,0.5-0.6,0.7c-0.5,0.4-0.5,0.4-0.5,0.4v-0.1
				c0.1-0.1,0.1-0.1,0.2-0.2s0-0.3-0.1-0.4c-0.2-0.2-0.6-0.6-1.1-1.1L13.9,16.6z"/>
			<path class="st3" d="M19,13.8c0.6,0.8,0.9,1.1,1.1,1.2c0.2,0,0.4-0.1,0.8-0.4c0.3-0.2,0.5-0.4,0.6-0.7c0-0.1,0-0.4-0.1-0.5
				c0-0.1,0-0.1,0-0.1s0.1,0,0.1,0.1s0.4,0.5,0.4,0.7c0.1,0.2,0.1,0.2-0.2,0.4c-0.4,0.3-0.7,0.6-1,0.8s-0.5,0.4-0.7,0.5
				c-0.1,0-0.2,0.1-0.3,0.3c-0.1,0.1-0.3,0.2-0.4,0.3c-0.1,0.1-0.1,0.1-0.2,0c0,0,0-0.1,0.1-0.1c0.1-0.1,0.1-0.1,0.2-0.2
				c0.1-0.1,0-0.3-0.1-0.4c-0.2-0.3-0.5-0.7-0.9-1.3l-0.8-1c-0.7-0.9-0.8-1.1-1-1.2c-0.2-0.2-0.3-0.2-0.5-0.1
				c-0.1,0-0.1,0.1-0.2,0.1c-0.1,0.1-0.1,0.1-0.1,0c0,0,0-0.1,0.1-0.1c0.3-0.2,0.7-0.5,0.8-0.6c0.1-0.1,0.5-0.5,0.8-0.6
				c0.1-0.1,0.1-0.1,0.2,0s0,0.1-0.1,0.1c-0.1,0.1-0.1,0.1-0.2,0.2c-0.1,0.1-0.1,0.3,0,0.5s0.3,0.4,1,1.2L19,13.8z"/>
			<path class="st3" d="M21.1,10.7c-0.6-1-0.7-1.1-0.8-1.4C20.2,9.1,20.1,9,20,9.1c-0.1,0-0.2,0.1-0.2,0.1c-0.1,0-0.1,0.1-0.1,0
				c0,0,0-0.1,0.1-0.1C20,9,20.5,8.7,20.5,8.6c0.2-0.1,0.5-0.3,0.8-0.5c0.1-0.1,0.1-0.1,0.2,0c0,0.1,0,0.1-0.1,0.1s-0.1,0.1-0.2,0.1
				c-0.1,0.1-0.1,0.3,0,0.5s0.2,0.4,0.8,1.4l0.7,1.1c0.4,0.6,0.7,1.1,0.9,1.4c0.1,0.2,0.2,0.2,0.4,0.2c0.1,0,0.2-0.1,0.3-0.2
				c0.1,0,0.1,0,0.1,0s0,0.1-0.1,0.1c-0.4,0.2-0.8,0.5-1,0.6c-0.1,0.1-0.5,0.3-0.8,0.5c-0.1,0.1-0.1,0.1-0.2,0c0,0,0-0.1,0.1-0.1
				c0.1-0.1,0.2-0.1,0.2-0.2c0.1-0.1,0.1-0.2,0-0.4c-0.1-0.3-0.4-0.8-0.8-1.4L21.1,10.7z"/>
			<path class="st3" d="M24.4,7.1l-1,0.5c-0.4,0.2-0.5,0.3-0.6,0.5c0,0.1,0,0.2,0,0.3s0,0.1,0,0.1s-0.1,0-0.1-0.1s-0.2-0.8-0.2-0.8
				c0-0.1,0-0.2,0-0.2s0.1,0,0.3,0c0.2-0.1,0.5-0.2,0.7-0.2l2.7-1.3c0.2-0.1,0.4-0.2,0.5-0.2c0.1-0.1,0.1-0.1,0.2-0.1
				c0,0,0.1,0,0.1,0.1c0.1,0.1,0.2,0.6,0.3,0.8c0,0.1,0,0.1,0,0.1c-0.1,0-0.1,0-0.1-0.1V6.4c-0.1-0.2-0.4-0.3-1,0l-0.9,0.3l1.2,2.8
				c0.3,0.6,0.5,1.2,0.6,1.4s0.2,0.3,0.4,0.3c0.1,0,0.3-0.1,0.4-0.1s0.1,0,0.1,0c0,0.1,0,0.1-0.1,0.1c-0.5,0.2-0.9,0.4-1.1,0.4
				c-0.2,0.1-0.6,0.3-0.9,0.4c-0.1,0-0.1,0-0.2,0c0,0,0-0.1,0.1-0.1s0.2-0.1,0.2-0.1c0.1-0.1,0.1-0.2,0-0.5s-0.3-0.8-0.6-1.5
				L24.4,7.1z"/>
			<path class="st3" d="M28.9,7.2c-0.2-1.1-0.3-1.3-0.3-1.5c-0.1-0.2-0.1-0.4-0.4-0.4c-0.1,0-0.2,0-0.3,0c-0.1,0-0.1,0-0.1,0
				s0-0.1,0.1-0.1C28.4,5.1,28.9,5,29.1,5s0.6-0.2,0.9-0.2c0.1,0,0.2,0,0.2,0s0,0.1-0.1,0.1S30,4.9,29.9,5c-0.2,0.1-0.2,0.2-0.2,0.5
				c0,0.2,0.1,0.4,0.3,1.5l0.2,1c0.2,1.1,0.5,1.4,0.9,1.7c0.4,0.2,0.7,0.2,1,0.1c0.3-0.1,0.7-0.2,0.9-0.6c0.3-0.5,0.2-1.1,0-1.9
				l-0.2-0.9c-0.2-1.1-0.3-1.3-0.3-1.5c-0.1-0.2-0.2-0.3-0.4-0.3c-0.1,0-0.2,0-0.3,0s-0.1,0-0.1,0s0-0.1,0.1-0.1
				c0.4-0.1,0.8-0.2,0.8-0.2c0.1,0,0.5-0.1,0.8-0.2c0.1,0,0.2,0,0.2,0s0,0.1-0.1,0.1s-0.1,0-0.2,0.1c-0.1,0-0.2,0.1-0.1,0.4
				c0,0.2,0.1,0.4,0.3,1.5L33.7,7c0.2,0.8,0.3,1.7-0.2,2.3C33,9.9,32.5,9.9,32,10.1c-0.4,0.1-1.1,0.2-1.7-0.2
				c-0.4-0.3-0.8-0.7-1-1.8L28.9,7.2z"/>
		</g>
		<g>
			<path class="st3" d="M43.8,6.6C44,5.5,44,5.2,44,5.1s0-0.4-0.2-0.5c0,0-0.2-0.1-0.3-0.1s-0.1,0-0.1-0.1s0.1-0.1,0.2,0
				c0.4,0.1,0.8,0.2,1,0.3c0.3,0.1,0.7,0.1,1,0.2c0.9,0.2,1.2,0.6,1.2,0.7c0.3,0.1,0.4,0.5,0.3,0.9C47,7.5,46,8.1,45,7.8
				c0,0-0.1,0-0.2,0c0,0-0.1,0-0.1-0.1c0-0.1,0.1-0.1,0.2,0c0.4,0.1,1.1-0.2,1.2-1c0-0.2,0.1-0.7-0.2-1.2C45.7,5.1,45.4,5,45.2,5
				c-0.1,0-0.2,0-0.3,0c0,0-0.1,0-0.1,0.1l-0.7,2.9c-0.2,0.7-0.3,1.2-0.3,1.6c0,0.2,0,0.4,0.2,0.4c0.1,0,0.2,0.1,0.4,0.1
				c0.1,0,0.1,0.1,0.1,0.1c0,0.1-0.1,0.1-0.2,0c-0.5-0.1-0.9-0.2-1.1-0.3c-0.2,0-0.6-0.1-0.9-0.2c-0.1,0-0.1-0.1-0.1-0.1
				s0-0.1,0.1,0c0.1,0,0.2,0,0.3,0c0.2,0,0.2-0.1,0.3-0.4C43,9,43.1,8.4,43.3,7.8L43.8,6.6z"/>
			<path class="st3" d="M47.8,8.1c0.5-1.2,1.9-2.3,4-1.4c1.7,0.8,2.3,2.2,1.6,3.7s-2.3,2.3-4,1.5C47.4,11.1,47.2,9.2,47.8,8.1z
				 M52.2,10.2c0.7-1.5,0.2-2.8-0.9-3.3c-0.8-0.4-1.9-0.4-2.6,1.3c-0.6,1.4-0.3,2.9,1,3.4C50.2,11.9,51.4,12.2,52.2,10.2z"/>
			<path class="st3" d="M56.8,9.4C56.8,9.3,57,9.3,57,9.3s0.1,0.1,0,0.3l-1,4.5l4.2-2.1c0.1-0.1,0.2-0.1,0.2,0c0,0,0,0.1,0,0.3
				l-2.2,4c-0.2,0.4-0.3,0.6-0.2,0.8s0.2,0.3,0.3,0.3l0.1,0.1c0,0-0.1,0-0.2,0c-0.2-0.1-0.9-0.8-1.2-1c-0.1-0.1-0.2-0.2-0.1-0.2h0.1
				c0,0,0.1,0,0.2-0.2l1.6-2.9l0,0l-3.3,1.7c-0.3,0.2-0.4,0.2-0.5,0.2c0,0,0-0.2,0-0.4c0.1-0.4,0.3-1.6,0.3-1.9
				c0-0.2,0.3-1.2,0.4-1.8l0,0l-2.1,2.1c-0.1,0.1-0.2,0.2-0.2,0.3c-0.1,0.1,0,0.2,0,0.3c0.1,0.1,0.2,0.2,0.2,0.2l0.1,0.1
				c0,0.1-0.1,0-0.2,0c-0.2-0.2-0.5-0.4-0.6-0.5s-0.4-0.3-0.6-0.4C52.2,13,52.2,13,52.2,13h0.1c0,0,0.1,0.1,0.2,0.1
				c0.2,0.1,0.4-0.1,0.6-0.3L56.8,9.4z"/>
			<path class="st3" d="M60.4,16c1-0.8,2.8-1.1,4.2,0.6c1.2,1.4,1,3-0.3,4.1s-3.1,1-4.3-0.5C58.7,18.5,59.4,16.8,60.4,16z M63.5,20
				c1.3-1,1.5-2.4,0.8-3.4c-0.5-0.7-1.5-1.1-3,0c-1.2,1-1.6,2.4-0.7,3.5C60.9,20.6,61.8,21.3,63.5,20z"/>
			<path class="st3" d="M65.6,21.9c1-0.5,1.2-0.6,1.4-0.7c0.2-0.1,0.3-0.2,0.2-0.5c0-0.1-0.1-0.2-0.1-0.3c0-0.1,0-0.1,0-0.1
				c0.1,0,0.1,0,0.1,0.1c0.2,0.4,0.4,0.8,0.4,0.9c0.1,0.2,0.4,0.7,0.5,0.9c0.2,0.4,0.4,0.9,0.3,1.4c0,0.2-0.2,0.7-0.7,0.9
				c-0.5,0.2-1,0.3-1.9-0.1c-0.4,1-0.8,1.7-1,2.3c-0.2,0.6-0.1,0.9-0.1,1s0.1,0.1,0.1,0.2V28c-0.1,0-0.1,0-0.1-0.1l-0.3-0.6
				c-0.2-0.4-0.2-0.5-0.2-0.8c0-0.4,0.2-0.8,0.5-1.4c0.2-0.5,0.5-1,0.6-1.1v-0.1L65,23.3c0,0,0,0-0.1,0h-0.1
				c-0.6,0.3-1.1,0.6-1.4,0.8c-0.2,0.1-0.3,0.2-0.2,0.4c0,0.1,0.1,0.3,0.1,0.3v0.1c-0.1,0-0.1,0-0.1-0.1c-0.2-0.4-0.4-0.9-0.5-1
				s-0.3-0.5-0.4-0.8c0-0.1,0-0.1,0-0.2c0,0,0.1,0,0.1,0.1s0.1,0.2,0.2,0.2c0.1,0.1,0.3,0.1,0.5,0c0.3-0.1,0.8-0.4,1.4-0.7
				L65.6,21.9z M65.5,23c-0.1,0-0.1,0.1-0.1,0.1c0,0.2,0.1,0.4,0.2,0.5c0.1,0.3,0.2,0.3,0.3,0.4c0.2,0.1,0.7,0.2,1.2-0.1
				c0.9-0.5,0.9-1.2,0.7-1.6c-0.1-0.2-0.2-0.3-0.2-0.3h-0.1L65.5,23z"/>
			<path class="st3" d="M64.6,27.8c0-0.1,0-0.2,0.2-0.2c0.4-0.1,0.8-0.2,0.9-0.3s0.2,0,0.2,0c0,0.1,0,0.1-0.1,0.1s-0.2,0.1-0.3,0.2
				c-0.5,0.3-0.5,0.8-0.4,1.2c0.2,0.6,0.7,0.8,1.1,0.7c0.3-0.1,0.6-0.3,0.9-1.1l0.2-0.4c0.3-1,0.8-1.4,1.3-1.6
				c0.8-0.2,1.5,0.2,1.9,1.2c0.2,0.5,0.2,0.8,0.2,1c0,0.1,0,0.1-0.1,0.1s-0.3,0.1-0.8,0.2c-0.2,0-0.2,0-0.2,0s0-0.1,0.1-0.1
				s0.3-0.1,0.4-0.3c0.1-0.1,0.2-0.4,0.1-0.9c-0.2-0.5-0.6-0.7-1-0.6c-0.3,0.1-0.5,0.4-0.8,1.1l-0.1,0.2c-0.4,1.1-0.8,1.5-1.4,1.7
				c-0.4,0.1-0.9,0.1-1.4-0.3c-0.3-0.3-0.5-0.6-0.7-1C64.6,28.4,64.6,28,64.6,27.8z"/>
			<path class="st3" d="M69,32.3L69,32.3c0.3,0.2,1.6,1.2,1.9,1.3c0.3,0.2,0.5,0.3,0.6,0.3s0.1,0,0.1-0.1s0-0.1,0.1-0.1
				s0.1,0,0.1,0.1c0,0.2,0.1,0.6,0.1,0.8s0.1,0.6,0.2,0.8c0,0.1,0,0.1-0.1,0.1s-0.1,0-0.1-0.1s-0.1-0.3-0.2-0.4
				c-0.1-0.2-0.3-0.4-0.7-0.7c-0.2-0.2-1.5-1.1-1.8-1.3c-0.3,0.3-1.6,2-1.8,2.3c-0.3,0.4-0.5,0.8-0.6,1.2c-0.1,0.2-0.1,0.4,0,0.5
				v0.1c-0.1,0-0.1,0-0.1-0.2l-0.1-0.6c0-0.2-0.1-0.3-0.1-0.5c0-0.4,0.1-0.6,0.3-1c0.2-0.4,1.7-2.1,1.9-2.2l0.1-0.1l0,0l-0.7,0.1
				c-0.7,0.1-1.2,0.2-1.6,0.3c-0.2,0-0.3,0.1-0.3,0.3c0,0.1,0,0.3,0,0.4c0,0.1,0,0.1,0,0.1c-0.1,0-0.1,0-0.1-0.1
				C66,33.2,66,32.7,66,32.5c0-0.2-0.1-0.6-0.2-0.9c0-0.1,0-0.1,0.1-0.2c0,0,0.1,0,0.1,0.1s0.1,0.2,0.1,0.3c0.1,0.1,0.2,0.2,0.4,0.2
				c0.3,0,0.9-0.1,1.6-0.2l1.3-0.2c1.1-0.2,1.3-0.2,1.6-0.2c0.2,0,0.4-0.1,0.4-0.4c0-0.1,0-0.2,0-0.3c0-0.1,0-0.1,0.1-0.1
				s0.1,0,0.1,0.1c0.1,0.4,0.1,0.9,0.1,1s0.1,0.6,0.2,0.9c0,0.1,0,0.2,0,0.2c-0.1,0-0.1,0-0.1-0.1s0-0.1-0.1-0.2
				c-0.1-0.2-0.2-0.2-0.5-0.2c-0.2,0-0.4,0-1.6,0.2L69,32.3z"/>
			<path class="st3" d="M69.8,37c1.1,0,1.3,0,1.6,0c0.2,0,0.4-0.1,0.4-0.3c0-0.1,0-0.2,0-0.3s0-0.1,0.1-0.1c0,0,0.1,0.1,0.1,0.2
				c0,0.3,0,0.8,0,1s0,0.6,0,0.9c0,0.1,0,0.2-0.1,0.2s-0.1,0-0.1-0.1s0-0.1,0-0.2c0-0.2-0.2-0.3-0.4-0.3c-0.2,0-0.4,0-1.6,0h-1.3
				c-0.7,0-1.3,0-1.6,0c-0.2,0-0.3,0.1-0.4,0.3c0,0.1,0,0.3,0,0.4c0,0.1,0,0.1-0.1,0.1s-0.1-0.1-0.1-0.1c0-0.5,0-1,0-1.2
				s0-0.6,0-0.9c0-0.1,0-0.2,0.1-0.2c0,0,0.1,0,0.1,0.1s0,0.2,0,0.3c0,0.2,0.2,0.2,0.4,0.2c0.3,0,0.9,0,1.6,0L69.8,37z"/>
			<path class="st3" d="M68,43.1c-0.7-0.1-1.2-0.2-1.6-0.2c-0.2,0-0.4,0-0.4,0.2c0,0.1-0.1,0.3-0.1,0.4c0,0.1-0.1,0.1-0.1,0.1
				c-0.1,0-0.1-0.1-0.1-0.2c0.1-0.5,0.2-0.9,0.2-1.1s0.1-0.7,0.1-0.9c0-0.1,0-0.2,0.1-0.1c0,0,0.1,0,0,0.1c0,0.1,0,0.2,0,0.3
				c0,0.2,0.2,0.2,0.4,0.3c0.3,0.1,0.8,0.2,1.6,0.3l1.3,0.2c1.1,0.2,1.3,0.2,1.6,0.3c0.2,0,0.4,0,0.5-0.2c0-0.1,0.1-0.2,0.1-0.3
				s0-0.1,0.1-0.1s0.1,0.1,0,0.2c0,0.2-0.1,0.4-0.1,0.6c0,0.2-0.1,0.4-0.1,0.5c-0.1,0.3-0.3,1.8-0.3,1.9c0,0.1,0,0.2,0,0.3v0.1
				c0,0,0,0-0.1,0s-0.1-0.1-0.3-0.1c-0.1,0-0.5-0.1-0.6-0.1s-0.1,0-0.1-0.1s0.1-0.1,0.1,0c0.1,0,0.2,0,0.3,0c0.1,0,0.2-0.2,0.3-0.4
				L71,44c0,0,0-0.1-0.1-0.1l-1.8-0.3H69l-0.2,0.9c0,0.1,0,0.2-0.1,0.3c0,0.1,0,0.2,0.1,0.3l0.1,0.1c0,0,0,0-0.1,0
				c0,0-0.2-0.1-0.4-0.1c-0.1,0-0.5-0.1-0.5-0.1c-0.1,0-0.1,0-0.1-0.1h0.1c0,0,0.1,0,0.2,0s0.3-0.1,0.3-0.3c0.1-0.2,0.2-1,0.2-1.1
				c0,0,0,0-0.1-0.1L68,43.1z"/>
			<path class="st3" d="M67,46.8L67,46.8L66.1,46c-0.2-0.1-0.3-0.2-0.4-0.2s-0.2,0-0.3,0.2V46c0,0.1-0.1,0.1-0.1,0.1
				c-0.1,0-0.1-0.1,0-0.2c0.1-0.2,0.2-0.5,0.3-0.7c0-0.1,0.1-0.5,0.3-0.8c0-0.1,0.1-0.1,0.1-0.1s0.1,0,0,0.1c0,0.1-0.1,0.2-0.1,0.2
				c-0.1,0.3,0.1,0.5,0.4,0.8l3.8,3.3c0.2,0.2,0.2,0.2,0.2,0.3s-0.1,0.1-0.3,0.1c-0.4,0-3.7,0.2-4.9,0.3c-0.7,0-0.9,0.2-1,0.3
				S64,49.9,64,50s0,0.1-0.1,0.1s-0.1-0.1,0-0.3s0.3-0.8,0.5-1.3c0.1-0.1,0.1-0.2,0.1-0.2s0.1,0,0,0.1c0,0,0,0.1,0.1,0.1h1.7h0.1
				L67,46.8z M66.8,48.3L66.8,48.3h2h0.1c0,0,0,0-0.1-0.1L67.3,47h-0.1L66.8,48.3z"/>
			<path class="st3" d="M65.8,52.6L65.8,52.6c0.1,0.4,0.5,1.9,0.7,2.2c0.1,0.3,0.2,0.5,0.3,0.6c0.1,0,0.1,0,0.2,0s0.1-0.1,0.1,0
				c0.1,0,0,0.1,0,0.1c-0.1,0.1-0.3,0.5-0.4,0.7s-0.3,0.6-0.4,0.8c0,0.1-0.1,0.1-0.1,0.1c-0.1,0,0-0.1,0-0.1
				c0.1-0.1,0.1-0.3,0.1-0.4c0-0.2,0-0.5-0.1-1c-0.1-0.3-0.5-1.8-0.6-2.2c-0.4,0.1-2.5,0.6-2.9,0.7c-0.4,0.1-0.9,0.3-1.2,0.5
				c-0.2,0.2-0.3,0.3-0.3,0.3L61.1,55c0,0,0-0.1,0-0.2l0.3-0.6c0.1-0.2,0.2-0.3,0.3-0.4c0.2-0.3,0.5-0.4,0.9-0.6
				c0.4-0.1,2.6-0.6,2.9-0.6h0.1l0,0L65,52.3c-0.6-0.3-1.1-0.6-1.4-0.8c-0.2-0.1-0.4-0.1-0.5,0s-0.2,0.2-0.2,0.3c0,0-0.1,0.1-0.1,0
				c0,0,0-0.1,0-0.2c0.2-0.4,0.4-0.8,0.5-0.9c0.1-0.2,0.3-0.6,0.4-0.8c0.1-0.1,0.1-0.1,0.1-0.1s0,0,0,0.1c-0.1,0.1-0.1,0.2-0.1,0.2
				c-0.1,0.1,0.1,0.3,0.2,0.4c0.2,0.2,0.8,0.5,1.4,0.8l1.1,0.6c1,0.5,1.2,0.7,1.4,0.8c0.2,0.1,0.4,0.1,0.5-0.1c0,0,0.1-0.2,0.2-0.2
				c0-0.1,0.1-0.1,0.1-0.1c0.1,0,0,0.1,0,0.2c-0.2,0.3-0.4,0.7-0.5,0.9s-0.3,0.6-0.4,0.8c-0.1,0.1-0.1,0.1-0.1,0.1
				c-0.1,0,0-0.1,0-0.1c0-0.1,0.1-0.1,0.1-0.2c0.1-0.2,0-0.3-0.2-0.5c-0.2-0.1-0.4-0.2-1.4-0.8L65.8,52.6z"/>
			<path class="st3" d="M63.7,56.8c0.9,0.7,1,0.9,1.2,1c0.2,0.2,0.3,0.2,0.5,0c0.1,0,0.1-0.1,0.2-0.2c0.1-0.1,0.1-0.1,0.1,0
				c0,0,0,0.1-0.1,0.2c-0.2,0.3-0.6,0.6-0.7,0.8c-0.1,0.1-0.4,0.5-0.6,0.7c-0.1,0.1-0.1,0.1-0.2,0.1s0-0.1,0-0.1
				c0.1-0.1,0.1-0.1,0.1-0.2c0.1-0.2,0-0.3-0.1-0.5c-0.2-0.2-0.3-0.3-1.2-1l-0.8-0.7c-0.8-0.7-1.3-0.8-1.8-0.7
				c-0.4,0.1-0.7,0.3-0.8,0.5c-0.2,0.2-0.4,0.6-0.4,1c0,0.6,0.5,1,1.1,1.5l0.7,0.6c0.9,0.7,1,0.9,1.2,1c0.2,0.2,0.3,0.2,0.5,0
				c0,0,0.1-0.1,0.2-0.2c0-0.1,0.1-0.1,0.1,0c0,0,0,0.1,0,0.2c-0.2,0.3-0.6,0.6-0.6,0.6c-0.1,0.1-0.3,0.4-0.5,0.7
				c-0.1,0.1-0.1,0.1-0.2,0.1s0-0.1,0-0.1c0-0.1,0.1-0.1,0.1-0.2c0.1-0.2,0-0.3-0.1-0.5c-0.2-0.2-0.3-0.3-1.2-1l-0.2-0.6
				c-0.6-0.5-1.2-1.2-1.2-2c0-0.7,0.3-1.2,0.6-1.5c0.2-0.3,0.7-0.8,1.5-0.9c0.5-0.1,1.1,0.1,1.9,0.8L63.7,56.8z"/>
			<path class="st3" d="M57.5,61.5c-0.6-0.7-0.9-1.1-1.1-1.1c-0.2,0-0.3,0.1-0.8,0.5c-0.3,0.2-0.5,0.4-0.5,0.7
				c0,0.1,0.1,0.3,0.1,0.5c0,0.1,0,0.1,0,0.1s-0.1,0-0.1-0.1s-0.4-0.5-0.5-0.7s-0.1-0.2,0.2-0.5c0.4-0.3,0.7-0.6,1-0.8
				s0.5-0.4,0.7-0.6c0.1,0,0.2-0.2,0.3-0.3s0.3-0.2,0.4-0.3c0.1-0.1,0.1-0.1,0.2,0V59c-0.2,0.1-0.2,0.1-0.2,0.2
				c-0.1,0.1,0,0.3,0.1,0.5c0.2,0.3,0.5,0.7,1,1.2l0.8,1c0.7,0.9,0.8,1,1,1.2s0.3,0.2,0.5,0.1c0.1,0,0.1-0.1,0.2-0.1
				c0.1,0,0.1-0.1,0.1,0s0,0.1-0.1,0.2c-0.3,0.2-0.6,0.5-0.8,0.6c-0.1,0.1-0.5,0.5-0.8,0.7c0-0.1,0,0-0.1-0.1c0,0,0-0.1,0.1-0.1
				c0.1-0.1,0.2-0.1,0.2-0.2c0.1-0.2,0.1-0.3-0.1-0.5c-0.1-0.2-0.3-0.4-1-1.2L57.5,61.5z"/>
			<path class="st3" d="M55.8,66.5l0.9-0.6c0.4-0.2,0.5-0.4,0.5-0.6c0-0.1,0-0.2,0-0.3s0-0.1,0-0.1s0.1,0,0.1,0.1
				c0.1,0.1,0.3,0.8,0.3,0.8c0,0.1,0,0.1,0,0.2c0,0-0.2,0-0.3,0.1c-0.2,0.1-0.4,0.2-0.7,0.3l-2.4,1.5c-0.2,0.1-0.3,0.2-0.4,0.3
				c-0.1,0.1-0.1,0.1-0.2,0.1c0,0-0.1,0-0.1-0.1c-0.1-0.1-0.3-0.6-0.4-0.7c0-0.1,0-0.1,0-0.1s0.1,0,0.2,0.1v0.1
				c0.1,0.2,0.4,0.2,1-0.1L55,67l-1.6-2.6c-0.3-0.6-0.7-1.1-0.9-1.3c-0.1-0.2-0.2-0.3-0.5-0.2c-0.1,0-0.2,0.1-0.3,0.2
				c-0.1,0-0.1,0-0.1,0s0-0.1,0.1-0.1c0.4-0.2,0.8-0.5,1-0.6c0.1-0.1,0.5-0.3,0.8-0.5c0.1,0,0.1-0.1,0.2,0c0,0,0,0.1-0.1,0.1
				c-0.1,0.1-0.2,0.1-0.2,0.2c-0.1,0.1-0.1,0.3,0,0.5c0.1,0.3,0.4,0.8,0.8,1.4L55.8,66.5z"/>
			<path class="st3" d="M51,67.1c0.4,1,0.5,1.2,0.6,1.4c0.1,0.2,0.2,0.3,0.5,0.3c0.1,0,0.2-0.1,0.3-0.1s0.1,0,0.1,0
				c0,0.1,0,0.1-0.1,0.1c-0.2,0.1-0.4,0.2-0.6,0.2c-0.2,0.1-0.3,0.1-0.4,0.2c-0.2,0.1-1.6,0.7-1.7,0.7c-0.1,0.1-0.2,0.1-0.3,0.2
				l-0.1,0.1c0,0,0,0-0.1,0c0-0.1,0-0.1-0.1-0.5c0-0.1-0.1-0.4-0.2-0.5V69c0,0,0.1,0,0.1,0.1s0.1,0.2,0.1,0.2
				c0.1,0.1,0.2,0.2,0.6,0.1c0.1,0,0.8-0.3,1-0.4c0,0,0,0,0-0.1l-0.7-1.7c0-0.1,0-0.1-0.1-0.1c-0.2,0.1-0.9,0.4-1.1,0.5
				c-0.2,0.1-0.2,0.1-0.3,0.2c0,0.1,0,0.1-0.1,0.1c0,0,0,0-0.1,0c0,0,0-0.2-0.2-0.5c0-0.1-0.1-0.4-0.2-0.5s0-0.1,0-0.2H48
				c0,0.1,0.1,0.2,0.1,0.2c0.1,0.1,0.2,0.2,0.5,0.1c0.1,0,0.8-0.3,1-0.4c0,0,0,0,0-0.1L49.3,66c-0.1-0.2-0.3-0.9-0.4-1.1
				c-0.2-0.5-0.4-0.5-1.1-0.2c-0.2,0.1-0.5,0.2-0.6,0.3c-0.1,0.2-0.2,0.3-0.1,0.6c0,0.1,0,0.1,0,0.1c-0.1,0-0.1,0-0.1-0.1
				c-0.1-0.2-0.2-0.7-0.2-0.8c0-0.2,0-0.2,0.3-0.3c0.5-0.2,0.9-0.3,1.2-0.5c0.3-0.1,0.5-0.2,0.7-0.3c0.1,0,0.2-0.1,0.4-0.2
				c0.2-0.1,0.3-0.2,0.5-0.2c0.1,0,0.2,0,0.2,0s0,0.1-0.1,0.1s-0.2,0.1-0.2,0.1c-0.1,0.1-0.1,0.2,0,0.5c0.1,0.3,0.3,0.8,0.6,1.5
				L51,67.1z"/>
			<path class="st3" d="M45.9,70.7l1.1-0.3c0.4-0.1,0.6-0.2,0.7-0.4c0-0.1,0.1-0.2,0.1-0.3s0-0.1,0.1-0.1c0,0,0.1,0,0.1,0.1
				s0,0.8,0,0.9s0,0.2,0,0.2c-0.1,0-0.2,0-0.3,0c-0.2,0-0.5,0.1-0.7,0.1L44,71.5c-0.2,0.1-0.4,0.1-0.5,0.2s-0.2,0.1-0.2,0.1
				s-0.1,0-0.1-0.1c0-0.2-0.1-0.7-0.2-0.8c0-0.1,0-0.1,0-0.1c0.1,0,0.1,0,0.1,0.1V71c0.1,0.2,0.3,0.3,1,0.2L45,71l-0.7-3
				c-0.2-0.7-0.3-1.2-0.4-1.5c-0.1-0.2-0.2-0.3-0.4-0.3c-0.1,0-0.3,0-0.4,0.1c-0.1,0-0.1,0-0.1,0c0-0.1,0-0.1,0.1-0.1
				c0.5-0.1,0.9-0.2,1.1-0.2c0.2,0,0.6-0.2,0.9-0.2c0.1,0,0.2,0,0.2,0s0,0.1-0.1,0.1S45,66,45,66c-0.1,0.1-0.1,0.2-0.1,0.4
				c0,0.3,0.2,0.9,0.3,1.6L45.9,70.7z"/>
		</g>
	</g>
</g>
</svg>
