<?xml version="1.0" encoding="utf-8"?>
<!-- Generator: Adobe Illustrator 28.0.0, SVG Export Plug-In . SVG Version: 6.00 Build 0)  -->
<svg version="1.1" id="Layer_1" xmlns="http://www.w3.org/2000/svg" xmlns:xlink="http://www.w3.org/1999/xlink" x="0px" y="0px"
	 viewBox="0 0 124.26 180" xml:space="preserve">
<style type="text/css">
	.st0{fill:#0F385C;}
	.st1{fill:#058CC4;}
</style>
<path class="st0" d="M44.91,157.55c0,12.4-10.05,22.45-22.45,22.45S0,169.95,0,157.55c0-12.4,10.05-22.45,22.45-22.45
	S44.91,145.15,44.91,157.55"/>
<polygon class="st0" points="124.26,76.01 123.98,75.64 3.48,75.64 3.03,76.05 3.03,110.6 3.4,110.88 124.15,110.88 124.26,110.76 
	"/>
<path class="st1" d="M123.79,6.04c-6.13,4.2-15.84,7.76-23.77,7.76C74.32,13.8,53.99-0.02,29.88,0C21.28,0.01,11.63,2.78,3.03,9.79
	v36.06l0.54,0.27c8.06-5.77,17.27-8.78,25.89-8.78c22.6,0,43.89,12.92,69.66,12.92c8.98,0,19.66-3.75,25.08-8.41V6.22L123.79,6.04z"
	/>
</svg>
