<?xml version="1.0" encoding="UTF-8"?>
<!-- Generator: Adobe Illustrator 27.8.1, SVG Export Plug-In . SVG Version: 6.00 Build 0)  -->
<svg version="1.1" id="Layer_1" xmlns="http://www.w3.org/2000/svg" xmlns:xlink="http://www.w3.org/1999/xlink" x="0px" y="0px" viewBox="0 0 1080 819.1" style="enable-background:new 0 0 1080 819.1;" xml:space="preserve">
<style type="text/css">
	.st0{fill:#025653;}
	.st1{fill:#FFFFFF;}
	.st2{fill:#9D2136;}
	.st3{fill:#6EB5BB;}
	.st4{fill-rule:evenodd;clip-rule:evenodd;fill:#C7942B;}
	.st5{fill:#FDC91C;}
	.st6{fill-rule:evenodd;clip-rule:evenodd;fill:#025653;}
	.st7{fill-rule:evenodd;clip-rule:evenodd;fill:#025652;}
	.st8{fill:#025652;}
</style>
<g>
	<g>
		<g id="XMLID_00000015344302363781055830000004834060031439125133_">
			<g>
				<path class="st0" d="M537.9,609.1c-4.4-3.8-11.5-9.1-20.7-12.8c-117.7-46.8-178.6-114.6-180.8-201.3l0-196.3      c0-1.7,0-3.5-0.1-5.6c-0.4-17.2-2.5-34-6.2-49.9c-2.3-9.9-6.7-20.6-9.8-26l-1-1.7l51.4-74.7l2.3,0.9c6.8,2.5,25.4,8.4,50.7,8.4      c16.5,0,33.2-2.5,49.6-7.3c37.7-11.2,56.6-25.8,64.5-33.4l2.2-2.1l2.2,2.1c7.9,7.7,26.8,22.2,64.5,33.4      c16.4,4.9,33,7.3,49.6,7.3c25.4,0,43.9-5.9,50.7-8.4l2.3-0.9l51.4,74.7l-1,1.7c-3.1,5.5-7.5,16.1-9.8,26      c-3.7,16-5.8,32.8-6.2,49.9c0,2.3-0.1,4-0.1,5.6l0,196.3c-2.3,86.8-63.1,154.5-180.9,201.4c-9.7,3.9-17.2,9.7-20.7,12.8      l-2.1,1.8L537.9,609.1z"/>
			</g>
			<g>
				<path class="st1" d="M537.9,609.1c-4.4-3.8-11.5-9.1-20.7-12.8c-117.7-46.8-178.6-114.6-180.8-201.3l0-196.3      c0-1.7,0-3.5-0.1-5.6c-0.4-17.2-2.5-34-6.2-49.9c-2.3-9.9-6.7-20.6-9.8-26l-1-1.7l51.4-74.7l2.3,0.9c6.8,2.5,25.4,8.4,50.7,8.4      c16.5,0,33.2-2.5,49.6-7.3c37.7-11.2,56.6-25.8,64.5-33.4l2.2-2.1l2.2,2.1c7.9,7.7,26.8,22.2,64.5,33.4      c16.4,4.9,33,7.3,49.6,7.3c25.4,0,43.9-5.9,50.7-8.4l2.3-0.9l51.4,74.7l-1,1.7c-3.1,5.5-7.5,16.1-9.8,26      c-3.7,16-5.8,32.8-6.2,49.9c0,2.3-0.1,4-0.1,5.6l0,196.3c-2.3,86.8-63.1,154.5-180.9,201.4c-9.7,3.9-17.2,9.7-20.7,12.8      l-2.1,1.8L537.9,609.1z"/>
			</g>
		</g>
		<path class="st2" d="M762.7,117.7c-2.7,3.5-8.3,16.1-11.2,28.5c-3.8,16.5-5.8,33.5-6.2,50.6H334.6c-0.4-17-2.4-34-6.2-50.6    c-2.9-12.4-8.4-25-11.2-28.5l52.8-78.1c0,0,43.7,20.4,102.7,2.5C523.7,26.6,540,4.8,540,4.8s16.3,21.9,67.2,37.3    c59,17.9,102.7-2.5,102.7-2.5L762.7,117.7z"/>
		<path class="st3" d="M334.7,391.2v3.8c3.2,122.8,125.1,180.2,181.9,202.8c14.3,5.7,23.4,15.5,23.4,15.5s9.2-9.9,23.4-15.5    c56.8-22.6,178.7-80,181.9-202.8v-3.8H334.7z"/>
		<g>
			<g>
				<polygon class="st4" points="540,38.7 557.1,73.3 595.3,78.9 567.6,105.8 574.2,143.9 540,125.9 505.8,143.9 512.4,105.8       484.7,78.9 522.9,73.3     "/>
				<g>
					<polygon class="st4" points="674,80.9 667.5,118.9 695.2,145.8 657,151.4 640,186.1 622.9,151.5 584.7,146 612.3,119 605.7,81        639.9,98.9      "/>
					<polygon class="st4" points="406,80.9 412.5,118.9 384.8,145.8 423,151.4 440,186.1 457.1,151.5 495.3,146 467.7,119 474.3,81        440.1,98.9      "/>
				</g>
			</g>
			<g>
				<polygon class="st5" points="540,38.7 557.1,73.3 595.3,78.9 567.6,105.8 574.2,143.9 540,125.9 505.8,143.9 512.4,105.8       484.7,78.9 522.9,73.3     "/>
				<g>
					<polygon class="st5" points="674,80.9 667.5,118.9 695.2,145.8 657,151.4 640,186.1 622.9,151.5 584.7,146 612.3,119 605.7,81        639.9,98.9      "/>
					<polygon class="st5" points="406,80.9 412.5,118.9 384.8,145.8 423,151.4 440,186.1 457.1,151.5 495.3,146 467.7,119 474.3,81        440.1,98.9      "/>
				</g>
			</g>
		</g>
		<path class="st6" d="M467.1,320.1c-0.2,22.3-15.1,56.6-40.9,56.6c-2.2,0-4-0.1-5.7-0.5c-6.9-1.4-9.2-5.8-9.2-14.4V228.2    c0-8.6,2.3-13,9.2-14.4v-5.4h-64.8v5.4c6,1.1,8.7,4.3,9.4,10.5c0.1,1.2,0.2,2.5,0.2,3.9v133.7c0,1.4-0.1,2.7-0.2,3.9    c-0.7,6.2-3.3,9.5-9.4,10.5v5.3h116.3v-61.6H467.1z"/>
		<path class="st6" d="M718.6,373c-2-2.3-3.4-5.9-4.3-10.9l-28-153.7h-36.8l-27.3,145.8c-1.1,5.8-2.6,11.5-4.8,15.8    c-1.6,3-7.1,5.3-9.3,6.2v5.5h35v-5.9c-1.9-0.8-3.9-2.1-5.7-4c-3.2-3.5-5.6-9-5.6-17.3c0-3,0.3-6.4,1.1-10.4l2.9-15.7h29.7l1.7,9    l4.2,22.8l0.4,2c0.4,2.5,0.6,4.4,0.6,6.2c0,2.1-0.3,3.8-1,5.1c-1,2-2.9,3.1-5.7,3.3v5h58.7v-5.3C722,375.9,720.1,374.8,718.6,373z     M637.4,319.1l13.2-70.8l13.1,70.8H637.4z"/>
		<path class="st6" d="M479.6,208.4V270h5c0.3-22.3,25.4-56.2,51.6-56.2c0.7,0,1.3,0.1,1.9,0.1c6.6,1.5,8.8,5.9,8.8,14.3l0,149.4    c0,10.2-4.3,20.1-12.1,26.9c-13.1,11.2-32.8,14.9-42.8-5.6c-3.7-7.4-4.1-17.8-3-24.5c0.1-0.7,0.9-1,1.4-0.7    c5,3.1,10.9,5.8,19.6,6.1c16.2,0.6,29.6-12.3,29.6-30c0-15.1-10.8-29.8-32.7-29.8c-12.6,0-28.6,8.2-28.6,43.9    c-2,33.4,14.6,74.8,59,74.8h0.3c3.2,0,6.4-0.2,9.5-0.6c27-3.5,52.1-26.7,52.5-58.3c0-0.3,0-0.5,0-0.8V228.2    c0-8.7,2.3-13.1,9.5-14.4v-5.4H479.6z"/>
		<path class="st5" d="M638.5,391.2C638.5,391.2,638.5,391.2,638.5,391.2c0,2.9-0.1,5.8-0.4,9c-0.1,0.9-0.2,1.7-0.3,2.6    c-0.1,1-0.2,2-0.4,3l-0.1,0.7c-0.2,1.4-0.5,2.9-0.8,4.3l-0.1,0.7c-0.3,1.6-0.7,3-1,4.4l1.3,0.3c0,0,0,0,0,0l-1.3-0.2    c-0.4,1.4-0.8,2.8-1.2,4.3l-0.1,0.4c-0.4,1.3-0.9,2.7-1.4,4.1l-0.2,0.7c-0.5,1.4-1,2.7-1.6,4l-0.2,0.5c-0.5,1.2-1.1,2.4-1.6,3.6    l-0.3,0.6c-0.6,1.2-1.2,2.4-1.8,3.5l-0.6,1c-0.6,1.1-1.2,2.2-1.9,3.3c-0.2,0.3-0.3,0.5-0.5,0.8l-0.2,0.4c-0.5,0.8-1,1.6-1.5,2.3    c-0.4,0.6-0.7,1.1-1.1,1.7c-0.5,0.7-1,1.4-1.5,2.2c-0.5,0.7-1,1.4-1.6,2.2c-0.5,0.7-1.1,1.4-1.6,2.1c-0.3,0.4-0.6,0.7-0.9,1.1    c-3.7,4.4-7.7,8.4-12.1,12.1c-0.8,0.7-1.6,1.3-2.4,2l-0.3,0.3c-0.3,0.2-0.5,0.4-0.8,0.6c-0.6,0.4-1.1,0.9-1.7,1.3    c-0.7,0.5-1.3,1-2,1.4c-0.6,0.4-1.3,0.9-2,1.3c-0.7,0.5-1.4,0.9-2.1,1.3l-0.4,0.2c-0.3,0.2-0.6,0.4-1,0.6c-1,0.6-2,1.2-3,1.8    c-0.4,0.2-0.9,0.5-1.3,0.7c-1.1,0.6-2.1,1.1-3.2,1.7c-0.2,0.1-0.5,0.2-0.7,0.3l-0.4,0.2c-0.9,0.4-1.8,0.8-2.8,1.2l-0.4,0.2    c-0.2,0.1-0.5,0.2-0.7,0.3c-1.1,0.5-2.3,0.9-3.5,1.4c-0.4,0.2-0.9,0.3-1.3,0.5c-1.2,0.4-2.3,0.8-3.5,1.2c-0.3,0.1-0.5,0.2-0.8,0.2    l-0.4,0.1c-1,0.3-2,0.6-3.1,0.9l-1.1,0.3c-1.3,0.3-2.5,0.6-3.8,0.9c-0.4,0.1-0.8,0.2-1.2,0.3c-1.3,0.3-2.6,0.5-3.9,0.7l-1,0.1    c-1,0.2-2.1,0.3-3.1,0.4c-0.8,0.1-1.5,0.2-2.3,0.2c-3.1,0.3-6,0.4-8.9,0.4c-3.1,0-6.3-0.2-9.6-0.5l-0.7-0.1    c-1.3-0.1-2.7-0.3-4.2-0.5l-0.8-0.1c-1.3-0.2-2.7-0.5-4.1-0.7l-1-0.2c-1.5-0.3-2.9-0.6-4.1-1l-0.4-0.1c-1.3-0.4-2.7-0.7-4.1-1.2    l-0.5-0.1c-1.3-0.4-2.7-0.9-4.1-1.4l-0.6-0.2c-1.5-0.6-2.8-1.1-4.1-1.6l-0.5,1.2c0,0,0,0,0,0l0.3-1.3c-1.4-0.6-2.8-1.2-4.1-1.9    l-0.6,1.2l0,0l0.4-1.3c-1.3-0.6-2.6-1.3-4.1-2.1l-0.3-0.2c-1.3-0.7-2.6-1.5-3.9-2.2l-0.7,1.1v0l0.5-1.2c-1.3-0.8-2.6-1.7-3.9-2.5    c-1.1-0.7-2.2-1.5-3.5-2.5c-0.3-0.2-0.6-0.4-0.9-0.6c-0.3-0.2-0.6-0.5-0.9-0.7l-0.5-0.4c-0.8-0.6-1.6-1.3-2.4-2    c-4.5-3.8-8.6-7.9-12.4-12.4c-0.3-0.3-0.5-0.6-0.8-1c-0.8-1-1.7-2.1-2.4-3.1l-0.2-0.3c-1.9-2.5-3.6-5.1-5.2-7.7    c-0.8-1.3-1.5-2.6-2.3-4l-0.2-0.3c-1.5-2.8-2.9-5.6-4.1-8.5c-0.6-1.3-1.1-2.8-1.7-4.2l-0.2-0.4c-0.5-1.5-1-2.9-1.5-4.3l-1.3,0.4v0    l1.2-0.6c-0.5-1.5-0.9-3-1.3-4.5c-0.4-1.4-0.7-2.8-1-4.5l-0.1-0.6c-0.3-1.5-0.6-3-0.8-4.4l0-0.3c-0.2-1.6-0.4-3.2-0.6-4.7    l-1.3,0.1c0,0,0,0,0,0l1.3-0.3c-0.3-3.3-0.5-6.6-0.5-9.9c0,0,0,0,0,0h-25c0,2.9,0.1,5.7,0.3,8.6c0,0.5,0.1,1.1,0.1,1.6    c0,0.3,0,0.5,0.1,0.8l0.1,0.9c0.1,1.2,0.2,2.3,0.4,3.5c0.1,0.4,0.1,0.9,0.2,1.3c0.2,1.3,0.4,2.6,0.6,3.8l0.1,0.6    c0.2,1.3,0.5,2.5,0.7,3.8c0.1,0.4,0.2,0.8,0.3,1.3c0.2,1.1,0.5,2.2,0.8,3.3l0.2,0.8c0.3,1.3,0.7,2.6,1,3.8    c0.1,0.4,0.2,0.8,0.4,1.3c0.3,1,0.6,2,0.9,3l0.3,1c0.4,1.2,0.8,2.4,1.3,3.7c0.1,0.3,0.3,0.7,0.4,1l0.1,0.2    c0.3,0.9,0.7,1.8,1.1,2.7l0.5,1.2c0.5,1.2,1,2.3,1.5,3.5l0.6,1.2c0.4,0.8,0.8,1.7,1.2,2.5l0.1,0.3c0.2,0.3,0.3,0.7,0.5,1    c0.6,1.1,1.2,2.2,1.8,3.3l0.6,1.1c0.5,0.8,0.9,1.6,1.4,2.4c0.3,0.4,0.5,0.9,0.8,1.3c0.7,1.1,1.3,2.1,2,3.1l0.6,0.9    c0.5,0.8,1.1,1.6,1.7,2.4c0.3,0.4,0.6,0.8,0.9,1.2c0.7,0.9,1.3,1.8,2,2.7l0.8,1c0.7,0.8,1.3,1.7,2,2.5l0.6,0.8    c0.1,0.1,0.2,0.3,0.3,0.3l2.4,2.7l0,0c3,3.3,6.1,6.5,9.5,9.5l0,0l1.6,1.4c0.4,0.3,0.8,0.7,1.2,1l0,0.7h0.8l0.1,0.1    c1,0.8,2,1.6,3,2.4l0.2,0.2c1.1,0.8,2.2,1.6,3.3,2.4l0.8,0.6c1,0.7,2.1,1.5,3.1,2.2l0.3,0.2c1.2,0.8,2.4,1.5,3.6,2.3l0.7,0.4    c1.1,0.7,2.2,1.3,3.4,2l0.3,0.2c1.3,0.7,2.5,1.4,3.8,2.1l0.4,0.2c1.2,0.6,2.4,1.2,3.8,1.8l0.2,0.1c1.4,0.6,2.7,1.2,4.1,1.8    l0.1,0.1c1.4,0.6,2.7,1.1,4.1,1.6l0.2,0.1c2.9,1.1,5.8,2.1,8.8,2.9c11.2,3.3,22.8,4.9,34.6,4.9c1.9,0,3.8,0,5.8-0.1    c0.3,0,0.7,0,1-0.1v0l1.4-0.1c0.6,0,1.2-0.1,1.8-0.1l0.2,0c0.3,0,0.7-0.1,0.9-0.1l0.3,0c0.4,0,0.8-0.1,1.2-0.1l0.7-0.1    c1.1-0.1,2.3-0.2,3.4-0.4c0.7-0.1,1.3-0.2,2-0.3l0.4-0.1c1-0.2,1.9-0.3,2.9-0.5c0.8-0.1,1.6-0.3,2.5-0.5c0.9-0.2,1.9-0.4,2.8-0.6    l0.5-0.1c0.7-0.1,1.3-0.3,2-0.5c0.9-0.2,1.8-0.5,2.7-0.7l0.2-0.1c1.1-0.3,2.1-0.6,3.2-0.9c1.2-0.4,2.4-0.7,3.6-1.1    c0.6-0.2,1.2-0.4,1.7-0.6l0.8-0.3c0.8-0.3,1.6-0.6,2.4-0.9c0.8-0.3,1.6-0.6,2.4-1c0.8-0.3,1.6-0.7,2.4-1c0.8-0.3,1.6-0.7,2.4-1.1    c0.8-0.4,1.6-0.8,2.4-1.1l0.5-0.3c0.6-0.3,1.2-0.6,1.7-0.9c0.9-0.5,1.8-1,2.8-1.5c1.1-0.6,2.2-1.2,3.2-1.8l0.2-0.1    c0.8-0.5,1.6-0.9,2.4-1.4c0.6-0.3,1.1-0.7,1.6-1.1l0.4-0.3c0.8-0.5,1.5-1,2.2-1.5c0.7-0.5,1.4-0.9,2.1-1.4    c0.7-0.5,1.5-1.1,2.2-1.6l0.1-0.1c0.6-0.4,1.2-0.9,1.8-1.4c0.8-0.6,1.5-1.2,2.3-1.8l0.6-0.4c0.4-0.3,0.8-0.6,1.2-0.9l-0.8-1    l0.8,0.7l0.2,0.2c0,0,0,0,0,0l0,0l0,0c0.1,0,0.1-0.1,0.2-0.2c0.6-0.5,1.1-0.9,1.6-1.4l1-0.9l0,0c3.4-3,6.6-6.2,9.6-9.6l0,0    l0.9-1.1c0.5-0.5,0.9-1.1,1.3-1.5l0.2-0.1l0.1-0.3c0.5-0.5,0.9-1.1,1.4-1.7l0.6-0.7c0.4-0.5,0.8-1,1.2-1.5    c0.5-0.7,1.1-1.4,1.6-2.1c0.5-0.7,1-1.4,1.5-2.1c0.5-0.7,1-1.4,1.4-2c0.5-0.8,1.1-1.6,1.6-2.4l0.3-0.5c0.3-0.5,0.6-1,0.9-1.4    c0.7-1.1,1.3-2.2,2-3.3c0.3-0.6,0.7-1.2,1-1.8c0.7-1.2,1.3-2.5,2-3.7c0.2-0.4,0.4-0.9,0.6-1.3l0.3-0.5c0.5-0.9,0.9-1.9,1.4-2.9    c0.3-0.7,0.6-1.3,0.9-2c0.4-0.9,0.8-1.9,1.2-2.8c0.3-0.7,0.6-1.4,0.8-2c0.4-1,0.8-2,1.1-3.1l0.2-0.6c0.1-0.4,0.3-0.8,0.4-1.2    c0.6-1.7,1.1-3.3,1.5-4.8c0.1-0.3,0.2-0.7,0.3-1l0.2-0.6c0.3-1.1,0.6-2.3,0.9-3.4c0.1-0.6,0.3-1.2,0.4-1.8l0.1-0.5    c0.2-1,0.4-2,0.6-2.9c0.2-0.8,0.3-1.6,0.5-2.4c0.2-1,0.3-1.9,0.5-2.9l0.1-0.3c0.1-0.7,0.2-1.4,0.3-2.1c0.1-1,0.3-2.1,0.4-3.1    l0.1-0.7c0.1-0.5,0.1-1,0.2-1.6c0-0.4,0.1-0.7,0.1-1c0.1-0.7,0.1-1.4,0.2-2.1l0-0.9c0-0.5,0.1-1,0.1-1.5c0.1-1.9,0.1-3.9,0.1-5.8    H638.5z"/>
		<path class="st7" d="M662.2,391.2C662.2,391.2,662.2,391.2,662.2,391.2c0,1.9,0,3.8-0.1,5.7c0,0.8-0.1,1.6-0.1,2.4h-4.6    c-1.8,25.4-11.8,49.8-28.6,69.1l3.2,3.2c-1.8,2-3.6,4-5.5,5.9c-1.9,1.9-3.9,3.8-5.9,5.5l-3.2-3.2c-19.3,16.8-43.6,26.9-69.1,28.7    v4.6c-0.8,0.1-1.6,0.1-2.4,0.1c-1.9,0.1-3.8,0.1-5.7,0.1c-2.7,0-5.4-0.1-8.1-0.3v-4.6c-26.2-1.8-50.1-12.4-68.9-28.8l-3.4,3.4    c-2-1.8-4-3.6-5.9-5.5c-1.9-1.9-3.7-3.8-5.5-5.8l3.4-3.4c-16.5-18.8-27.1-42.8-28.9-69h-4.6c-0.2-2.7-0.3-5.4-0.3-8.1c0,0,0,0,0,0    h-62c0,0,0,0,0,0c0,5.5,6.4,15.9,18,15.9c11.5,0,16.1-7.7,23.8-7.7c1.7,0,3.3,0.2,4.6,0.6c2.5,0.7,4.7,2.3,6.1,4.5    c1.2,1.9,3.5,3.1,6,2.5h0c2.9,22.5,11.8,44,25.7,62c-0.3,0.2-0.6,0.4-0.9,0.7c-1.6,1.4-2.1,3.5-1.6,5.4c0.7,2.5,0.1,5.2-1.2,7.4    c-0.7,1.2-1.6,2.4-2.8,3.6c-5.4,5.4-14.1,3.2-22.2,11.4c-8.2,8.2-5.3,20.1-1.5,24c3.9,3.9,15.8,6.7,24-1.5    c8.2-8.2,5.9-16.8,11.4-22.2c1.2-1.2,2.5-2.1,3.6-2.8c2.3-1.3,4.9-1.7,7.5-1.1c2.2,0.5,4.6-0.3,6-2.5c0,0,0,0,0,0    c18,14,39.4,22.8,62,25.7c-0.1,0.3-0.1,0.7-0.2,1.1c-0.1,2,0.9,3.8,2.5,4.8c2.2,1.4,3.9,3.6,4.6,6.1c0.3,1.3,0.6,2.8,0.6,4.6    c0,7.7-7.7,12.2-7.7,23.8s10.4,18,15.9,18c5.5,0,15.9-6.4,15.9-18s-7.7-16.1-7.7-23.8c0-1.7,0.2-3.3,0.6-4.6    c0.7-2.6,2.4-4.7,4.6-6.1c1.6-1,2.6-2.8,2.5-4.8c0-0.4-0.1-0.7-0.1-1c22.6-2.8,43.9-11.7,62-25.8c0.2,0.3,0.4,0.6,0.7,0.9    c1.4,1.5,3.4,2.1,5.2,1.6c2.6-0.6,5.3-0.3,7.6,1.1c1.2,0.7,2.4,1.6,3.6,2.8c5.4,5.4,3.2,14.1,11.4,22.2c8.2,8.2,20.1,5.3,24,1.5    c3.9-3.9,6.7-15.8-1.5-24c-8.2-8.2-16.8-5.9-22.2-11.4c-1.2-1.2-2.1-2.4-2.8-3.6c-1.3-2.3-1.6-5-1.1-7.6c0.4-1.8-0.1-3.8-1.6-5.2    c-0.3-0.3-0.6-0.5-0.9-0.7c14.1-18,23-39.4,25.8-62c0.3,0.1,0.7,0.1,1,0.1c2,0.1,3.8-0.9,4.8-2.5c1.4-2.2,3.6-3.9,6.1-4.6    c1.3-0.3,2.8-0.6,4.6-0.6c7.7,0,12.2,7.7,23.8,7.7s18-10.4,18-15.9c0,0,0,0,0,0H662.2z"/>
		<path class="st7" d="M639.8,391.2C639.8,391.2,639.8,391.2,639.8,391.2l-32,0v0v9.4c0,0.6,0.5,1.1,1,1.1c6.8,0,12.2,1.4,18.4,4.2    c1.9,0.8,3.8,1.3,5.8,1.3h0.8c-2.4,14.4-8.1,27.7-16.3,39.1l-0.5-0.5c-1.4-1.4-3.1-2.5-5-3.2c-6.4-2.4-11.2-5.2-16-10    c-0.4-0.4-1.1-0.4-1.5,0l-6.6,6.6l-6.6,6.6c-0.4,0.4-0.4,1.1,0,1.5c4.8,4.8,7.6,9.6,10,16c0.7,1.9,1.8,3.6,3.2,5l0.5,0.5    c-11.4,8.1-24.7,13.8-39.1,16.2v-0.8c0-2-0.4-4-1.3-5.8c-2.8-6.3-4.2-11.6-4.2-18.4c0-0.6-0.5-1-1.1-1H540h-9.4    c-0.6,0-1.1,0.4-1.1,1c0,6.8-1.4,12.2-4.2,18.4c-0.8,1.9-1.3,3.8-1.3,5.8v0.8c-14.4-2.4-27.7-8.1-39.1-16.3l0.5-0.5    c1.4-1.4,2.5-3.1,3.3-5c2.4-6.4,5.2-11.2,10-16c0.4-0.4,0.4-1.1,0-1.5l-6.7-6.6l-6.6-6.6c-0.4-0.4-1.1-0.4-1.5,0    c-4.8,4.8-9.6,7.6-16,10c-1.9,0.7-3.6,1.8-5,3.3l-0.5,0.5v0c-8.1-11.4-13.8-24.7-16.3-39.1h0.8c2,0,4-0.4,5.8-1.3    c6.3-2.8,11.6-4.2,18.4-4.2c0.6,0,1-0.5,1-1.1v-9.4v0h-32c0,0,0,0,0,0c0,2.7,0.1,5.4,0.3,8.1h-4.6c1.8,22.7,10.8,43.4,24.8,59.8    l3.3-3.3c1.7,2.1,3.6,4,5.5,5.9c1.9,1.9,3.9,3.8,6,5.5l-3.3,3.3c16.3,14,37,23,59.7,24.8v-4.6c2.7,0.2,5.4,0.3,8.1,0.3    c2.7,0,5.4-0.1,8.1-0.3v4.6c22.7-1.8,43.4-10.8,59.7-24.8l-3.3-3.3c2.1-1.7,4.1-3.6,6-5.5c1.9-1.9,3.7-3.9,5.5-5.9l3.3,3.3    c14-16.3,23-37,24.8-59.7h-4.6C639.7,396.6,639.8,393.9,639.8,391.2z"/>
		<path class="st6" d="M540,618.1c-1.3,0-2.6-0.6-3.5-1.5c-0.1-0.1-8.7-9.2-21.7-14.4c-46.4-18.5-83.2-39.6-112.4-64.6    c-46.7-40-71-87.9-72.5-142.4c0,0,0-0.1,0-0.1V198.8c0-1.6,0-3.4-0.1-5.5c-0.4-16.7-2.4-33.1-6.1-48.7c-2.8-12-8.3-23.6-10.3-26.2    c-1.2-1.6-1.3-3.8-0.2-5.5l52.8-76.7c1.3-1.9,3.8-2.6,6-1.6c0.4,0.2,42.9,19,99.3,2.2c48.4-14.4,64.6-34.8,64.8-35    c0.9-1.2,2.3-1.9,3.8-1.9c1.5,0,2.9,0.7,3.8,1.9c0.1,0.2,16.4,20.5,64.8,35c56.5,16.8,98.9-2,99.3-2.2c2.1-1,4.7-0.3,6,1.6    l52.8,76.7c1.2,1.7,1.1,3.9-0.2,5.5c-2,2.6-7.5,14.2-10.3,26.2c-3.7,15.6-5.7,32-6,48.7c0,2-0.1,3.8-0.1,5.5V395c0,0,0,0.1,0,0.1    c-1.4,54.5-25.8,102.4-72.5,142.4c-29.2,25-66,46.2-112.4,64.6c-13.1,5.2-21.6,14.3-21.7,14.4C542.6,617.5,541.3,618.1,540,618.1z     M339.5,395c2.2,85.4,62.4,152.2,178.9,198.5c9.9,4,17.5,9.7,21.6,13.4c4.1-3.6,11.7-9.4,21.6-13.4    C678.1,547.2,738.3,480.4,740.5,395V198.8c0-1.7,0-3.6,0.1-5.7c0.4-17.3,2.5-34.4,6.3-50.6c2.4-10.1,6.8-21,10.1-26.9l-48.9-71    c-7.7,2.9-26.3,8.6-51.8,8.6c-14.8,0-31.9-1.9-50.5-7.5c-39-11.6-58.3-26.9-65.8-34.2c-7.5,7.3-26.9,22.6-65.8,34.2    c-50.7,15.1-90.2,3.4-102.3-1.1l-48.9,71c3.4,5.9,7.8,16.8,10.1,26.9c3.8,16.2,5.9,33.2,6.3,50.6c0,2.1,0.1,4,0.1,5.7V395z"/>
	</g>
	<g>
		<g>
			<path class="st8" d="M108.5,752.4c11.6,0,18,5.2,18,14.5c0,8.9-6.9,14.5-17.9,14.5h-0.8l18.5,22.4h-7.3l-18.1-22.4h-6.5v22.4     h-5.9v-51.4H108.5z M94.2,758v18.1h14.2c7.8,0,11.9-3.2,11.9-9.2c0-5.9-4.2-9-11.9-9H94.2z"/>
			<path class="st8" d="M145.1,756.7c0,2.2-1.7,3.9-3.9,3.9c-2.2,0-3.9-1.7-3.9-3.9c0-2.2,1.7-3.9,3.9-3.9     C143.4,752.8,145.1,754.5,145.1,756.7z M144,803.8h-5.5v-34.8h5.5V803.8z"/>
			<path class="st8" d="M185.3,774.3v-5.2h5.5v32.4c0,11.3-7.6,17.6-18.4,17.6c-5.5,0-11.1-1.7-14.7-4.7l2.4-4.4     c3.3,2.5,7.5,4.1,12.2,4.1c7.5,0,12.9-4.3,12.9-12.4v-3.6c-2.6,3.6-6.8,5.9-12.4,5.9c-9.8,0-17.2-7.3-17.2-17.9     c0-10.5,7.5-17.8,17.2-17.8C178.5,768.4,182.6,770.7,185.3,774.3z M161.2,786.2c0,7.1,4.9,12.7,12.3,12.7     c7.2,0,12.3-5.5,12.3-12.7c0-7.2-5.1-12.7-12.3-12.7C166.1,773.5,161.2,779.2,161.2,786.2z"/>
			<path class="st8" d="M238,803.8h-5.5v-5.2c-2.8,3.6-7,5.9-12.7,5.9c-9.8,0-17.4-7.6-17.4-18.1c0-10.4,7.6-18.1,17.4-18.1     c5.7,0,10,2.4,12.7,5.9v-5.2h5.5V803.8z M208,786.4c0,7.2,5.1,13,12.5,13c7.2,0,12.4-5.6,12.4-13c0-7.3-5.1-12.9-12.4-12.9     C213,773.5,208,779.3,208,786.4z"/>
			<path class="st8" d="M308.6,758h-17.9v45.8h-5.9V758H267v-5.6h41.6V758z"/>
			<path class="st8" d="M342.8,786.3c0,0.7,0,1.4-0.1,2.1h-27.9c0.8,7.5,6,11.4,12.3,11.4c4.3,0,8-1.7,11-4.4l2.9,3.7     c-4.3,4.1-9.2,5.4-14.3,5.4c-10.3,0-17.6-7.3-17.6-18.1c0-10.7,7.3-18.1,17.3-18.1C335.9,768.4,342.8,775.7,342.8,786.3z      M314.9,783.9h22.3c-0.7-6.5-5-10.7-10.9-10.7C319.9,773.2,315.8,777.7,314.9,783.9z"/>
			<path class="st8" d="M382.8,773.8l-3.5,3.7c-2.6-2.5-5.7-4-9.5-4c-7,0-12.3,5.4-12.3,12.9c0,7.5,5.3,13,12.3,13     c3.8,0,7.2-1.7,9.6-4.1l3.4,3.7c-3.2,3.6-7.8,5.5-12.9,5.5c-10.7,0-18-7.8-18-18.1c0-10.3,7.3-18.1,18-18.1     C375,768.4,379.6,770.3,382.8,773.8z"/>
			<path class="st8" d="M399.1,773.9c2.9-4,7.4-5.5,11.6-5.5c8.6,0,14.5,5.5,14.5,13.9v21.6h-5.5v-19.8c0-6.6-3.7-10.5-10-10.5     c-5.8,0-10.7,4-10.7,10.7v19.6h-5.5v-52.9h5.5V773.9z"/>
			<path class="st8" d="M470.8,782.3v21.6h-5.5v-19.8c0-6.6-3.7-10.5-10-10.5c-5.8,0-10.7,4-10.7,10.7v19.6h-5.5v-34.8h5.4v5     c2.8-4.2,7.5-5.7,11.7-5.7C464.9,768.4,470.8,773.9,470.8,782.3z"/>
			<path class="st8" d="M491.4,756.7c0,2.2-1.7,3.9-3.9,3.9c-2.2,0-3.9-1.7-3.9-3.9c0-2.2,1.7-3.9,3.9-3.9     C489.6,752.8,491.4,754.5,491.4,756.7z M490.2,803.8h-5.5v-34.8h5.5V803.8z"/>
			<path class="st8" d="M532.8,773.8l-3.5,3.7c-2.6-2.5-5.7-4-9.5-4c-7,0-12.3,5.4-12.3,12.9c0,7.5,5.3,13,12.3,13     c3.8,0,7.2-1.7,9.6-4.1l3.4,3.7c-3.2,3.6-7.8,5.5-12.9,5.5c-10.7,0-18-7.8-18-18.1c0-10.3,7.3-18.1,18-18.1     C525.1,768.4,529.7,770.3,532.8,773.8z"/>
			<path class="st8" d="M575.9,803.8h-5.5v-5.2c-2.8,3.6-7,5.9-12.7,5.9c-9.8,0-17.4-7.6-17.4-18.1c0-10.4,7.6-18.1,17.4-18.1     c5.7,0,10,2.4,12.7,5.9v-5.2h5.5V803.8z M545.9,786.4c0,7.2,5.1,13,12.5,13c7.2,0,12.4-5.6,12.4-13c0-7.3-5.1-12.9-12.4-12.9     C550.9,773.5,545.9,779.3,545.9,786.4z"/>
			<path class="st8" d="M595.7,803.8h-5.5v-52.9h5.5V803.8z"/>
			<path class="st8" d="M673.8,783.7c0,14-9.4,20.8-21.2,20.8s-21.2-6.9-21.2-20.8v-31.3h5.9v30.9c0,10.8,6.5,15.6,15.3,15.6     c8.8,0,15.3-4.8,15.3-15.6v-30.9h5.9V783.7z"/>
			<path class="st8" d="M720,782.3v21.6h-5.5v-19.8c0-6.6-3.7-10.5-10-10.5c-5.8,0-10.7,4-10.7,10.7v19.6h-5.5v-34.8h5.4v5     c2.8-4.2,7.5-5.7,11.7-5.7C714.1,768.4,720,773.9,720,782.3z"/>
			<path class="st8" d="M740.5,756.7c0,2.2-1.7,3.9-3.9,3.9c-2.2,0-3.9-1.7-3.9-3.9c0-2.2,1.7-3.9,3.9-3.9     C738.8,752.8,740.5,754.5,740.5,756.7z M739.4,803.8h-5.5v-34.8h5.5V803.8z"/>
			<path class="st8" d="M769.7,803.9h-6.4l-14.8-34.9h6l12.2,29.3l12.2-29.3h5.8L769.7,803.9z"/>
			<path class="st8" d="M823.9,786.3c0,0.7,0,1.4-0.1,2.1H796c0.8,7.5,6,11.4,12.3,11.4c4.3,0,8-1.7,11-4.4l2.9,3.7     c-4.3,4.1-9.2,5.4-14.3,5.4c-10.3,0-17.6-7.3-17.6-18.1c0-10.7,7.3-18.1,17.3-18.1C817,768.4,823.9,775.7,823.9,786.3z      M796,783.9h22.3c-0.7-6.5-5-10.7-10.9-10.7C801.1,773.2,796.9,777.7,796,783.9z"/>
			<path class="st8" d="M857.8,769.5l-1.3,5.4c-1.7-0.9-4-1.4-6-1.4c-5.4,0-9.3,4.3-9.3,10.8v19.5h-5.5v-34.8h5.4v4.9     c2.4-3.6,6.1-5.6,10.3-5.6C853.9,768.4,855.9,768.7,857.8,769.5z"/>
			<path class="st8" d="M890.3,776.4c-2.2-1.5-6.7-3.3-11.4-3.3c-5,0-8.2,2.1-8.2,5.5c0,2.9,2.5,4.3,7.1,4.9l4.1,0.5     c7.4,1,11.7,4,11.7,9.7c0,6.6-6,10.8-15.3,10.8c-4.5,0-10.1-1.1-14.5-4.4l2.5-4.1c2.6,2.1,6.2,3.8,12.1,3.8s9.6-1.9,9.6-5.6     c0-2.8-2.4-4.5-7.3-5.1l-4.2-0.5c-7.8-1-11.5-4.4-11.5-9.6c0-6.6,5.5-10.5,13.9-10.5c5.5,0,10.5,1.5,13.8,3.8L890.3,776.4z"/>
			<path class="st8" d="M911.3,756.7c0,2.2-1.7,3.9-3.9,3.9c-2.2,0-3.9-1.7-3.9-3.9c0-2.2,1.7-3.9,3.9-3.9     C909.6,752.8,911.3,754.5,911.3,756.7z M910.2,803.8h-5.5v-34.8h5.5V803.8z"/>
			<path class="st8" d="M948.1,774h-15v17.6c0,5.4,2.9,7.8,6.9,7.8c2.7,0,5.3-1,7.3-2.5l2.6,4.2c-2.6,2-6.1,3.5-10.3,3.5     c-7.5,0-11.9-4.1-11.9-12.9V774H920v-5h7.6V758h5.5v11.1h15V774z"/>
			<path class="st8" d="M963.4,818.7h-6.1l13-22.4l-16-27.3h6.1l13,21.8l12.3-21.8h6L963.4,818.7z"/>
		</g>
		<g>
			<path class="st8" d="M40.8,714.9H0v-56.1h11.2v45.6h29.6V714.9z"/>
			<path class="st8" d="M87.5,714.9H77.3v-4.3c-2.5,3.1-6.3,5.3-11.6,5.3c-10.7,0-18.8-8.8-18.8-20.4c0-11.7,8.1-20.4,18.8-20.4     c5.3,0,9.1,2.2,11.6,5.3v-4.3h10.2V714.9z M57.6,695.5c0,5.9,3.9,10.7,10,10.7c6,0,10-4.6,10-10.7c0-6.1-4-10.7-10-10.7     C61.5,684.8,57.6,689.6,57.6,695.5z"/>
			<path class="st8" d="M128.2,685.4h-14.1v14.2c0,4.8,2.6,6.6,5.8,6.6c2.5,0,5.2-1.2,7.3-2.5l3.8,8.2c-3.4,2.3-7.3,4.1-12.9,4.1     c-9.6,0-14.5-5.4-14.5-15.5v-15h-7.5v-9.3h7.5v-11.5h10.5v11.5h14.1V685.4z"/>
			<path class="st8" d="M161.3,714.9h-12.1l-15.3-38.8h11.4l10.1,27.8l10.1-27.8h11L161.3,714.9z"/>
			<path class="st8" d="M196.1,663.4c0,3.8-2.9,6.7-6.7,6.7c-3.8,0-6.7-2.9-6.7-6.7c0-3.8,2.9-6.7,6.7-6.7     C193.2,656.7,196.1,659.6,196.1,663.4z M194.7,714.9h-10.5v-38.8h10.5V714.9z"/>
			<path class="st8" d="M245.5,714.9h-10.2v-4.3c-2.5,3.1-6.3,5.3-11.6,5.3c-10.7,0-18.8-8.8-18.8-20.4c0-11.7,8.1-20.4,18.8-20.4     c5.3,0,9.1,2.2,11.6,5.3v-4.3h10.2V714.9z M215.6,695.5c0,5.9,3.9,10.7,10,10.7c6,0,10-4.6,10-10.7c0-6.1-4-10.7-10-10.7     C219.5,684.8,215.6,689.6,215.6,695.5z"/>
			<path class="st8" d="M294.8,690.2v24.7h-10.5v-21.4c0-5.6-2.8-8.7-7.6-8.7c-4.5,0-8.2,2.9-8.2,8.8v21.3h-10.5v-38.8h10.2v4.6     c2.8-4.1,7-5.6,11.4-5.6C288.5,675.1,294.8,681.2,294.8,690.2z"/>
			<path class="st8" d="M391.2,714.9h-11.2v-42.3l-13.9,36.9h-11.8l-13.9-36.6v42h-11.2v-56.1h16.4l14.6,37.9l14.5-37.9h16.4V714.9z     "/>
			<path class="st8" d="M442.9,714.9h-10.2v-4.3c-2.5,3.1-6.3,5.3-11.6,5.3c-10.7,0-18.8-8.8-18.8-20.4c0-11.7,8.1-20.4,18.8-20.4     c5.3,0,9.1,2.2,11.6,5.3v-4.3h10.2V714.9z M413,695.5c0,5.9,3.9,10.7,10,10.7c6,0,10-4.6,10-10.7c0-6.1-4-10.7-10-10.7     C416.8,684.8,413,689.6,413,695.5z"/>
			<path class="st8" d="M482,675.9l-1.6,10.4c-1.7-0.8-4.2-1.2-6.3-1.2c-4.8,0-8.2,3-8.2,8.7v21.2h-10.5v-38.8h10.1v4.2     c2.4-3.6,6.2-5.3,10.9-5.3C478.8,675.1,480.5,675.4,482,675.9z"/>
			<path class="st8" d="M502.5,663.4c0,3.8-2.9,6.7-6.7,6.7s-6.7-2.9-6.7-6.7c0-3.8,2.9-6.7,6.7-6.7S502.5,659.6,502.5,663.4z      M501.1,714.9h-10.5v-38.8h10.5V714.9z"/>
			<path class="st8" d="M541.9,685.4h-14.1v14.2c0,4.8,2.6,6.6,5.8,6.6c2.5,0,5.2-1.2,7.3-2.5l3.8,8.2c-3.4,2.3-7.3,4.1-12.9,4.1     c-9.6,0-14.5-5.4-14.5-15.5v-15h-7.5v-9.3h7.5v-11.5h10.5v11.5h14.1V685.4z"/>
			<path class="st8" d="M564.5,663.4c0,3.8-2.9,6.7-6.7,6.7c-3.8,0-6.7-2.9-6.7-6.7c0-3.8,2.9-6.7,6.7-6.7     C561.6,656.7,564.5,659.6,564.5,663.4z M563.1,714.9h-10.5v-38.8h10.5V714.9z"/>
			<path class="st8" d="M638.6,690.2v24.7h-10.4v-21.4c0-5.6-2.8-8.7-7.6-8.7c-4.5,0-8.2,2.9-8.2,8.8v21.3H602v-21.4     c0-5.6-2.8-8.7-7.6-8.7c-4.5,0-8.2,2.9-8.2,8.8v21.3h-10.5v-38.8h10.2v4.6c2.8-4.1,7-5.6,11.4-5.6c5.6,0,10.2,2.5,12.8,6.7     c3-4.9,8.1-6.7,13.2-6.7C632.4,675.1,638.6,681.2,638.6,690.2z"/>
			<path class="st8" d="M686.9,695.4c0,1.2-0.1,2.6-0.2,3.5h-27.5c1.1,5.6,5,8.1,10,8.1c3.4,0,7-1.4,9.8-3.7l6.1,6.7     c-4.4,4-10,5.9-16.5,5.9c-11.9,0-20.2-8.1-20.2-20.3s8-20.6,19.6-20.6C679.3,675.1,686.9,683.3,686.9,695.4z M659.3,691.8h17.2     c-1-5-4-7.8-8.5-7.8C663.1,684.1,660.2,687,659.3,691.8z"/>
			<path class="st8" d="M770.1,714.9h-11.9l-4.9-13.1h-23.9l-4.9,13.1h-11.7l21.8-56.1h13.6L770.1,714.9z M733.2,691.6h16.2     l-8.1-21.7L733.2,691.6z"/>
			<path class="st8" d="M810.9,682.4l-7.5,6.3c-2.4-2.5-4.9-3.9-8.3-3.9c-5.4,0-9.7,4.2-9.7,10.7c0,6.5,4.3,10.7,9.7,10.7     c3.4,0,6.2-1.5,8.5-3.9l7.5,6.4c-3.6,4.7-9.1,7.3-15.6,7.3c-12.4,0-20.7-8.7-20.7-20.4c0-11.7,8.3-20.4,20.7-20.4     C801.8,675.1,807.3,677.7,810.9,682.4z"/>
			<path class="st8" d="M857.4,714.9h-10.2v-4.3c-2.5,3.1-6.3,5.3-11.6,5.3c-10.7,0-18.8-8.8-18.8-20.4c0-11.7,8.1-20.4,18.8-20.4     c5.3,0,9.1,2.2,11.6,5.3v-4.3h10.2V714.9z M827.5,695.5c0,5.9,3.9,10.7,10,10.7c6,0,10-4.6,10-10.7c0-6.1-4-10.7-10-10.7     C831.4,684.8,827.5,689.6,827.5,695.5z"/>
			<path class="st8" d="M897.8,680.1v-22.9h10.4v57.7H898v-4.3c-2.5,3.1-6.3,5.3-11.6,5.3c-10.7,0-18.8-8.8-18.8-20.4     c0-11.7,8.1-20.4,18.8-20.4C891.6,675.1,895.3,677.1,897.8,680.1z M878.3,695.5c0,5.9,3.9,10.7,10,10.7c6,0,10-4.6,10-10.7     c0-6.1-4-10.7-10-10.7C882.2,684.8,878.3,689.6,878.3,695.5z"/>
			<path class="st8" d="M956.9,695.4c0,1.2-0.1,2.6-0.2,3.5h-27.5c1.1,5.6,5,8.1,10,8.1c3.4,0,7-1.4,9.8-3.7l6.1,6.7     c-4.4,4-10,5.9-16.5,5.9c-11.9,0-20.2-8.1-20.2-20.3s8-20.6,19.6-20.6C949.2,675.1,956.8,683.3,956.9,695.4z M929.2,691.8h17.2     c-1-5-4-7.8-8.5-7.8C933,684.1,930.1,687,929.2,691.8z"/>
			<path class="st8" d="M1029.9,690.2v24.7h-10.4v-21.4c0-5.6-2.8-8.7-7.6-8.7c-4.5,0-8.2,2.9-8.2,8.8v21.3h-10.5v-21.4     c0-5.6-2.8-8.7-7.6-8.7c-4.5,0-8.2,2.9-8.2,8.8v21.3H967v-38.8h10.2v4.6c2.8-4.1,7-5.6,11.4-5.6c5.6,0,10.2,2.5,12.8,6.7     c3-4.9,8.1-6.7,13.2-6.7C1023.7,675.1,1029.9,681.2,1029.9,690.2z"/>
			<path class="st8" d="M1050.3,731.1h-11.5l13.6-24.4l-16.7-30.6h11.9l10.7,20l10.3-20h11.5L1050.3,731.1z"/>
		</g>
	</g>
</g>
</svg>