<?xml version="1.0" encoding="utf-8"?>
<!-- Generator: Adobe Illustrator 28.0.0, SVG Export Plug-In . SVG Version: 6.00 Build 0)  -->
<svg version="1.1" id="Layer_1" xmlns="http://www.w3.org/2000/svg" xmlns:xlink="http://www.w3.org/1999/xlink" x="0px" y="0px"
	 viewBox="0 0 226.9 186.4" style="enable-background:new 0 0 226.9 186.4;" xml:space="preserve">
<style type="text/css">
	.st0{fill:#1268B3;}
</style>
<path class="st0" d="M0,120.9h29.3v-13.8H0V120.9z M0,93.2h29.3V79.3H0V93.2z M0,65.5h29.3V51.7H0V65.5z M0,37.8h29.3V23.9H0V37.8z
	 M29.3,93.2V107c12.2,0,22.4,1.1,29.8,3.7V96.9C49,94.3,42.6,93.2,29.3,93.2 M29.3,37.8v13.8c12.2,0,22.4,1.6,29.8,3.7V41.5
	C49,38.9,42.6,37.8,29.3,37.8 M29.3,65.5v13.8c12.2,0,22.4,1.1,29.8,3.7V69.2C49,66.6,42.6,65.5,29.3,65.5 M29.3,10.1V24
	c12.2,0,22.4,1.6,29.8,3.7V13.8C49,11.2,42.6,10.1,29.3,10.1 M120.9,186.4c1.6-22.4,13.3-37.8,50.1-37.8h55.9v-13.9h-29.3v-13.8
	c-11.7,0-21.8,1.6-29.8,3.7v-13.8c-21.3,2.1-36.8,10.1-44.2,19.2c6.9-20.8,22.9-33,44.2-33V83.1c-21.8,0-34.6,8.5-44.2,18.6
	c7.5-22.9,24.5-32.5,44.2-32.5V55.4c-22.9,0-36.8,10.7-44.2,19.2c5.3-16.5,17.6-33,44.2-33V27.7c-20.8,0-35.2,8.5-43.7,18.6
	c3.7-14.9,17-32.5,43.7-32.5V0c-27.2,0-44.7,14.4-54.3,30.9C103.9,14.4,86.3,0,59.1,0v13.9c26.6,0,40,17.6,43.7,32.5
	c-8.5-10.1-22.9-18.6-43.7-18.6v13.8c26.6,0,38.9,16.5,44.2,33c-7.5-8.5-20.8-19.2-44.2-19.2v13.8c19.7,0,36.8,9.6,44.2,32.5
	C93.7,91.6,81,83.1,59.1,83.1V97c21.3,0,37.3,12.2,44.2,33c-7.5-9.1-22.4-17-44.2-19.2v13.8c-8-2.1-18.1-3.7-29.8-3.7v13.9H0v13.9
	h55.9c36.8,0,48.5,15.4,50.1,37.8L120.9,186.4L120.9,186.4z M197.6,120.9h29.3V107h-29.3V120.9z M197.6,93.2h29.3V79.3h-29.3V93.2z
	 M197.6,65.5h29.3V51.6h-29.3V65.5z M197.6,37.8h29.3V23.9h-29.3V37.8z M197.6,93.2V107c-12.2,0-22.4,1.1-29.8,3.7V96.9
	C177.9,94.2,184.3,93.2,197.6,93.2 M197.6,37.8v13.8c-12.2,0-22.4,1.6-29.8,3.7V41.5C177.9,38.9,184.3,37.8,197.6,37.8 M197.6,65.5
	v13.8c-12.2,0-22.4,1.1-29.8,3.7V69.2C177.9,66.6,184.3,65.5,197.6,65.5 M197.6,10.1v13.9c-12.2,0-22.4,1.6-29.8,3.7V13.8
	C177.9,11.2,184.3,10.1,197.6,10.1"/>
</svg>
