<?xml version="1.0" encoding="utf-8"?>
<!-- Generator: Adobe Illustrator 28.0.0, SVG Export Plug-In . SVG Version: 6.00 Build 0)  -->
<svg version="1.1" id="Capa_1" xmlns="http://www.w3.org/2000/svg" xmlns:xlink="http://www.w3.org/1999/xlink" x="0px" y="0px"
	 viewBox="0 0 110.4 110.4" style="enable-background:new 0 0 110.4 110.4;" xml:space="preserve">
<style type="text/css">
	.st0{fill:#007BC0;}
</style>
<g>
	<g>
		<g>
			<path class="st0" d="M56.5,79.9h-2.1v4.3h2.1c1.4,0,1.9-1.1,1.9-2.2C58.4,80.8,58,79.9,56.5,79.9z M55.2,0C24.7,0,0,24.7,0,55.2
				s24.7,55.2,55.2,55.2s55.2-24.7,55.2-55.2C110.5,24.7,85.7,0,55.2,0z M55.5,15.6c4.4,0,7.9,3.5,7.9,7.9s-3.5,7.9-7.9,7.9
				s-7.9-3.5-7.9-7.9S51.1,15.6,55.5,15.6z M55.5,34.3c4.4,0,7.9,3.5,7.9,7.9s-3.5,7.9-7.9,7.9s-7.9-3.5-7.9-7.9
				S51.1,34.3,55.5,34.3z M36.3,15.6c4.4,0,7.9,3.5,7.9,7.9s-3.5,7.9-7.9,7.9s-7.9-3.5-7.9-7.9S31.9,15.6,36.3,15.6z M36.3,34.3
				c4.4,0,7.9,3.5,7.9,7.9s-3.5,7.9-7.9,7.9s-7.9-3.5-7.9-7.9S31.9,34.3,36.3,34.3z M36.3,53.5c4.4,0,7.9,3.5,7.9,7.9
				s-3.5,7.9-7.9,7.9s-7.9-3.5-7.9-7.9S31.9,53.5,36.3,53.5z M45.6,87c0,1.9-0.1,4.3-2.6,6.1c-1.7,1.2-3.6,1.4-5.4,1.4
				c-1.8,0-3.7-0.2-5.4-1.4c-2.5-1.8-2.6-4.2-2.6-6.1V75.9h5.3V87c0,1.1,0.1,1.9,0.9,2.5c0.6,0.5,1,0.6,1.8,0.6
				c0.7,0,1.2-0.2,1.8-0.6c0.8-0.7,0.9-1.5,0.9-2.5V75.9h5.3V87L45.6,87z M55.5,53.5c4.4,0,7.9,3.5,7.9,7.9s-3.5,7.9-7.9,7.9
				s-7.9-3.5-7.9-7.9S51.1,53.5,55.5,53.5z M61.1,87.2c-1,0.7-2.2,1-5.1,1h-1.5v6h-4.6V75.9h7.6c3.7,0,6,2.2,6,6.3
				C63.5,84.3,62.6,86.1,61.1,87.2z M80.1,81.4c-1.8-1.5-2.5-1.4-3.9-1.4c-2.8,0-4.7,2.1-4.7,5.1s1.9,5.1,4.7,5.1
				c1.5,0,2.2-0.2,3.9-1.4v4.7c-1.7,0.9-2.7,1.1-4.4,1.1c-5.5,0-9.4-3.9-9.4-9.5c0-5.5,4-9.6,9.3-9.6c1.6,0,2.7,0.3,4.5,1.1V81.4z
				 M74.2,69.2c-4.4,0-7.9-3.5-7.9-7.9s3.5-7.9,7.9-7.9c4.3,0,7.9,3.5,7.9,7.9S78.5,69.2,74.2,69.2z M74.2,50
				c-4.4,0-7.9-3.5-7.9-7.9s3.5-7.9,7.9-7.9c4.3,0,7.9,3.5,7.9,7.9S78.5,50,74.2,50z M74.2,31.4c-4.4,0-7.9-3.5-7.9-7.9
				s3.5-7.9,7.9-7.9c4.3,0,7.9,3.5,7.9,7.9S78.5,31.4,74.2,31.4z"/>
		</g>
	</g>
</g>
</svg>
