<?xml version="1.0" encoding="utf-8"?>
<!-- Generator: Adobe Illustrator 28.0.0, SVG Export Plug-In . SVG Version: 6.00 Build 0)  -->
<svg version="1.1" id="Layer_1" xmlns="http://www.w3.org/2000/svg" xmlns:xlink="http://www.w3.org/1999/xlink" x="0px" y="0px"
	 viewBox="0 0 175.89 45" style="enable-background:new 0 0 175.89 45;" xml:space="preserve">
<style type="text/css">
	.st0{fill:#FFFFFF;}
</style>
<path id="w" class="st0" d="M171.23,17.14v0.25h0.2c0.28,0,0.52,0.11,0.71,0.34c0.19,0.23,0.21,0.58,0.06,1.07l0.03,0l-2.3,7.7
	l-4.41-9.69l-0.01-0.04h-0.23l-4.08,9.84l-2.8-7.81l0.01,0c-0.17-0.48-0.14-0.84,0.08-1.07s0.46-0.34,0.73-0.34h0.2v-0.25H153v0.25
	h0.2c0.45,0,0.85,0.13,1.2,0.38c0.35,0.25,0.61,0.6,0.78,1.05l0.01,0l5.25,13.64h0.23c0.02-0.4,0.07-0.8,0.16-1.2
	c0.09-0.4,0.23-0.87,0.41-1.4l3.35-7.88l4.82,10.49h0.23c-0.02-0.38,0.01-0.78,0.09-1.18c0.08-0.4,0.2-0.88,0.36-1.43l3.63-11.03
	l0,0c0.15-0.45,0.41-0.8,0.78-1.05c0.37-0.25,0.77-0.38,1.2-0.38h0.18v-0.25H171.23z"/>
<path id="a" class="st0" d="M157.4,31.59c-0.37-0.23-0.67-0.6-0.9-1.12h0l-6.52-13.91h-0.23c-0.02,0.17-0.08,0.4-0.19,0.69
	c-0.11,0.29-0.23,0.6-0.36,0.91c-0.13,0.32-0.25,0.59-0.36,0.83c-0.11,0.23-0.17,0.38-0.19,0.45l-5.13,11.03h-0.01
	c-0.23,0.52-0.53,0.89-0.9,1.12c-0.37,0.23-0.73,0.34-1.08,0.34h-0.2v0.25h4.94v-0.25h-0.2c-0.28,0-0.54-0.13-0.78-0.38
	c-0.23-0.25-0.26-0.61-0.08-1.08h-0.01l1.11-2.61H152l1.09,2.61c0.18,0.47,0.16,0.83-0.08,1.08c-0.23,0.25-0.49,0.38-0.78,0.38h-0.2
	v0.25h6.62v-0.25h-0.2C158.12,31.93,157.77,31.82,157.4,31.59z M146.72,26.97l2.48-5.79l2.43,5.79H146.72z"/>
<path id="l" class="st0" d="M141.19,27.42c-0.27,0.75-0.61,1.42-1.03,1.99c-0.42,0.58-0.94,1.02-1.55,1.33
	c-0.62,0.31-1.35,0.46-2.21,0.46h-3.36V16.46c0.02-0.43,0.18-0.81,0.49-1.12c0.31-0.31,0.68-0.46,1.12-0.46c0.2,0,0.31,0,0.33,0
	v-0.25h-1.93h-0.08h-2.91h-0.08h-1.93v0.25h0.33c0.43,0,0.81,0.15,1.12,0.46c0.31,0.31,0.47,0.68,0.49,1.12v13.89
	c-0.02,0.43-0.18,0.81-0.49,1.12c-0.31,0.31-0.68,0.46-1.12,0.46h-0.33v0.25h1.93h0.08h2.91h0.08h2.46h4.61h0.08l1.25-4.76H141.19z"
	/>
<path id="mare" class="st0" d="M118.85,29.67c-0.37,0.5-0.82,0.89-1.37,1.17c-0.54,0.28-1.2,0.41-1.97,0.41h-3.23v-6.09h3.31
	c0.52,0.02,0.92,0.18,1.2,0.5c0.28,0.32,0.43,0.71,0.43,1.18v0.23h0.25v-1.9v-0.05v-0.83v-0.05v-1.88h-0.25v0.23
	c0,0.47-0.14,0.86-0.43,1.18c-0.28,0.32-0.69,0.48-1.2,0.48h-3.31v-6.17h4.14c0.62,0,1.09,0.18,1.43,0.55
	c0.33,0.37,0.5,0.85,0.5,1.45v0.28h0.28v-2.28v-0.08v-0.6v-0.25v-0.4c-0.22,0.08-0.6,0.17-1.15,0.26c-0.55,0.09-1.07,0.14-1.55,0.14
	h-3.63h-0.05h-2.66h-0.23h-1.73v0.25h0.33c0.38,0,0.71,0.13,0.98,0.38c0.27,0.25,0.41,0.57,0.43,0.95V30.6
	c-0.02,0.37-0.16,0.68-0.43,0.94c-0.27,0.26-0.59,0.39-0.98,0.39h-0.13c-0.37,0-0.7-0.06-0.99-0.18c-0.29-0.12-0.57-0.3-0.84-0.56
	c-0.27-0.26-0.57-0.61-0.9-1.04c-0.3-0.38-0.59-0.77-0.88-1.17c-0.28-0.39-0.52-0.74-0.71-1.03c-0.19-0.29-0.31-0.48-0.36-0.56
	c-0.23-0.38-0.56-0.79-0.99-1.23c-0.43-0.43-0.85-0.72-1.27-0.85c0.8-0.1,1.47-0.35,2.01-0.76c0.53-0.41,0.94-0.91,1.2-1.5
	c0.27-0.59,0.4-1.2,0.4-1.82c0-0.73-0.14-1.36-0.41-1.88c-0.28-0.52-0.66-0.94-1.15-1.27c-0.49-0.33-1.06-0.56-1.7-0.71
	c-0.64-0.15-1.33-0.23-2.07-0.23h-2.61h-0.25h-2.46h-0.25h-1.65v0.25c0.18,0,0.29,0,0.33,0c0.37,0,0.68,0.13,0.94,0.38
	c0.21,0.21,0.34,0.46,0.39,0.76v12.27c-0.05,0.29-0.18,0.54-0.39,0.75c-0.26,0.26-0.58,0.39-0.96,0.39c-0.01,0-0.04,0-0.09,0h-0.2
	c-0.33,0-0.69-0.11-1.05-0.34c-0.37-0.23-0.67-0.6-0.9-1.12h0l-6.52-13.91h-0.23c-0.02,0.17-0.08,0.4-0.19,0.69
	c-0.11,0.29-0.23,0.6-0.36,0.91c-0.13,0.32-0.25,0.59-0.36,0.83c-0.11,0.23-0.17,0.38-0.19,0.45L77,30.48h-0.01
	c-0.23,0.52-0.54,0.89-0.9,1.12c-0.37,0.23-0.73,0.34-1.08,0.34c-0.02,0-0.03,0-0.05,0c-0.45,0-0.85-0.14-1.19-0.41
	c-0.34-0.28-0.56-0.66-0.64-1.17h-0.01l-2.07-16.07h-0.23l-7.28,13.5l-7.49-13.5h-0.25l-2,16.07h0c-0.07,0.5-0.28,0.89-0.63,1.17
	c-0.35,0.28-0.75,0.41-1.2,0.41c-0.25,0-0.38,0-0.4,0v0.25h2.01h0.78h0.8h0.03h1.5v-0.23h-0.38c-0.27,0-0.5-0.11-0.69-0.34
	c-0.19-0.23-0.29-0.47-0.29-0.74c0-0.03,0-0.06,0-0.08c0-0.02,0-0.03,0-0.05h0l1.03-9.92l6.42,11.8h0.25
	c0.02-0.38,0.1-0.79,0.25-1.2c0.15-0.42,0.38-0.92,0.68-1.5l4.9-9.18l1.02,10.01h0c0,0.02,0,0.03,0,0.05c0,0.02,0,0.04,0,0.08
	c0,0.27-0.09,0.51-0.28,0.74c-0.18,0.23-0.42,0.34-0.7,0.34h-0.38v0.23h1.5h0.03h2.53h0.78h1.45h0.55h4.39v-0.25h-0.2
	c-0.28,0-0.54-0.13-0.78-0.38c-0.23-0.25-0.26-0.61-0.08-1.08h-0.01l1.11-2.61h5.67l1.09,2.61h0c0.18,0.47,0.16,0.83-0.08,1.08
	c-0.23,0.25-0.49,0.38-0.78,0.38h-0.2v0.25h6.41h0.21h1.45h0.25h2.48h0.23h1.7l-0.02-0.25c-0.02,0-0.11,0-0.28,0
	c-0.35,0-0.67-0.13-0.95-0.38c-0.28-0.25-0.43-0.57-0.45-0.95V18.09c0.1,0,0.31,0,0.65-0.01c0.37-0.01,0.79,0,1.28,0.01
	c0.3,0.02,0.62,0.08,0.95,0.18c0.33,0.1,0.64,0.26,0.93,0.48c0.28,0.22,0.52,0.51,0.7,0.89c0.18,0.38,0.28,0.85,0.3,1.42
	c0.02,0.25,0.01,0.48-0.01,0.68c-0.02,0.2-0.06,0.37-0.11,0.5c-0.17,0.7-0.41,1.22-0.73,1.55c-0.32,0.33-0.67,0.55-1.07,0.65
	c-0.39,0.1-0.78,0.16-1.17,0.18c-0.25,0.02-0.46,0.02-0.63,0.01c-0.17-0.01-0.26-0.01-0.28-0.01v0.23c0.32,0.02,0.64,0.16,0.98,0.43
	c0.33,0.27,0.63,0.65,0.88,1.15c0.05,0.17,0.16,0.41,0.33,0.71c0.17,0.31,0.35,0.64,0.55,0.98c0.2,0.34,0.4,0.67,0.59,0.99
	c0.19,0.32,0.35,0.57,0.46,0.75c0.35,0.52,0.74,0.95,1.17,1.3c0.43,0.35,0.95,0.61,1.57,0.78c0.62,0.17,1.38,0.25,2.28,0.25h1.46
	h0.19h1.54h0.23h2.66h0.05h2.43h4.11h0.05l1.1-4.26h-0.23C119.52,28.59,119.22,29.17,118.85,29.67z M80.19,26.97l2.48-5.79
	l2.43,5.79H80.19z"/>
<path id="grb" class="st0" d="M8.5,27.86c-4.69,0-8.5-3.81-8.5-8.5v-1l3.8,0v1c0,2.59,2.11,4.7,4.7,4.7s4.7-2.11,4.7-4.7v-1l3.8,0v1
	C17.01,24.05,13.19,27.86,8.5,27.86z M32.24,41.16c3.3-2.11,7.42-5.47,8.3-9.51c0.03-0.16,0.07-0.33,0.1-0.51l0.22-1.18h-3.86
	l-0.17,0.9c-0.85,3.92-7.48,7.96-11.3,9.64V6.54c3.99,2.49,8.45,3.53,11.33,3.96v9.83h3.8l0-13.29l-0.96-0.04
	c-0.09,0-8.59-0.44-14.1-5.08c-0.14-0.12-0.27-0.23-0.39-0.34c-0.26-0.24-0.5-0.47-0.73-0.71l-0.01-0.02L23.62,0L22.8,0.86l0,0.01
	c-0.25,0.26-0.5,0.51-0.76,0.74c-0.11,0.1-0.23,0.2-0.35,0.31c-5.51,4.66-14.04,5.1-14.13,5.1L6.6,7.06v13.3h3.8v-9.83
	c2.87-0.43,7.33-1.47,11.31-3.94v33.89c-4.03-1.75-10.35-5.74-11.18-9.6l-0.18-0.91H6.49l0.22,1.18c0.03,0.18,0.07,0.35,0.1,0.52
	c0.89,4.13,5.02,7.49,8.32,9.58C17.59,42.8,21.86,45,23.67,45C25.45,45,29.75,42.76,32.24,41.16z M47.25,19.33v-1l-3.8,0v1
	c0,2.59-2.11,4.7-4.7,4.7s-4.7-2.11-4.7-4.7v-1h-3.8v1c0,4.69,3.81,8.5,8.5,8.5S47.25,24.02,47.25,19.33z"/>
</svg>
