<?xml version="1.0" encoding="utf-8"?>
<!-- Generator: Adobe Illustrator 28.0.0, SVG Export Plug-In . SVG Version: 6.00 Build 0)  -->
<svg version="1.1" id="Layer_1" xmlns="http://www.w3.org/2000/svg" xmlns:xlink="http://www.w3.org/1999/xlink" x="0px" y="0px"
	 viewBox="0 0 224.2 60" style="enable-background:new 0 0 224.2 60;" xml:space="preserve">
<style type="text/css">
	.st0{fill:#112033;}
	.st1{fill:#3D6BB3;}
</style>
<path id="law" class="st0" d="M224.2,22.9v0.3h-0.2c-0.6,0-1.1,0.2-1.6,0.5c-0.5,0.3-0.8,0.8-1,1.4l0,0l-4.8,14.7
	c-0.2,0.7-0.4,1.4-0.5,1.9c-0.1,0.5-0.1,1.1-0.1,1.6h-0.3l-6.4-14l-4.5,10.5c-0.2,0.7-0.4,1.3-0.6,1.9c-0.1,0.5-0.2,1.1-0.2,1.6
	h-0.3l-7-18.2l0,0c-0.2-0.6-0.6-1.1-1-1.4c-0.5-0.3-1-0.5-1.6-0.5h-0.3v-0.3h8.6v0.3h-0.3c-0.4,0-0.7,0.2-1,0.5
	c-0.3,0.3-0.3,0.8-0.1,1.4l0,0l3.7,10.4l5.4-13.1h0.3l0,0.1l5.9,12.9l3.1-10.3l0,0c0.2-0.6,0.2-1.1-0.1-1.4c-0.3-0.3-0.6-0.5-1-0.5
	H218v-0.3H224.2z M200.9,42.6h0.3v0.3h-8.8v-0.3h0.3c0.4,0,0.7-0.2,1-0.5c0.3-0.3,0.3-0.8,0.1-1.4l-1.5-3.5h-7.6l-1.5,3.5h0
	c-0.2,0.6-0.2,1.1,0.1,1.4c0.3,0.3,0.7,0.5,1,0.5h0.3v0.3h-6.6v-0.3h0.3c0.5,0,0.9-0.2,1.4-0.5c0.5-0.3,0.9-0.8,1.2-1.5h0l6.8-14.7
	c0-0.1,0.1-0.3,0.3-0.6c0.1-0.3,0.3-0.7,0.5-1.1c0.2-0.4,0.3-0.8,0.5-1.2c0.1-0.4,0.2-0.7,0.3-0.9h0.3l8.7,18.5h0
	c0.3,0.7,0.7,1.2,1.2,1.5C200,42.4,200.5,42.6,200.9,42.6z M191.8,36l-3.2-7.7l-3.3,7.7H191.8z M177.9,36.6c-0.4,1-0.8,1.9-1.4,2.7
	c-0.6,0.8-1.2,1.4-2.1,1.8c-0.8,0.4-1.8,0.6-2.9,0.6H167V22c0-0.6,0.2-1.1,0.7-1.5c0.4-0.4,0.9-0.6,1.5-0.6c0.3,0,0.4,0,0.4,0v-0.3
	H167h-0.1h-3.9H163h-2.6v0.3h0.4c0.6,0,1.1,0.2,1.5,0.6c0.4,0.4,0.6,0.9,0.7,1.5v18.5c0,0.6-0.2,1.1-0.7,1.5
	c-0.4,0.4-0.9,0.6-1.5,0.6h-0.4v0.3h2.6h0.1h3.9h0.1h3.3h6.1h0.1l1.7-6.4H177.9z"/>
<path id="mare" class="st0" d="M158.5,39.6c-0.5,0.7-1.1,1.2-1.8,1.6c-0.7,0.4-1.6,0.6-2.6,0.6h-4.3v-8.1h4.4c0.7,0,1.2,0.2,1.6,0.7
	c0.4,0.4,0.6,0.9,0.6,1.6v0.3h0.3v-2.5v-0.1v-1.1v-0.1v-2.5h-0.3v0.3c0,0.6-0.2,1.1-0.6,1.6c-0.4,0.4-0.9,0.6-1.6,0.6h-4.4v-8.2h5.5
	c0.8,0,1.5,0.2,1.9,0.7c0.4,0.5,0.7,1.1,0.7,1.9v0.4h0.4v-3V24v-0.8v-0.3v-0.5c-0.3,0.1-0.8,0.2-1.5,0.4c-0.7,0.1-1.4,0.2-2.1,0.2
	h-4.8h-0.1h-3.5h-0.3h-2.3v0.3h0.4c0.5,0,0.9,0.2,1.3,0.5c0.4,0.3,0.5,0.8,0.6,1.3v15.8c0,0.5-0.2,0.9-0.6,1.3
	c-0.4,0.3-0.8,0.5-1.3,0.5h-0.2c-0.5,0-0.9-0.1-1.3-0.2c-0.4-0.2-0.8-0.4-1.1-0.8c-0.4-0.3-0.8-0.8-1.2-1.4c-0.4-0.5-0.8-1-1.2-1.6
	c-0.4-0.5-0.7-1-1-1.4c-0.3-0.4-0.4-0.6-0.5-0.8c-0.3-0.5-0.8-1.1-1.3-1.6c-0.6-0.6-1.1-1-1.7-1.1c1.1-0.1,2-0.5,2.7-1
	c0.7-0.5,1.2-1.2,1.6-2c0.4-0.8,0.5-1.6,0.5-2.4c0-1-0.2-1.8-0.6-2.5c-0.4-0.7-0.9-1.3-1.5-1.7c-0.7-0.4-1.4-0.8-2.3-1
	c-0.9-0.2-1.8-0.3-2.8-0.3h-3.5h-0.3h-3.3h-0.3h-2.2v0.3c0.2,0,0.4,0,0.4,0c0.5,0,0.9,0.2,1.3,0.5c0.3,0.3,0.5,0.6,0.5,1v16.4
	c-0.1,0.4-0.2,0.7-0.5,1c-0.3,0.3-0.8,0.5-1.3,0.5c0,0-0.1,0-0.1,0h-0.3c-0.4,0-0.9-0.2-1.4-0.5c-0.5-0.3-0.9-0.8-1.2-1.5h0
	l-8.7-18.5H111c0,0.2-0.1,0.5-0.3,0.9c-0.1,0.4-0.3,0.8-0.5,1.2c-0.2,0.4-0.3,0.8-0.5,1.1c-0.1,0.3-0.2,0.5-0.3,0.6l-6.8,14.7h0
	c-0.3,0.7-0.7,1.2-1.2,1.5c-0.5,0.3-1,0.5-1.4,0.5c0,0,0,0-0.1,0c-0.6,0-1.1-0.2-1.6-0.6c-0.5-0.4-0.7-0.9-0.9-1.6h0L94.7,19h-0.3
	l-9.7,18l-10-18h-0.3l-2.7,21.4h0c-0.1,0.7-0.4,1.2-0.8,1.6c-0.5,0.4-1,0.6-1.6,0.6c-0.3,0-0.5,0-0.5,0v0.3h2.7h1h1.1h0h2v-0.3h-0.5
	c-0.4,0-0.7-0.2-0.9-0.5c-0.3-0.3-0.4-0.6-0.4-1c0,0,0-0.1,0-0.1c0,0,0,0,0-0.1h0l1.4-13.2l8.6,15.7H84c0-0.5,0.1-1,0.3-1.6
	c0.2-0.6,0.5-1.2,0.9-2l6.5-12.2L93.2,41h0c0,0,0,0,0,0.1c0,0,0,0.1,0,0.1c0,0.4-0.1,0.7-0.4,1c-0.2,0.3-0.6,0.5-0.9,0.5h-0.5v0.3h2
	h0h3.4h1h1.9h0.7h5.8v-0.3h-0.3c-0.4,0-0.7-0.2-1-0.5c-0.3-0.3-0.3-0.8-0.1-1.4h0l1.5-3.5h7.6l1.5,3.5h0c0.2,0.6,0.2,1.1-0.1,1.4
	c-0.3,0.3-0.7,0.5-1,0.5H114v0.3h8.5h0.3h1.9h0.3h3.3h0.3h2.3l0-0.3c0,0-0.1,0-0.4,0c-0.5,0-0.9-0.2-1.3-0.5
	c-0.4-0.3-0.6-0.8-0.6-1.3V24.1c0.1,0,0.4,0,0.9,0c0.5,0,1.1,0,1.7,0c0.4,0,0.8,0.1,1.3,0.2c0.4,0.1,0.9,0.3,1.2,0.6
	c0.4,0.3,0.7,0.7,0.9,1.2c0.2,0.5,0.4,1.1,0.4,1.9c0,0.3,0,0.6,0,0.9c0,0.3-0.1,0.5-0.2,0.7c-0.2,0.9-0.5,1.6-1,2.1
	c-0.4,0.4-0.9,0.7-1.4,0.9c-0.5,0.1-1,0.2-1.6,0.2c-0.3,0-0.6,0-0.8,0c-0.2,0-0.3,0-0.4,0v0.3c0.4,0,0.9,0.2,1.3,0.6
	c0.4,0.4,0.8,0.9,1.2,1.5c0.1,0.2,0.2,0.5,0.4,1c0.2,0.4,0.5,0.8,0.7,1.3c0.3,0.5,0.5,0.9,0.8,1.3c0.3,0.4,0.5,0.8,0.6,1
	c0.5,0.7,1,1.3,1.6,1.7c0.6,0.5,1.3,0.8,2.1,1c0.8,0.2,1.8,0.3,3,0.3h1.9h0.3h2h0.3h3.5h0.1h3.2h5.5h0.1l1.5-5.7h-0.3
	C159.4,38.1,159,38.9,158.5,39.6z M106.9,36l3.3-7.7l3.2,7.7H106.9z"/>
<path id="grb" class="st1" d="M11.3,37.1C5.1,37.1,0,32.1,0,25.8v-1.3l5.1,0v1.3c0,3.5,2.8,6.3,6.3,6.3s6.3-2.8,6.3-6.3v-1.3l5.1,0
	v1.3C22.7,32.1,17.6,37.1,11.3,37.1z M43,54.9c4.4-2.8,9.9-7.3,11.1-12.7c0-0.2,0.1-0.4,0.1-0.7l0.3-1.6h-5.2l-0.2,1.2
	C48,46.4,39.1,51.8,34,54V8.7c5.3,3.3,11.3,4.7,15.1,5.3v13.1h5.1l0-17.7l-1.3-0.1c-0.1,0-11.5-0.6-18.8-6.8
	c-0.2-0.2-0.4-0.3-0.5-0.5c-0.3-0.3-0.7-0.6-1-0.9l0,0L31.5,0l-1.1,1.1l0,0c-0.3,0.3-0.7,0.7-1,1c-0.2,0.1-0.3,0.3-0.5,0.4
	c-7.3,6.2-18.7,6.8-18.8,6.8L8.8,9.4v17.7h5.1V14c3.8-0.6,9.8-2,15.1-5.3V54c-5.4-2.3-13.8-7.7-14.9-12.8L13.8,40H8.6l0.3,1.6
	C9,41.8,9,42,9.1,42.2c1.2,5.5,6.7,10,11.1,12.8c3.3,2.1,9,5,11.4,5C33.9,60,39.7,57,43,54.9z M63,25.8v-1.3l-5.1,0v1.3
	c0,3.5-2.8,6.3-6.3,6.3s-6.3-2.8-6.3-6.3v-1.3h-5.1v1.3c0,6.3,5.1,11.3,11.3,11.3S63,32,63,25.8z"/>
</svg>
