<?xml version="1.0" encoding="utf-8"?>
<!-- Generator: Adobe Illustrator 28.0.0, SVG Export Plug-In . SVG Version: 6.00 Build 0)  -->
<svg version="1.1" id="Layer_1" xmlns="http://www.w3.org/2000/svg" xmlns:xlink="http://www.w3.org/1999/xlink" x="0px" y="0px"
	 viewBox="0 0 224.17 60" style="enable-background:new 0 0 224.17 60;" xml:space="preserve">
<style type="text/css">
	.st0{fill:#FFFFFF;}
	.st1{fill:#203165;}
</style>
<path id="law" class="st0" d="M224.17,22.85v0.33h-0.23c-0.58,0-1.11,0.17-1.6,0.5c-0.49,0.33-0.84,0.8-1.04,1.4l0,0l-4.84,14.71
	c-0.22,0.74-0.38,1.37-0.48,1.9c-0.1,0.53-0.14,1.06-0.12,1.57h-0.3l-6.43-13.98l-4.46,10.51c-0.25,0.71-0.43,1.34-0.55,1.87
	c-0.12,0.54-0.2,1.07-0.22,1.6h-0.3l-7-18.18l-0.02,0c-0.22-0.6-0.57-1.07-1.04-1.4c-0.47-0.33-1-0.5-1.6-0.5h-0.27v-0.33h8.56v0.33
	h-0.27c-0.36,0-0.68,0.15-0.97,0.45c-0.29,0.3-0.32,0.77-0.1,1.42l-0.02,0l3.73,10.41l5.44-13.12h0.3l0.01,0.05l5.88,12.92
	l3.07-10.26l-0.04,0c0.2-0.65,0.17-1.12-0.08-1.42c-0.26-0.3-0.57-0.45-0.95-0.45h-0.27v-0.33H224.17z M200.93,42.57h0.27v0.33
	h-8.82v-0.33h0.27c0.38,0,0.72-0.17,1.04-0.5c0.31-0.33,0.35-0.81,0.1-1.44l-1.46-3.48h-7.56l-1.49,3.48h0.01
	c-0.25,0.62-0.21,1.1,0.1,1.44c0.31,0.33,0.66,0.5,1.04,0.5h0.27v0.33h-6.58v-0.33h0.27c0.47,0,0.95-0.15,1.44-0.45
	c0.49-0.3,0.89-0.8,1.2-1.49h0.01l6.84-14.71c0.02-0.09,0.11-0.29,0.25-0.6c0.14-0.31,0.31-0.68,0.48-1.1
	c0.18-0.42,0.34-0.83,0.48-1.22c0.14-0.39,0.23-0.7,0.25-0.92h0.3l8.69,18.55h0c0.31,0.69,0.71,1.19,1.2,1.49
	C200.01,42.42,200.48,42.57,200.93,42.57z M191.81,35.95l-3.24-7.72l-3.3,7.72H191.81z M177.9,36.56c-0.36,1-0.81,1.89-1.37,2.66
	c-0.56,0.77-1.25,1.36-2.07,1.77c-0.82,0.41-1.8,0.62-2.94,0.62h-4.48V21.95c0.02-0.58,0.24-1.07,0.65-1.49
	c0.41-0.41,0.91-0.62,1.49-0.62c0.27,0,0.41,0,0.43,0v-0.33h-2.57h-0.1h-3.88h-0.1h-2.57v0.33h0.43c0.58,0,1.07,0.21,1.49,0.62
	c0.41,0.41,0.63,0.91,0.65,1.49v18.52c-0.02,0.58-0.24,1.07-0.65,1.49c-0.41,0.41-0.91,0.62-1.49,0.62h-0.43v0.33h2.57h0.1h3.88h0.1
	h3.28h6.15h0.1l1.67-6.35H177.9z"/>
<path id="mare" class="st0" d="M158.47,39.56c-0.49,0.67-1.1,1.19-1.82,1.55c-0.72,0.37-1.6,0.55-2.62,0.55h-4.31v-8.12h4.41
	c0.69,0.02,1.23,0.25,1.6,0.67c0.38,0.42,0.57,0.95,0.57,1.57v0.3h0.33v-2.54v-0.07v-1.1v-0.07v-2.51h-0.33v0.3
	c0,0.62-0.19,1.15-0.57,1.57c-0.38,0.42-0.91,0.63-1.6,0.63h-4.41v-8.22h5.51c0.82,0,1.46,0.25,1.91,0.74
	c0.44,0.49,0.67,1.14,0.67,1.94v0.37h0.37v-3.04v-0.1v-0.8v-0.33v-0.53c-0.29,0.11-0.8,0.23-1.54,0.35
	c-0.74,0.12-1.43,0.18-2.07,0.18h-4.85h-0.07h-3.54h-0.3h-2.31v0.33h0.43c0.51,0,0.95,0.17,1.3,0.5c0.36,0.33,0.55,0.76,0.57,1.27
	V40.8c-0.02,0.49-0.21,0.91-0.57,1.25c-0.36,0.35-0.79,0.52-1.3,0.52h-0.18c-0.49,0-0.93-0.08-1.32-0.23
	c-0.39-0.16-0.76-0.41-1.12-0.75c-0.36-0.35-0.76-0.81-1.2-1.39c-0.4-0.51-0.79-1.03-1.17-1.55c-0.38-0.52-0.7-0.98-0.95-1.37
	c-0.26-0.39-0.42-0.64-0.48-0.75c-0.31-0.51-0.75-1.06-1.32-1.64c-0.57-0.58-1.13-0.96-1.69-1.14c1.07-0.13,1.96-0.47,2.67-1.02
	c0.71-0.55,1.25-1.21,1.6-2.01c0.36-0.79,0.53-1.6,0.53-2.42c0-0.98-0.18-1.82-0.55-2.51c-0.37-0.69-0.88-1.25-1.54-1.69
	c-0.66-0.43-1.42-0.75-2.27-0.95c-0.86-0.2-1.78-0.3-2.76-0.3h-3.48h-0.33h-3.28h-0.33h-2.21v0.33c0.24,0,0.39,0,0.43,0
	c0.49,0,0.91,0.17,1.25,0.5c0.28,0.27,0.45,0.61,0.52,1.01v16.36c-0.07,0.38-0.23,0.72-0.52,1c-0.35,0.35-0.77,0.52-1.29,0.52
	c-0.01,0-0.05,0-0.12,0h-0.27c-0.45,0-0.91-0.15-1.4-0.45c-0.49-0.3-0.89-0.8-1.2-1.49h0l-8.69-18.55h-0.3
	c-0.02,0.22-0.11,0.53-0.25,0.92c-0.15,0.39-0.31,0.8-0.49,1.22c-0.18,0.42-0.34,0.79-0.48,1.1c-0.15,0.31-0.23,0.51-0.25,0.6
	l-6.84,14.71h-0.01c-0.31,0.69-0.71,1.19-1.2,1.49c-0.49,0.3-0.97,0.45-1.44,0.45c-0.02,0-0.04,0-0.07,0c-0.6,0-1.13-0.18-1.59-0.55
	c-0.46-0.37-0.74-0.89-0.85-1.55H97.5l-2.76-21.42h-0.3l-9.7,18l-9.98-18h-0.33l-2.67,21.42h0c-0.09,0.67-0.37,1.19-0.84,1.55
	c-0.47,0.37-1,0.55-1.6,0.55c-0.33,0-0.51,0-0.53,0v0.33h2.67h1.04h1.07h0.03h2.01v-0.3h-0.5c-0.36,0-0.66-0.15-0.92-0.45
	c-0.26-0.3-0.38-0.63-0.38-0.99c0-0.04,0-0.08,0-0.1c0-0.02,0-0.04,0-0.07h0l1.37-13.23l8.56,15.74h0.33
	c0.02-0.51,0.13-1.05,0.33-1.6c0.2-0.56,0.5-1.23,0.9-2.01l6.53-12.24L93.17,41h-0.01c0,0.02,0,0.04,0,0.07c0,0.02,0,0.06,0,0.1
	c0,0.36-0.12,0.68-0.37,0.99c-0.25,0.3-0.56,0.45-0.94,0.45h-0.5v0.3h2.01h0.03h3.38h1.04h1.94h0.74h5.85v-0.33h-0.27
	c-0.38,0-0.72-0.17-1.04-0.5c-0.31-0.33-0.35-0.81-0.1-1.44h-0.01l1.49-3.48h7.56l1.46,3.48h0c0.24,0.62,0.21,1.1-0.1,1.44
	c-0.31,0.33-0.66,0.5-1.04,0.5h-0.27v0.33h8.54h0.28h1.93h0.33h3.31h0.3h2.27l-0.03-0.33c-0.02,0-0.15,0-0.37,0
	c-0.47,0-0.89-0.17-1.27-0.5c-0.38-0.33-0.58-0.76-0.6-1.27V24.12c0.13,0,0.41-0.01,0.87-0.02c0.49-0.01,1.06-0.01,1.7,0.02
	c0.4,0.02,0.82,0.1,1.27,0.23c0.45,0.13,0.86,0.35,1.24,0.63c0.38,0.29,0.69,0.69,0.94,1.19c0.25,0.5,0.38,1.13,0.4,1.89
	c0.02,0.33,0.02,0.64-0.02,0.9c-0.03,0.27-0.08,0.49-0.15,0.67c-0.22,0.94-0.55,1.63-0.97,2.07c-0.42,0.45-0.9,0.74-1.42,0.87
	c-0.52,0.13-1.04,0.21-1.55,0.23c-0.33,0.02-0.61,0.03-0.84,0.02c-0.22-0.01-0.35-0.02-0.37-0.02v0.3c0.42,0.02,0.86,0.21,1.3,0.57
	c0.45,0.36,0.84,0.87,1.17,1.54c0.07,0.22,0.21,0.54,0.43,0.95c0.22,0.41,0.47,0.85,0.74,1.3c0.27,0.46,0.53,0.9,0.79,1.32
	c0.26,0.42,0.46,0.76,0.62,1c0.47,0.69,0.99,1.27,1.55,1.74c0.57,0.47,1.26,0.81,2.09,1.04c0.82,0.22,1.84,0.33,3.04,0.33h1.95h0.26
	h2.05h0.3h3.54h0.07h3.24h5.48h0.07l1.47-5.68h-0.3C159.36,38.12,158.96,38.9,158.47,39.56z M106.92,35.95l3.3-7.72l3.24,7.72
	H106.92z"/>
<path id="grb" class="st1" d="M11.34,37.15C5.09,37.15,0,32.06,0,25.81v-1.33l5.07,0v1.33c0,3.46,2.81,6.27,6.27,6.27
	s6.27-2.81,6.27-6.27v-1.33l5.07,0v1.33C22.68,32.06,17.59,37.15,11.34,37.15z M42.98,54.89c4.41-2.81,9.9-7.29,11.06-12.68
	c0.04-0.21,0.09-0.44,0.13-0.68l0.3-1.58h-5.15l-0.23,1.2C47.96,46.38,39.11,51.76,34.02,54V8.73c5.31,3.32,11.27,4.7,15.11,5.28
	v13.1h5.07l0-17.72l-1.27-0.06c-0.11-0.01-11.46-0.58-18.8-6.78c-0.18-0.15-0.36-0.31-0.53-0.46c-0.34-0.31-0.66-0.62-0.97-0.94
	l-0.01-0.03L31.49,0L30.4,1.15l0,0.01c-0.33,0.35-0.67,0.68-1.02,0.99c-0.15,0.14-0.31,0.27-0.47,0.41
	c-7.34,6.22-18.72,6.8-18.83,6.8L8.8,9.42v17.73h5.07v-13.1c3.83-0.58,9.78-1.96,15.08-5.26v45.19c-5.37-2.34-13.8-7.66-14.91-12.8
	l-0.24-1.22H8.65l0.3,1.58c0.04,0.23,0.09,0.46,0.13,0.69c1.19,5.51,6.69,9.99,11.09,12.77C23.45,57.07,29.15,60,31.56,60
	C33.93,60,39.67,57.01,42.98,54.89z M63,25.77v-1.33l-5.07,0v1.33c0,3.46-2.81,6.27-6.27,6.27s-6.27-2.81-6.27-6.27v-1.33h-5.07
	v1.33c0,6.25,5.09,11.34,11.34,11.34S63,32.02,63,25.77z"/>
</svg>
