<svg id="b" xmlns="http://www.w3.org/2000/svg" xmlns:xlink="http://www.w3.org/1999/xlink" viewBox="0 0 920.06 1049.64"><defs><style>.cls-1{fill:#fff;}.cls-2{fill:#fff;}</style></defs><path class="cls-1" d="M274.13,547.59c-76.9,0-139.43-62.54-139.43-139.4s62.53-139.4,139.4-139.4a138.89,138.89,0,0,1,94.21,36.74V166.06h1.25A260.27,260.27,0,1,0,274.1,668.4h94.21V547.59Z" transform="translate(-13.89 -18.38)"/><path class="cls-2" d="M857.73,623.8a259.55,259.55,0,0,0-184-76.21H579.52V668.4H673.7c76.9,0,139.44,62.54,139.44,139.4S750.6,947.2,673.73,947.2s-139.4-62.53-139.4-139.4l0-139.4h0V408.19A260.54,260.54,0,0,0,413.52,188.43v480h0V807.8a260.26,260.26,0,1,0,444.21-184Z" transform="translate(-13.89 -18.38)"/><rect class="cls-1" width="520.42" height="100.47"/></svg>