<?xml version="1.0" encoding="utf-8"?>
<!-- Generator: Adobe Illustrator 28.0.0, SVG Export Plug-In . SVG Version: 6.00 Build 0)  -->
<svg version="1.1" id="Layer_1" xmlns="http://www.w3.org/2000/svg" xmlns:xlink="http://www.w3.org/1999/xlink" x="0px" y="0px"
	 viewBox="0 0 300 67.1" style="enable-background:new 0 0 300 67.1;" xml:space="preserve">
<style type="text/css">
	.st0{fill:#FFFFFF;}
	.st1{fill:#034EA2;}
</style>
<rect class="st0" width="300" height="67.1"/>
<g>
	<g>
		<g>
			<rect x="1" y="2" class="st0" width="93" height="63.2"/>
			<path class="st0" d="M47.5,34.2"/>
		</g>
		<g>
			<rect x="2.8" y="3.7" class="st1" width="89.5" height="59.6"/>
			<path class="st1" d="M47.5,33.5"/>
		</g>
		<g>
			<polygon class="st0" points="45.6,16.7 47.5,15.3 49.4,16.7 48.7,14.5 50.6,13.1 48.2,13.1 47.5,10.8 46.8,13.1 44.4,13.1 
				46.3,14.5 			"/>
			<polygon class="st0" points="35.8,19.3 37.7,17.9 39.6,19.3 38.9,17.1 40.8,15.7 38.4,15.7 37.7,13.5 37,15.7 34.6,15.7 
				36.6,17.1 			"/>
			<polygon class="st0" points="30.6,20.6 29.8,22.9 27.5,22.9 29.4,24.3 28.7,26.5 30.6,25.1 32.5,26.5 31.7,24.3 33.7,22.9 
				31.3,22.9 			"/>
			<polygon class="st0" points="28,34.9 29.8,36.2 29.1,34 31,32.6 28.7,32.6 28,30.4 27.2,32.6 24.9,32.6 26.8,34 26.1,36.2 			"/>
			<polygon class="st0" points="31.3,42.4 30.6,40.2 29.8,42.4 27.5,42.4 29.4,43.8 28.7,46 30.6,44.7 32.5,46 31.7,43.8 33.7,42.4 
							"/>
			<polygon class="st0" points="38.5,49.6 37.7,47.3 37,49.6 34.6,49.6 36.6,51 35.8,53.2 37.7,51.8 39.6,53.2 38.9,51 40.8,49.6 
							"/>
			<polygon class="st0" points="48.2,52.2 47.5,49.9 46.8,52.2 44.4,52.2 46.3,53.6 45.6,55.8 47.5,54.4 49.4,55.8 48.7,53.6 
				50.6,52.2 			"/>
			<polygon class="st0" points="58,49.6 57.3,47.3 56.5,49.6 54.2,49.6 56.1,51 55.4,53.2 57.3,51.8 59.1,53.2 58.4,51 60.3,49.6 
							"/>
			<polygon class="st0" points="65.1,42.4 64.4,40.2 63.7,42.4 61.3,42.4 63.2,43.8 62.5,46 64.4,44.7 66.3,46 65.6,43.8 67.5,42.4 
							"/>
			<polygon class="st0" points="70.1,32.6 67.7,32.6 67,30.4 66.3,32.6 63.9,32.6 65.8,34 65.1,36.2 67,34.8 68.9,36.2 68.2,34 			
				"/>
			<polygon class="st0" points="62.5,26.5 64.4,25.1 66.3,26.5 65.6,24.2 67.5,22.9 65.1,22.9 64.4,20.6 63.7,22.9 61.3,22.9 
				63.2,24.2 			"/>
			<polygon class="st0" points="57.3,13.5 56.6,15.7 54.2,15.7 56.1,17.1 55.4,19.3 57.3,17.9 59.2,19.3 58.4,17.1 60.4,15.7 
				58,15.7 			"/>
		</g>
	</g>
	<g>
		<path class="st1" d="M114.2,20.8l2.9,0.9c-0.4,1.6-1.2,2.8-2.2,3.6c-1,0.8-2.3,1.2-3.9,1.2c-2,0-3.6-0.7-4.8-2
			c-1.3-1.3-1.9-3.2-1.9-5.5c0-2.4,0.6-4.3,1.9-5.7c1.3-1.4,2.9-2,5-2c1.8,0,3.3,0.5,4.4,1.6c0.7,0.6,1.2,1.5,1.5,2.7l-2.9,0.7
			c-0.2-0.8-0.5-1.4-1.1-1.8c-0.6-0.4-1.2-0.7-2-0.7c-1.1,0-2,0.4-2.7,1.2c-0.7,0.8-1,2-1,3.8c0,1.9,0.3,3.2,1,4
			c0.7,0.8,1.5,1.2,2.6,1.2c0.8,0,1.5-0.3,2-0.8C113.6,22.6,114,21.8,114.2,20.8z"/>
		<path class="st1" d="M119,20.7c0-0.9,0.2-1.8,0.7-2.7c0.5-0.9,1.1-1.5,2-2c0.8-0.5,1.8-0.7,2.8-0.7c1.6,0,2.9,0.5,4,1.6
			c1,1,1.5,2.4,1.5,4c0,1.6-0.5,2.9-1.6,4c-1,1.1-2.3,1.6-3.9,1.6c-1,0-1.9-0.2-2.8-0.7c-0.9-0.4-1.6-1.1-2-1.9
			C119.2,23,119,21.9,119,20.7z M121.9,20.8c0,1.1,0.3,1.9,0.8,2.4c0.5,0.6,1.1,0.8,1.9,0.8s1.4-0.3,1.9-0.8
			c0.5-0.6,0.7-1.4,0.7-2.4c0-1-0.2-1.8-0.7-2.4c-0.5-0.6-1.1-0.8-1.9-0.8s-1.4,0.3-1.9,0.8C122.1,19,121.9,19.8,121.9,20.8z"/>
		<path class="st1" d="M131.8,22.2v-2.8h5.5v2.8H131.8z"/>
		<path class="st1" d="M137.8,15.5h1.6v-0.8c0-0.9,0.1-1.6,0.3-2c0.2-0.4,0.5-0.8,1.1-1.1c0.5-0.3,1.2-0.4,1.9-0.4
			c0.8,0,1.6,0.1,2.4,0.4l-0.4,2c-0.4-0.1-0.9-0.2-1.3-0.2c-0.4,0-0.7,0.1-0.9,0.3c-0.2,0.2-0.3,0.6-0.3,1.1v0.8h2.1v2.2h-2.1v8.4
			h-2.8v-8.4h-1.6V15.5z"/>
		<path class="st1" d="M152.9,26.2v-1.6c-0.4,0.6-0.9,1-1.5,1.3c-0.6,0.3-1.3,0.5-2,0.5c-0.7,0-1.4-0.2-1.9-0.5
			c-0.6-0.3-1-0.8-1.2-1.3c-0.3-0.6-0.4-1.4-0.4-2.4v-6.7h2.8v4.9c0,1.5,0.1,2.4,0.2,2.8c0.1,0.3,0.3,0.6,0.6,0.8
			c0.3,0.2,0.6,0.3,1,0.3c0.5,0,0.9-0.1,1.3-0.4c0.4-0.3,0.6-0.6,0.8-1c0.1-0.4,0.2-1.3,0.2-2.9v-4.5h2.8v10.7H152.9z"/>
		<path class="st1" d="M168.1,26.2h-2.8v-5.4c0-1.1-0.1-1.9-0.2-2.2c-0.1-0.3-0.3-0.6-0.6-0.8c-0.3-0.2-0.6-0.3-1-0.3
			c-0.5,0-0.9,0.1-1.3,0.4c-0.4,0.3-0.7,0.6-0.8,1.1c-0.1,0.4-0.2,1.3-0.2,2.4v4.8h-2.8V15.5h2.6v1.6c0.9-1.2,2.1-1.8,3.5-1.8
			c0.6,0,1.2,0.1,1.7,0.3c0.5,0.2,0.9,0.5,1.2,0.9c0.3,0.3,0.4,0.7,0.6,1.2c0.1,0.4,0.2,1.1,0.2,1.9V26.2z"/>
		<path class="st1" d="M180.7,26.2h-2.6v-1.6c-0.4,0.6-0.9,1.1-1.5,1.4c-0.6,0.3-1.2,0.4-1.8,0.4c-1.2,0-2.3-0.5-3.1-1.5
			c-0.9-1-1.3-2.4-1.3-4.1c0-1.8,0.4-3.2,1.3-4.1c0.8-0.9,1.9-1.4,3.2-1.4c1.2,0,2.2,0.5,3.1,1.5v-5.3h2.8V26.2z M173.2,20.6
			c0,1.1,0.2,2,0.5,2.5c0.5,0.7,1.1,1.1,1.9,1.1c0.6,0,1.2-0.3,1.7-0.8c0.5-0.6,0.7-1.4,0.7-2.5c0-1.2-0.2-2.1-0.7-2.6
			c-0.4-0.5-1-0.8-1.7-0.8c-0.7,0-1.2,0.3-1.7,0.8C173.4,18.8,173.2,19.6,173.2,20.6z"/>
		<path class="st1" d="M189.6,22.8l2.8,0.5c-0.4,1-0.9,1.8-1.7,2.4c-0.8,0.5-1.8,0.8-2.9,0.8c-1.9,0-3.2-0.6-4.1-1.8
			c-0.7-1-1.1-2.2-1.1-3.7c0-1.8,0.5-3.1,1.4-4.1s2.1-1.5,3.5-1.5c1.6,0,2.8,0.5,3.8,1.6c0.9,1,1.4,2.6,1.3,4.8h-7.1
			c0,0.8,0.2,1.5,0.7,2c0.4,0.5,1,0.7,1.6,0.7c0.4,0,0.8-0.1,1.1-0.4C189.3,23.7,189.5,23.3,189.6,22.8z M189.8,19.9
			c0-0.8-0.2-1.4-0.6-1.9c-0.4-0.4-0.9-0.6-1.5-0.6c-0.6,0-1.1,0.2-1.5,0.7c-0.4,0.4-0.6,1.1-0.6,1.8H189.8z"/>
		<path class="st1" d="M204.7,26.2h-2.6v-1.6c-0.4,0.6-0.9,1.1-1.5,1.4c-0.6,0.3-1.2,0.4-1.8,0.4c-1.2,0-2.3-0.5-3.1-1.5
			c-0.9-1-1.3-2.4-1.3-4.1c0-1.8,0.4-3.2,1.3-4.1c0.8-0.9,1.9-1.4,3.2-1.4c1.2,0,2.2,0.5,3.1,1.5v-5.3h2.8V26.2z M197.1,20.6
			c0,1.1,0.2,2,0.5,2.5c0.5,0.7,1.1,1.1,1.9,1.1c0.6,0,1.2-0.3,1.7-0.8c0.5-0.6,0.7-1.4,0.7-2.5c0-1.2-0.2-2.1-0.7-2.6
			c-0.4-0.5-1-0.8-1.7-0.8c-0.7,0-1.2,0.3-1.7,0.8C197.4,18.8,197.1,19.6,197.1,20.6z"/>
		<path class="st1" d="M213,26.2V11.5h2.8v5.3c0.9-1,1.9-1.5,3.1-1.5c1.3,0,2.4,0.5,3.2,1.4c0.8,0.9,1.3,2.3,1.3,4
			c0,1.8-0.4,3.2-1.3,4.2c-0.9,1-1.9,1.5-3.2,1.5c-0.6,0-1.2-0.2-1.8-0.5c-0.6-0.3-1.1-0.8-1.5-1.3v1.6H213z M215.8,20.6
			c0,1.1,0.2,1.9,0.5,2.4c0.5,0.7,1.1,1.1,1.9,1.1c0.6,0,1.2-0.3,1.6-0.8c0.4-0.5,0.7-1.4,0.7-2.5c0-1.2-0.2-2.1-0.7-2.6
			c-0.4-0.5-1-0.8-1.7-0.8c-0.7,0-1.2,0.3-1.7,0.8C216.1,18.7,215.8,19.5,215.8,20.6z"/>
		<path class="st1" d="M224.4,15.5h3l2.5,7.6l2.5-7.6h2.9l-3.8,10.2l-0.7,1.9c-0.2,0.6-0.5,1.1-0.7,1.4c-0.2,0.3-0.5,0.6-0.8,0.8
			c-0.3,0.2-0.6,0.4-1.1,0.5c-0.4,0.1-0.9,0.2-1.4,0.2c-0.5,0-1.1-0.1-1.6-0.2l-0.3-2.2c0.4,0.1,0.8,0.1,1.2,0.1
			c0.7,0,1.1-0.2,1.5-0.6c0.3-0.4,0.6-0.9,0.7-1.5L224.4,15.5z"/>
		<path class="st1" d="M109.7,40.2v2.2h-1.9v4.3c0,0.9,0,1.4,0.1,1.5c0,0.1,0.1,0.3,0.3,0.4c0.1,0.1,0.3,0.1,0.5,0.1
			c0.3,0,0.6-0.1,1.1-0.3l0.2,2.2c-0.7,0.3-1.4,0.4-2.2,0.4c-0.5,0-1-0.1-1.4-0.3c-0.4-0.2-0.7-0.4-0.9-0.7
			c-0.2-0.3-0.3-0.6-0.4-1.1c-0.1-0.3-0.1-1-0.1-2v-4.6h-1.3v-2.2h1.3V38l2.8-1.6v3.8H109.7z"/>
		<path class="st1" d="M114.4,36.1v5.4c0.9-1.1,2-1.6,3.3-1.6c0.6,0,1.2,0.1,1.8,0.4c0.5,0.2,0.9,0.5,1.2,0.9
			c0.3,0.4,0.4,0.8,0.5,1.2c0.1,0.5,0.1,1.2,0.1,2.1v6.2h-2.8v-5.6c0-1.1-0.1-1.8-0.2-2.1c-0.1-0.3-0.3-0.5-0.6-0.7s-0.6-0.3-1-0.3
			c-0.5,0-0.9,0.1-1.3,0.3c-0.4,0.2-0.6,0.6-0.8,1c-0.2,0.5-0.3,1.1-0.3,2v5.3h-2.8V36.1H114.4z"/>
		<path class="st1" d="M130.3,47.4l2.8,0.5c-0.4,1-0.9,1.8-1.7,2.4c-0.8,0.5-1.8,0.8-2.9,0.8c-1.9,0-3.2-0.6-4.1-1.8
			c-0.7-1-1.1-2.2-1.1-3.7c0-1.8,0.5-3.1,1.4-4.1c0.9-1,2.1-1.5,3.5-1.5c1.6,0,2.8,0.5,3.8,1.6c0.9,1,1.4,2.6,1.3,4.8h-7.1
			c0,0.8,0.2,1.5,0.7,2c0.4,0.5,1,0.7,1.6,0.7c0.4,0,0.8-0.1,1.1-0.4C130,48.3,130.2,48,130.3,47.4z M130.5,44.6
			c0-0.8-0.2-1.4-0.6-1.9c-0.4-0.4-0.9-0.6-1.5-0.6c-0.6,0-1.1,0.2-1.5,0.7c-0.4,0.4-0.6,1.1-0.6,1.8H130.5z"/>
		<path class="st1" d="M141.3,50.8V36.1h10.9v2.5h-7.9v3.3h7.4v2.5h-7.4v4h8.2v2.5H141.3z"/>
		<path class="st1" d="M162,50.8v-1.6c-0.4,0.6-0.9,1-1.5,1.3c-0.6,0.3-1.3,0.5-2,0.5c-0.7,0-1.4-0.2-1.9-0.5
			c-0.6-0.3-1-0.8-1.2-1.3c-0.3-0.6-0.4-1.4-0.4-2.4v-6.7h2.8v4.9c0,1.5,0.1,2.4,0.2,2.8c0.1,0.3,0.3,0.6,0.6,0.8
			c0.3,0.2,0.6,0.3,1,0.3c0.5,0,0.9-0.1,1.3-0.4c0.4-0.3,0.6-0.6,0.8-1c0.1-0.4,0.2-1.3,0.2-2.9v-4.5h2.8v10.7H162z"/>
		<path class="st1" d="M170.2,50.8h-2.8V40.2h2.6v1.5c0.4-0.7,0.9-1.2,1.2-1.4c0.4-0.2,0.8-0.3,1.2-0.3c0.6,0,1.3,0.2,1.9,0.5
			l-0.9,2.5c-0.5-0.3-0.9-0.5-1.3-0.5c-0.4,0-0.7,0.1-1,0.3c-0.3,0.2-0.5,0.6-0.6,1.2c-0.2,0.6-0.2,1.8-0.2,3.6V50.8z"/>
		<path class="st1" d="M174.9,45.3c0-0.9,0.2-1.8,0.7-2.7c0.5-0.9,1.1-1.5,2-2c0.8-0.5,1.8-0.7,2.8-0.7c1.6,0,2.9,0.5,4,1.6
			c1,1,1.5,2.4,1.5,4c0,1.6-0.5,2.9-1.6,4c-1,1.1-2.3,1.6-3.9,1.6c-1,0-1.9-0.2-2.8-0.7c-0.9-0.4-1.6-1.1-2-1.9
			C175.1,47.6,174.9,46.6,174.9,45.3z M177.8,45.5c0,1.1,0.3,1.9,0.8,2.4c0.5,0.6,1.1,0.8,1.9,0.8c0.7,0,1.4-0.3,1.9-0.8
			c0.5-0.6,0.7-1.4,0.7-2.4c0-1-0.2-1.8-0.7-2.4c-0.5-0.6-1.1-0.8-1.9-0.8c-0.7,0-1.4,0.3-1.9,0.8C178,43.6,177.8,44.4,177.8,45.5z"
			/>
		<path class="st1" d="M188,40.2h2.6v1.6c0.3-0.5,0.8-1,1.4-1.3c0.6-0.3,1.2-0.5,1.9-0.5c1.2,0,2.3,0.5,3.1,1.5
			c0.9,1,1.3,2.3,1.3,4.1c0,1.8-0.4,3.2-1.3,4.1c-0.9,1-1.9,1.5-3.2,1.5c-0.6,0-1.1-0.1-1.6-0.4c-0.5-0.2-1-0.6-1.5-1.2v5.4H188
			V40.2z M190.8,45.3c0,1.2,0.2,2.1,0.7,2.7c0.5,0.6,1.1,0.9,1.7,0.9c0.7,0,1.2-0.3,1.6-0.8c0.4-0.5,0.7-1.4,0.7-2.6
			c0-1.1-0.2-1.9-0.7-2.5c-0.4-0.5-1-0.8-1.7-0.8c-0.7,0-1.3,0.3-1.7,0.8C191,43.5,190.8,44.3,190.8,45.3z"/>
		<path class="st1" d="M206.8,47.4l2.8,0.5c-0.4,1-0.9,1.8-1.7,2.4c-0.8,0.5-1.8,0.8-2.9,0.8c-1.9,0-3.2-0.6-4.1-1.8
			c-0.7-1-1.1-2.2-1.1-3.7c0-1.8,0.5-3.1,1.4-4.1c0.9-1,2.1-1.5,3.5-1.5c1.6,0,2.8,0.5,3.8,1.6c0.9,1,1.4,2.6,1.3,4.8h-7.1
			c0,0.8,0.2,1.5,0.7,2c0.4,0.5,1,0.7,1.6,0.7c0.4,0,0.8-0.1,1.1-0.4C206.4,48.3,206.6,48,206.8,47.4z M207,44.6
			c0-0.8-0.2-1.4-0.6-1.9c-0.4-0.4-0.9-0.6-1.5-0.6c-0.6,0-1.1,0.2-1.5,0.7c-0.4,0.4-0.6,1.1-0.6,1.8H207z"/>
		<path class="st1" d="M214.2,43.4l-2.6-0.5c0.3-1,0.8-1.8,1.5-2.3c0.7-0.5,1.7-0.7,3.1-0.7c1.3,0,2.2,0.1,2.8,0.4
			c0.6,0.3,1,0.7,1.3,1.1c0.3,0.5,0.4,1.3,0.4,2.5l0,3.3c0,0.9,0,1.6,0.1,2.1c0.1,0.4,0.3,0.9,0.5,1.4h-2.8
			c-0.1-0.2-0.2-0.5-0.3-0.8c0-0.2-0.1-0.3-0.1-0.3c-0.5,0.5-1,0.8-1.5,1.1c-0.5,0.2-1.1,0.4-1.8,0.4c-1.1,0-2-0.3-2.6-0.9
			c-0.6-0.6-0.9-1.3-0.9-2.3c0-0.6,0.1-1.1,0.4-1.6c0.3-0.5,0.7-0.8,1.2-1.1c0.5-0.3,1.3-0.5,2.2-0.7c1.3-0.2,2.2-0.5,2.7-0.7v-0.3
			c0-0.5-0.1-0.9-0.4-1.2c-0.3-0.2-0.8-0.3-1.5-0.3c-0.5,0-0.9,0.1-1.2,0.3C214.6,42.6,214.3,42.9,214.2,43.4z M217.9,45.7
			c-0.4,0.1-0.9,0.3-1.7,0.4c-0.8,0.2-1.3,0.3-1.5,0.5c-0.4,0.3-0.6,0.6-0.6,1c0,0.4,0.1,0.7,0.4,1c0.3,0.3,0.7,0.4,1.1,0.4
			c0.5,0,1-0.2,1.5-0.5c0.3-0.3,0.6-0.6,0.7-0.9c0.1-0.2,0.1-0.7,0.1-1.4V45.7z"/>
		<path class="st1" d="M233.2,50.8h-2.8v-5.4c0-1.1-0.1-1.9-0.2-2.2c-0.1-0.3-0.3-0.6-0.6-0.8c-0.3-0.2-0.6-0.3-1-0.3
			c-0.5,0-0.9,0.1-1.3,0.4c-0.4,0.3-0.7,0.6-0.8,1.1c-0.1,0.4-0.2,1.3-0.2,2.4v4.8h-2.8V40.2h2.6v1.6c0.9-1.2,2.1-1.8,3.5-1.8
			c0.6,0,1.2,0.1,1.7,0.3c0.5,0.2,0.9,0.5,1.2,0.9c0.3,0.3,0.4,0.7,0.6,1.2s0.2,1.1,0.2,1.9V50.8z"/>
		<path class="st1" d="M241.7,36.1h3v8c0,1.3,0,2.1,0.1,2.5c0.1,0.6,0.4,1.1,0.9,1.4c0.5,0.4,1.1,0.5,2,0.5c0.8,0,1.5-0.2,1.9-0.5
			c0.4-0.3,0.7-0.8,0.8-1.3c0.1-0.5,0.1-1.3,0.1-2.5v-8.1h3v7.7c0,1.8-0.1,3-0.2,3.7c-0.2,0.7-0.5,1.3-0.9,1.8
			c-0.4,0.5-1,0.9-1.7,1.2c-0.7,0.3-1.7,0.4-2.8,0.4c-1.4,0-2.5-0.2-3.2-0.5c-0.7-0.3-1.3-0.7-1.7-1.3c-0.4-0.5-0.7-1.1-0.8-1.6
			c-0.2-0.8-0.3-2.1-0.3-3.7V36.1z"/>
		<path class="st1" d="M266.2,50.8h-2.8v-5.4c0-1.1-0.1-1.9-0.2-2.2c-0.1-0.3-0.3-0.6-0.6-0.8c-0.3-0.2-0.6-0.3-1-0.3
			c-0.5,0-0.9,0.1-1.3,0.4c-0.4,0.3-0.7,0.6-0.8,1.1s-0.2,1.3-0.2,2.4v4.8h-2.8V40.2h2.6v1.6c0.9-1.2,2.1-1.8,3.5-1.8
			c0.6,0,1.2,0.1,1.7,0.3c0.5,0.2,0.9,0.5,1.2,0.9c0.3,0.3,0.4,0.7,0.6,1.2c0.1,0.4,0.2,1.1,0.2,1.9V50.8z"/>
		<path class="st1" d="M269.1,38.7v-2.6h2.8v2.6H269.1z M269.1,50.8V40.2h2.8v10.7H269.1z"/>
		<path class="st1" d="M274.2,45.3c0-0.9,0.2-1.8,0.7-2.7c0.5-0.9,1.1-1.5,2-2c0.8-0.5,1.8-0.7,2.8-0.7c1.6,0,2.9,0.5,4,1.6
			c1,1,1.5,2.4,1.5,4c0,1.6-0.5,2.9-1.6,4c-1,1.1-2.3,1.6-3.9,1.6c-1,0-1.9-0.2-2.8-0.7c-0.9-0.4-1.6-1.1-2-1.9
			C274.4,47.6,274.2,46.6,274.2,45.3z M277,45.5c0,1.1,0.3,1.9,0.8,2.4c0.5,0.6,1.1,0.8,1.9,0.8c0.7,0,1.4-0.3,1.9-0.8
			c0.5-0.6,0.7-1.4,0.7-2.4c0-1-0.2-1.8-0.7-2.4c-0.5-0.6-1.1-0.8-1.9-0.8c-0.7,0-1.4,0.3-1.9,0.8C277.3,43.6,277,44.4,277,45.5z"/>
		<path class="st1" d="M297,50.8h-2.8v-5.4c0-1.1-0.1-1.9-0.2-2.2c-0.1-0.3-0.3-0.6-0.6-0.8c-0.3-0.2-0.6-0.3-1-0.3
			c-0.5,0-0.9,0.1-1.3,0.4c-0.4,0.3-0.7,0.6-0.8,1.1c-0.1,0.4-0.2,1.3-0.2,2.4v4.8h-2.8V40.2h2.6v1.6c0.9-1.2,2.1-1.8,3.5-1.8
			c0.6,0,1.2,0.1,1.7,0.3c0.5,0.2,0.9,0.5,1.2,0.9c0.3,0.3,0.4,0.7,0.6,1.2c0.1,0.4,0.2,1.1,0.2,1.9V50.8z"/>
	</g>
</g>
</svg>
