<?xml version="1.0" encoding="utf-8"?>
<!-- Generator: Adobe Illustrator 28.0.0, SVG Export Plug-In . SVG Version: 6.00 Build 0)  -->
<svg version="1.1" id="Layer_1" xmlns="http://www.w3.org/2000/svg" xmlns:xlink="http://www.w3.org/1999/xlink" x="0px" y="0px"
	 viewBox="0 0 300 99.2" style="enable-background:new 0 0 300 99.2;" xml:space="preserve">
<style type="text/css">
	.st0{fill:#FFFFFF;}
	.st1{fill:#014EA2;}
	.st2{fill:none;stroke:#FFFFFF;stroke-width:0.373;stroke-miterlimit:10;}
	.st3{fill:#FFF200;}
	.st4{fill:#1F56A5;}
</style>
<rect class="st0" width="300" height="99.2"/>
<g>
	<g id="eu_flag">
		<rect x="4.2" y="3.4" class="st1" width="88.2" height="58.8"/>
		<rect x="4.2" y="3.4" class="st2" width="88.2" height="58.8"/>
		<polygon class="st3" points="48.3,9.9 49,12.2 51.4,12.2 49.5,13.6 50.2,15.8 48.3,14.4 46.4,15.8 47.1,13.6 45.2,12.2 47.5,12.2 
					"/>
		<polygon class="st3" points="38.5,12.5 39.2,14.8 41.6,14.8 39.6,16.2 40.4,18.4 38.5,17 36.6,18.4 37.3,16.2 35.4,14.8 
			37.7,14.8 		"/>
		<polygon class="st3" points="31.3,19.7 32,22 34.4,22 32.5,23.4 33.2,25.6 31.3,24.2 29.4,25.6 30.1,23.4 28.2,22 30.6,22 		"/>
		<polygon class="st3" points="28.7,29.5 29.4,31.8 31.8,31.8 29.8,33.2 30.6,35.4 28.7,34 26.8,35.4 27.5,33.2 25.6,31.8 
			27.9,31.8 		"/>
		<polygon class="st3" points="31.3,39.3 32,41.6 34.4,41.6 32.5,43 33.2,45.2 31.3,43.8 29.4,45.2 30.1,43 28.2,41.6 30.6,41.6 		
			"/>
		<polygon class="st3" points="38.5,46.5 39.2,48.7 41.6,48.7 39.7,50.1 40.4,52.4 38.5,51 36.6,52.4 37.3,50.1 35.4,48.7 
			37.8,48.7 		"/>
		<polygon class="st3" points="48.3,49.1 49,51.4 51.4,51.4 49.5,52.8 50.2,55 48.3,53.6 46.4,55 47.1,52.8 45.2,51.4 47.6,51.4 		
			"/>
		<polygon class="st3" points="58.1,46.5 58.8,48.7 61.2,48.7 59.3,50.1 60,52.4 58.1,51 56.2,52.4 56.9,50.1 55,48.7 57.4,48.7 		
			"/>
		<polygon class="st3" points="65.3,39.3 66,41.6 68.4,41.6 66.4,43 67.2,45.2 65.3,43.8 63.3,45.2 64.1,43 62.1,41.6 64.5,41.6 		
			"/>
		<polygon class="st3" points="67.9,29.5 68.6,31.8 71,31.8 69.1,33.1 69.8,35.4 67.9,34 66,35.4 66.7,33.2 64.8,31.8 67.2,31.8 		
			"/>
		<polygon class="st3" points="65.3,19.7 66,22 68.4,22 66.4,23.4 67.2,25.6 65.3,24.2 63.3,25.6 64.1,23.4 62.1,22 64.5,22 		"/>
		<polygon class="st3" points="58.1,12.5 58.8,14.8 61.2,14.8 59.3,16.2 60,18.4 58.1,17 56.2,18.4 56.9,16.2 55,14.8 57.3,14.8 		
			"/>
	</g>
	<path id="text" class="st4" d="M13.3,88.8v2.3H4.1V76.2h9.1v2.3H6.6v4h6.1v2.2H6.6v4.2H13.3z M15.6,91.1H18v-8.8
		c0.7-0.2,1.5-0.3,2.4-0.3c1.4,0,2.4,0.6,2.4,2.2v6.9h2.5v-7.1c0-3.1-1.8-4.2-4.6-4.2c-1.6,0-3.5,0.4-5.1,1V91.1z M30.4,82.5
		c0.5-0.2,1.1-0.4,1.9-0.4c0.6,0,1.4,0.1,2.1,0.4v-2.4c-0.8-0.2-1.4-0.3-2.1-0.3c-1.6,0-3.1,0.4-4.3,1.1v10.2h2.5V82.5z M35.4,76.6
		c0,0.9,0.7,1.6,1.6,1.6c0.8,0,1.6-0.7,1.6-1.6c0-0.9-0.7-1.5-1.6-1.5C36.2,75,35.4,75.7,35.4,76.6 M38.2,80h-2.5v11.1h2.5V80z
		 M49.1,80.5c-1-0.6-1.9-0.8-3.2-0.8c-3.3,0-5.8,2.2-5.8,5.8c0,3.6,2.5,5.8,5.8,5.8c1.2,0,2.3-0.3,3.3-0.8v-2.4c-0.9,0.6-1.9,1-3,1
		c-2.2,0-3.7-1.4-3.7-3.6c0-2.3,1.6-3.6,3.6-3.6c1,0,2,0.3,2.9,1V80.5z M51.3,91.1h2.5v-8.7c0.6-0.2,1.5-0.4,2.4-0.4
		c1.4,0,2.4,0.6,2.4,2.2v6.9H61v-7.1c0-3.1-1.8-4.2-4.3-4.2c-1.2,0-2.3,0.3-2.9,0.5V74h-2.5V91.1z M63.2,76.6c0,0.9,0.7,1.6,1.6,1.6
		c0.8,0,1.6-0.7,1.6-1.6c0-0.9-0.7-1.5-1.6-1.5C64,75,63.2,75.7,63.2,76.6 M66,80h-2.5v11.1H66V80z M68.7,91.1h2.5v-8.8
		c0.7-0.2,1.5-0.3,2.4-0.3c1.4,0,2.4,0.6,2.4,2.2v6.9h2.5v-7.1c0-3.1-1.8-4.2-4.6-4.2c-1.6,0-3.5,0.4-5.1,1V91.1z M88.3,90.9
		c0,2.1-1.4,2.9-2.9,2.9c-1.3,0-2.5-0.3-3.7-1v2.3c1,0.5,2.3,0.8,3.7,0.8c2.5,0,5.4-1.2,5.4-4.8V80.5c-1.1-0.5-2.7-0.8-4.2-0.8
		c-3.9,0-6.3,2.2-6.3,5.7c0,3.7,2.4,5.6,5.9,5.6c0.9,0,1.8-0.2,2.1-0.4V90.9z M88.3,88.6c-0.6,0.2-1.2,0.4-1.9,0.4
		c-2.2,0-3.6-1.4-3.6-3.5c0-2.3,1.4-3.5,3.8-3.5c0.7,0,1.3,0.1,1.7,0.3V88.6z M101.1,74h-2.5v17.1h2.5V74z M103.4,76.6
		c0,0.9,0.7,1.6,1.6,1.6c0.8,0,1.6-0.7,1.6-1.6c0-0.9-0.7-1.5-1.6-1.5C104.1,75,103.4,75.7,103.4,76.6 M106.2,80h-2.5v11.1h2.5V80z
		 M114.6,91.1l4.3-11.1h-2.6l-3.1,8.7l-3.1-8.7h-2.6l4.3,11.1H114.6z M129.2,86.1v-1.3c0-3-1.5-5.1-4.8-5.1c-3.1,0-5.4,2.4-5.4,5.9
		c0,3.5,2.4,5.7,5.8,5.7c1.4,0,2.9-0.3,3.9-1v-2.2c-1.1,0.7-2.2,1.1-3.7,1.1c-1.7,0-3.4-1.1-3.6-3.1v0H129.2z M121.5,84.5
		c0.3-1.7,1.4-2.7,2.8-2.7c1.6,0,2.5,1,2.5,2.7H121.5z M130.9,90.4c0.8,0.5,2.1,0.9,3.4,0.9c2.4,0,4.2-1.1,4.2-3.4
		c0-2-1.1-3-3.6-3.5c-1.3-0.4-1.8-0.7-1.8-1.5c0-0.7,0.6-1.3,1.7-1.3c1.2,0,2.1,0.4,3.1,1.1v-2.3c-0.9-0.6-1.9-0.9-3.2-0.9
		c-2.3,0-4,1.1-4,3.4c0,1.9,1,2.9,3.3,3.4c1.4,0.4,2.1,0.7,2.1,1.6c0,0.9-0.7,1.3-1.8,1.3c-1.1,0-2.4-0.5-3.4-1.3V90.4z M140.8,88.5
		c0,2.1-0.6,4-1.8,5.5h1.8c1.4-1,2.5-3,2.5-5.5H140.8z M155.6,79.7c-3.3,0-5.7,2.4-5.7,5.8c0,3.4,2.4,5.8,5.7,5.8
		c3.3,0,5.7-2.4,5.7-5.8C161.4,82.1,159,79.7,155.6,79.7 M155.6,81.8c1.9,0,3.2,1.4,3.2,3.7c0,2.2-1.3,3.7-3.2,3.7
		c-1.9,0-3.2-1.4-3.2-3.7C152.4,83.3,153.8,81.8,155.6,81.8 M163.3,95.6h2.5V91c0.5,0.2,1.2,0.3,2,0.3c3.8,0,6.1-2.2,6.1-5.9
		c0-3.6-2.4-5.7-6.1-5.7c-1.7,0-3.4,0.4-4.5,0.9V95.6z M165.8,82.2c0.5-0.2,1.3-0.3,2-0.3c2.2,0,3.6,1.3,3.6,3.5
		c0,2.5-1.6,3.7-3.8,3.7c-0.7,0-1.4-0.1-1.9-0.3V82.2z M185.3,86.1v-1.3c0-3-1.5-5.1-4.8-5.1c-3.1,0-5.4,2.4-5.4,5.9
		c0,3.5,2.4,5.7,5.8,5.7c1.4,0,2.9-0.3,3.9-1v-2.2c-1.1,0.7-2.2,1.1-3.7,1.1c-1.7,0-3.4-1.1-3.6-3.1v0H185.3z M177.7,84.5
		c0.3-1.7,1.4-2.7,2.8-2.7c1.6,0,2.5,1,2.5,2.7H177.7z M187.5,91.1h2.5v-8.8c0.7-0.2,1.5-0.3,2.4-0.3c1.4,0,2.4,0.6,2.4,2.2v6.9h2.5
		v-7.1c0-3.1-1.8-4.2-4.6-4.2c-1.6,0-3.5,0.4-5.1,1V91.1z M199.4,76.6c0,0.9,0.7,1.6,1.6,1.6c0.8,0,1.6-0.7,1.6-1.6
		c0-0.9-0.7-1.5-1.6-1.5C200.1,75,199.4,75.7,199.4,76.6 M202.2,80h-2.5v11.1h2.5V80z M204.8,91.1h2.5v-8.8c0.7-0.2,1.5-0.3,2.4-0.3
		c1.4,0,2.4,0.6,2.4,2.2v6.9h2.5v-7.1c0-3.1-1.8-4.2-4.6-4.2c-1.6,0-3.5,0.4-5.1,1V91.1z M224.4,90.9c0,2.1-1.4,2.9-2.9,2.9
		c-1.3,0-2.5-0.3-3.7-1v2.3c1,0.5,2.3,0.8,3.7,0.8c2.5,0,5.4-1.2,5.4-4.8V80.5c-1.1-0.5-2.7-0.8-4.2-0.8c-3.9,0-6.3,2.2-6.3,5.7
		c0,3.7,2.4,5.6,5.9,5.6c0.9,0,1.8-0.2,2.1-0.4V90.9z M224.4,88.6c-0.6,0.2-1.2,0.4-1.9,0.4c-2.2,0-3.6-1.4-3.6-3.5
		c0-2.3,1.4-3.5,3.8-3.5c0.7,0,1.3,0.1,1.7,0.3V88.6z M248.3,91.1h2.5v-7.2c0-3.1-1.6-4.2-4.2-4.2c-1.5,0-2.8,0.4-3.9,0.9
		c-0.7-0.5-1.7-0.9-3-0.9c-1.6,0-3.3,0.4-4.8,1v10.4h2.5v-8.8c0.6-0.2,1.3-0.4,2.2-0.4c1.2,0,2,0.6,2,2.1v7.1h2.5v-7.3
		c0-0.6-0.1-1.1-0.3-1.4c0.6-0.3,1.5-0.5,2.5-0.5c1.2,0,2,0.6,2,2.1V91.1z M253,76.6c0,0.9,0.7,1.6,1.6,1.6c0.8,0,1.6-0.7,1.6-1.6
		c0-0.9-0.7-1.5-1.6-1.5C253.7,75,253,75.7,253,76.6 M255.8,80h-2.5v11.1h2.5V80z M258.4,91.1h2.5v-8.8c0.6-0.2,1.5-0.3,2.4-0.3
		c1.4,0,2.4,0.6,2.4,2.2v6.9h2.5v-7.1c0-3.1-1.8-4.2-4.6-4.2c-1.6,0-3.5,0.4-5.1,1V91.1z M280.6,74h-2.5v6.1
		c-0.5-0.3-1.4-0.4-2.2-0.4c-3.4,0-5.9,2.2-5.9,5.8c0,3.7,2.6,5.8,6.4,5.8c1.4,0,2.9-0.1,4.2-0.5V74z M278.2,89.1
		c-0.6,0.1-1.2,0.1-1.7,0.1c-2.4,0-4-1.3-4-3.7c0-2.3,1.5-3.6,3.6-3.6c0.9,0,1.6,0.1,2.1,0.4V89.1z M283,90.4
		c0.8,0.5,2.1,0.9,3.4,0.9c2.4,0,4.2-1.1,4.2-3.4c0-2-1.1-3-3.6-3.5c-1.3-0.4-1.8-0.7-1.8-1.5c0-0.7,0.6-1.3,1.7-1.3
		c1.2,0,2.1,0.4,3.1,1.1v-2.3c-0.9-0.6-1.9-0.9-3.2-0.9c-2.3,0-4,1.1-4,3.4c0,1.9,1,2.9,3.3,3.4c1.4,0.4,2.1,0.7,2.1,1.6
		c0,0.9-0.7,1.3-1.8,1.3c-1.1,0-2.4-0.5-3.4-1.3V90.4z M294.2,87.8c-1,0-1.7,0.8-1.7,1.7c0,1,0.8,1.7,1.7,1.7c1,0,1.8-0.8,1.8-1.7
		C295.9,88.6,295.1,87.8,294.2,87.8"/>
	<path id="erasmus_x2B_" class="st4" d="M124,62.2h-19.4V32.8H124v3.5h-15.5v8.1H124v3.5h-15.5v10.9H124V62.2z M142.2,40.4
		c-0.6-0.1-1-0.2-1.3-0.2c-0.3,0-0.8-0.1-1.4-0.1c-1.2,0-2.3,0.3-3.4,0.7c-1.1,0.5-2.4,1.3-3.9,2.5v-3.3h-3.7v22.1h3.7V46.5
		c1-0.8,2-1.5,3.1-2c1.1-0.5,2.2-0.8,3.3-0.8c0.7,0,1.3,0,1.8,0.1c0.5,0.1,1.1,0.2,1.6,0.3h0.2V40.4z M162.1,47.2
		c0-1.4-0.2-2.6-0.6-3.6c-0.4-1-1.1-1.7-1.9-2.4c-0.8-0.6-1.8-1.1-3-1.3c-1.2-0.3-2.5-0.4-4.1-0.4c-1.3,0-2.7,0.1-4,0.4
		c-1.4,0.2-2.4,0.5-3.1,0.7v3.8h0.2c1.3-0.5,2.5-0.9,3.7-1.1c1.2-0.3,2.3-0.4,3.3-0.4c0.8,0,1.6,0.1,2.3,0.2
		c0.7,0.1,1.4,0.3,1.9,0.6c0.6,0.3,1,0.8,1.3,1.3c0.3,0.6,0.4,1.3,0.4,2.1v0.6c-2.2,0.1-4.2,0.3-6.1,0.5c-1.9,0.2-3.5,0.6-4.8,1.2
		c-1.3,0.6-2.4,1.4-3.1,2.4c-0.7,1-1.1,2.4-1.1,4.1c0,2,0.7,3.7,2.1,5c1.4,1.3,3.1,2,5.1,2c1.1,0,2-0.1,2.8-0.3
		c0.8-0.2,1.5-0.5,2.1-0.8c0.5-0.2,1.1-0.6,1.6-1c0.6-0.4,1-0.7,1.3-0.9v2.3h3.7V47.2z M158.4,56.7c-0.9,0.7-1.9,1.3-3,1.8
		c-1.1,0.5-2.3,0.8-3.6,0.8c-1.6,0-2.7-0.3-3.5-1c-0.8-0.6-1.1-1.6-1.1-2.9c0-1.1,0.3-2,1-2.6c0.7-0.6,1.5-1.1,2.6-1.4
		c0.9-0.3,2.1-0.4,3.6-0.6c1.5-0.1,2.9-0.2,4-0.3V56.7 M183.6,55.8c0-1.6-0.5-2.9-1.4-3.9c-0.9-1-2.3-1.6-4-2
		c-0.6-0.1-1.3-0.3-2.1-0.4c-0.8-0.2-1.6-0.3-2.3-0.5c-1.2-0.3-2.1-0.7-2.7-1.1c-0.6-0.5-0.9-1.1-0.9-2c0-1,0.5-1.8,1.4-2.3
		c0.9-0.5,2.1-0.8,3.4-0.8c1.3,0,2.6,0.2,4,0.7c1.4,0.5,2.5,1.1,3.5,1.8h0.2v-4c-0.9-0.5-2-0.9-3.4-1.2c-1.3-0.3-2.7-0.5-4-0.5
		c-1.4,0-2.7,0.2-3.8,0.5c-1.1,0.4-2.1,0.9-2.8,1.5c-0.8,0.6-1.3,1.3-1.7,2.2c-0.4,0.8-0.6,1.7-0.6,2.6c0,1.4,0.4,2.7,1.2,3.7
		c0.8,1,2.2,1.7,4.1,2.3c0.7,0.2,1.5,0.4,2.3,0.5c0.9,0.2,1.5,0.3,2.1,0.4c1.4,0.3,2.4,0.7,2.9,1.1c0.5,0.4,0.8,1.1,0.8,2
		c0,1.1-0.5,2-1.4,2.5c-0.9,0.5-2.2,0.8-3.8,0.8c-1.3,0-2.7-0.3-4.1-0.8c-1.4-0.5-2.7-1.2-3.9-2.1h-0.2v4.2c0.9,0.5,2.1,0.9,3.4,1.3
		c1.4,0.4,2.9,0.6,4.5,0.6c2.9,0,5.2-0.6,6.8-1.9C182.8,59.5,183.6,57.8,183.6,55.8 M219.8,47.9c0-2.6-0.6-4.7-1.7-6.2
		c-1.1-1.5-2.9-2.2-5.4-2.2c-1.4,0-2.7,0.3-4,0.8c-1.2,0.6-2.6,1.5-4.1,2.7c-0.5-1.1-1.3-2-2.3-2.6c-1-0.6-2.3-1-3.8-1
		c-1.3,0-2.5,0.3-3.7,0.8c-1.2,0.5-2.3,1.3-3.5,2.3v-2.5h-3.7v22.1h3.7V45.7c1-0.8,2-1.4,3.1-1.9c1-0.5,2-0.8,3.1-0.8
		c1.1,0,1.9,0.1,2.4,0.4c0.6,0.3,1,0.7,1.3,1.3c0.3,0.5,0.5,1.2,0.5,2.1c0.1,0.9,0.1,1.8,0.1,2.8v12.6h3.7V48.1c0-0.4,0-0.8,0-1.2
		c0-0.4-0.1-0.8-0.1-1.1c1-0.8,2.1-1.5,3.1-2c1-0.5,2.1-0.8,3.1-0.8c1.1,0,1.9,0.1,2.4,0.4c0.6,0.3,1,0.7,1.3,1.3
		c0.3,0.5,0.5,1.2,0.5,2.1c0.1,0.9,0.1,1.8,0.1,2.7v12.6h3.7V47.9z M243.1,40.1h-3.7v16.5c-1,0.8-2.1,1.4-3.2,1.9
		c-1.1,0.5-2.2,0.8-3.2,0.8c-1.1,0-1.9-0.1-2.5-0.4c-0.6-0.3-1-0.7-1.4-1.3c-0.3-0.6-0.6-1.3-0.7-2c-0.1-0.8-0.2-1.8-0.2-2.9V40.1
		h-3.7v14.3c0,2.7,0.6,4.8,1.9,6.2c1.3,1.4,3.1,2.1,5.4,2.1c1.4,0,2.6-0.3,3.8-0.8c1.1-0.5,2.3-1.3,3.6-2.3v2.4h3.7V40.1z
		 M264.8,55.8c0-1.6-0.5-2.9-1.4-3.9c-0.9-1-2.3-1.6-4-2c-0.6-0.1-1.3-0.3-2.1-0.4c-0.8-0.2-1.6-0.3-2.3-0.5
		c-1.2-0.3-2.1-0.7-2.7-1.1c-0.6-0.5-0.9-1.1-0.9-2c0-1,0.5-1.8,1.4-2.3c0.9-0.5,2.1-0.8,3.4-0.8c1.3,0,2.6,0.2,4,0.7
		c1.4,0.5,2.5,1.1,3.5,1.8h0.2v-4c-0.9-0.5-2-0.9-3.4-1.2c-1.3-0.3-2.7-0.5-4-0.5c-1.4,0-2.7,0.2-3.8,0.5c-1.1,0.4-2.1,0.9-2.8,1.5
		c-0.8,0.6-1.3,1.3-1.7,2.2c-0.4,0.8-0.6,1.7-0.6,2.6c0,1.4,0.4,2.7,1.2,3.7c0.8,1,2.2,1.7,4.1,2.3c0.7,0.2,1.5,0.4,2.3,0.5
		c0.8,0.2,1.5,0.3,2.1,0.4c1.4,0.3,2.4,0.7,2.9,1.1c0.5,0.4,0.8,1.1,0.8,2c0,1.1-0.5,2-1.4,2.5c-0.9,0.5-2.2,0.8-3.8,0.8
		c-1.3,0-2.7-0.3-4.1-0.8c-1.4-0.5-2.7-1.2-3.9-2.1h-0.2v4.2c0.9,0.5,2.1,0.9,3.4,1.3c1.4,0.4,2.9,0.6,4.5,0.6
		c2.9,0,5.2-0.6,6.8-1.9C264,59.5,264.8,57.8,264.8,55.8 M295.9,47.7h-10.8V37h-3.3v10.8h-10.8v3.2h10.8v10.8h3.3V50.9h10.8V47.7z"
		/>
</g>
</svg>
